<svg width="396" height="637" viewBox="0 0 396 637" fill="none" xmlns="http://www.w3.org/2000/svg">
<g clip-path="url(#clip0_2217_1784)">
<g clip-path="url(#clip1_2217_1784)">
<path d="M211.379 344.61C165.578 345.64 92.3433 301.851 129.793 251.058C133.572 244.424 130.877 237.474 129.529 230.444C125.776 208.695 137.722 186.073 155.588 173.758C162.803 168.288 171.551 165.539 179.374 162.685C183.338 160.703 176.863 160.518 174.907 159.223C163.226 153.911 174.987 147.595 182.492 149.234C193.487 150.317 204.878 153.753 214.656 158.959C216.559 159.54 226.074 166.015 222.849 159.831C209.873 144.768 215.476 136.073 233.077 147.358C245.922 155.154 250.996 169.53 260.22 179.546C265.585 179.149 264.792 162.685 264.66 157.532C264.686 149.815 258.793 141.411 262.599 135.148C265.321 132.77 268.862 135.518 270.765 138.134C276.104 144.001 274.465 155.709 278.615 161.417C281.284 163.716 285.354 161.258 288.71 160.228C296.639 157.215 305.625 156.951 313.818 159.223C322.09 160.518 331.446 170.058 335.939 162.104C339.005 149.974 340.59 121.327 333.825 112.262C328.037 111.602 324.839 128.224 316.091 123.177C306.391 113.874 304.145 98.2295 295.74 87.4207C288.182 76.1099 280.544 64.6141 269.84 56.6595C263.021 52.3783 273.646 77.4841 264.792 80.259C256.282 82.2675 250.785 70.9566 244.31 65.2748C232.866 53.8318 218.304 44.3181 204.534 35.4121C195.258 33.0072 207.23 58.9058 204.243 61.6807C200.041 70.5074 190.553 59.2494 186.483 55.1532C176.044 43.6045 161.085 38.9534 148.928 29.281C142.955 24.9205 138.092 18.5516 132.145 14.4025C110.896 5.39087 103.073 62.9228 104.58 76.6385C106.853 95.0053 102.492 106.58 84.5468 91.0148C79.4989 88.24 72.7595 71.8287 68.4251 77.6955C61.4479 97.9387 61.9236 122.622 67.553 142.786C77.9131 166.808 70.883 167.521 49.8984 157.162C41.8905 154.44 45.5377 164.429 46.7798 168.526C49.3699 181.845 61.8179 186.787 73.4466 192.019C87.084 200.185 111.901 213.505 112.112 231.845C106.536 240.725 97.312 222.463 92.5548 219.16C75.0852 202.696 51.6956 193.288 28.1739 189.482C24.3681 188.848 18.633 187.817 16.3073 190.962C14.0344 199.472 19.7694 210.122 21.778 218.817C31.636 244.239 53.6249 264.879 77.9396 276.824C85.7889 280.524 96.7834 280.128 103.549 285.413C108.412 289.932 101.831 293.42 97.3384 293.13C91.3655 293.235 81.9303 293.87 79.5517 299.023C78.7853 305.894 94.6955 303.965 99.347 305.683C123.714 312.289 85.8947 324.974 102.756 328.516C110.632 330.418 120.675 326.56 127.652 327.379C129.714 327.696 132.172 328.78 132.04 331.132C128.947 340.593 113.936 339.324 106.377 343.738C89.3568 352.379 73.0238 363.849 60.4436 378.331C45.1412 395.958 60.7607 385.625 61.4215 393.077C60.7343 397.86 56.585 401.772 53.8628 405.709C48.2598 413.083 45.0884 421.407 44.1898 430.472C43.2912 435.546 44.4012 450.16 52.0128 445.35C59.73 434.885 65.9144 422.306 75.6402 413.03C85.2075 402.274 97.6291 394.161 105.531 382.004C108.967 377.987 114.914 359.673 121.521 366.016C123.239 379.309 114.094 390.963 102.281 403.146C106.826 402.485 111.478 402.485 116.05 403.199C125.802 404.705 137.643 409.991 140.629 420.271C142.056 425.186 134.392 427.274 132.991 422.385C130.85 414.906 120.305 411.629 113.46 410.783C105.029 409.753 96.5191 411.629 89.3569 416.122C68.0816 437.554 47.2555 462.528 65.2801 501.059C72.3895 517.073 89.4626 523.099 105.69 524.896C111.055 525.636 116.314 527.116 117.609 529.811C118.984 542.364 95.1977 532.665 88.934 536.127C84.8111 538.136 82.1946 545.615 84.4146 548.416C109.76 559.198 65.3065 585.493 78.0188 610.784C86.6875 625.663 106.853 621.593 121.177 620.588C131.907 619.69 142.796 620.483 153.447 618.633C160.266 617.1 167.772 615.832 173.189 611.392C177.63 607.507 179.427 600.874 176.255 596.355C173.718 592.655 168.459 592.285 164.864 590.144C160.821 587.74 161.032 584.172 162.671 579.626C175.568 549.499 156.037 540.356 133.467 527.116C112.72 512.158 99.9549 484.409 109.205 459.515C113.46 448.891 121.336 431.264 133.335 430.075C146.1 435.836 104.553 460.81 121.838 495.139C132.568 519.161 153.843 526.244 170.89 529.283C176.414 529.996 181.937 530.71 187.514 530.921C197.425 531.318 207.151 530.445 216.771 527.988C221.713 526.719 223.827 534.383 218.885 535.625C210.454 537.766 201.838 538.796 193.17 538.876C190.21 539.219 185.875 538.004 184.316 541.122C182.413 544.98 188.175 550.477 189.998 553.226C193.883 558.141 197.134 563.797 197.742 570.06C199.592 586.18 182.202 604.706 196.103 618.58C204.376 629.045 282.42 628.49 290.428 619.849C291.433 617.127 287.495 613.347 287.098 609.885C286.622 605.71 291.168 604.944 294.657 606.397C299.969 608.485 303.616 614.484 309.219 615.99C312.576 616.889 313.58 613.057 310.144 610.15C307.105 607.481 302.031 605.763 299.467 602.75C294.842 596.434 305.096 594.346 309.457 596.434C315.351 597.729 321.482 605.393 324.019 605.181L324.099 605.129C322.222 590.012 301.766 583.802 288.473 586.101C267.752 590.858 272.694 581.899 277.901 567.047C279.407 560.572 278.905 550.821 287.389 549.737C298.013 548.575 292.014 534.912 288.05 529.573C284.35 524.896 278.06 525.768 272.113 526.878C265.506 527.935 258.766 526.931 252.133 526.693C239.103 526.825 223.034 513.532 229.774 507.903C235.667 502.961 217.379 505.102 218.039 493.157C217.881 483.114 226.417 484.885 227.289 479.494C228.162 474.076 222.479 470.773 224.699 463.056C226.919 455.313 245.103 459.621 244.574 454.256C241.958 427.697 239.896 426.481 231.545 416.835C228.03 412.395 223.563 408.194 220.656 403.437C216.374 396.592 219.784 391.597 226.18 395.535C238.733 405.577 249.966 419.346 252.899 435.308C254.168 442.654 253.507 450.239 254.855 457.559C255.648 462.554 257.075 464.51 255.225 465.884C253.375 467.258 234.769 459.885 232.575 468.817C231.042 474.975 239.447 478.49 241.588 480.181C246.477 482.744 244.389 484.753 238.575 486.576C236.513 487.237 226.179 485.942 227.289 494.32C228.003 499.605 245.658 500.186 246.001 504.415C246.345 508.643 240.689 508.379 242.248 512.792C243.834 517.205 250.943 516.915 255.674 516.73C262.123 516.492 269.523 516.836 274.254 515.514C274.254 515.514 286.517 515.514 291.089 511.682C304.251 500.662 304.436 498.601 311.915 486.206C315.985 479.441 317.465 475.16 321.139 467.998C322.724 464.933 327.112 457.903 328.089 454.494C329.702 448.918 323.147 436.101 322.011 433.405C320.874 430.683 322.46 426.111 326.557 423.997C330.098 422.147 332.001 417.945 330.125 414.43C329.966 414.14 329.781 413.849 329.57 413.558C308.77 384.805 293.573 368.183 269.999 352.3C252.741 340.646 231.095 344.398 211.459 344.742L211.379 344.61Z" fill="#FF565D"></path>
<path d="M140.043 524.166C132.329 528.023 150.447 540.171 95.2292 524.166C40.0117 508.161 52.6735 448.271 86.1016 418.7C112.844 395.043 131.472 414.422 140.043 428.136C192.499 407.565 235.819 438.842 245.676 455.985L228.071 462.546C228.071 504.16 214.466 488.155 228.071 497.758C241.675 507.361 229.133 517.335 243.276 517.764C218.847 534.478 211.686 537.14 187.258 534.569C177.83 538.855 147.757 520.309 140.043 524.166Z" fill="#FFDFE0"></path>
<path d="M344.818 228.331C344.818 219.637 344.977 211.048 342.334 202.512C336.07 184.832 321.481 168.791 301.871 168.474H301.395C286.912 168.58 275.468 180.049 270.791 193.183C268.544 200.477 261.197 211.629 254.325 201.587C251.418 197.253 250.335 191.518 248.379 186.656C246.74 182.93 245.947 180.287 244.15 179.52C242.142 179.6 241.507 183.881 238.468 186.074C236.776 187.396 234.451 187.739 231.993 187.131C226.945 185.81 222.426 181.82 217.853 179.23C176.492 154.785 121.414 200.953 146.495 245.298C147.843 248.627 149.032 251.534 148.028 254.706C146.627 258.67 139.941 259.436 136.188 263.929C124.718 278.622 133.862 298.998 146.469 309.859C160.899 323.126 179.452 331.054 198.692 333.511C212.515 335.308 225.914 332.349 239.789 333.485C247.797 334.066 255.065 335.071 261.884 337.343C271.028 340.567 278.904 347.624 288.921 344.479C322.829 335.071 379.255 302.856 363.635 260.599C359.433 248.495 344.686 241.915 344.844 228.305L344.818 228.331Z" fill="#FFDFE0"></path>
<path d="M79.3672 315.064C72.7864 312.738 63.9062 309.62 63.6155 301.639C64.3555 291.623 73.6585 289.376 62.1355 281.818C43.8202 268.684 25.7164 253.224 15.3298 232.928C8.48474 219.371 6.0797 202.854 0.608913 188.768C-3.64615 174.392 14.4312 176.427 23.5757 177.51C37.1337 179.413 36.4201 175.608 33.1958 162.79C31.9272 154.836 29.2579 134.064 41.2566 135.703C45.406 136.707 50.401 143.34 52.7796 143.974C54.7882 144.371 54.6032 142.389 54.4711 140.169C52.7796 129.889 51.6432 119.397 51.7489 108.747C51.9868 95.4012 55.449 56.3155 73.1035 57.6632C80.715 60.6495 82.7236 74.1802 88.2737 78.6993C93.0045 82.9276 92.8723 73.8367 93.0045 70.639C93.2423 61.6537 93.9559 52.6685 95.8852 43.9476C99.6646 27.9327 106.298 13.3185 119.063 3.24974C129.476 -5.15409 138.779 4.54467 145.704 12.3935C150.54 17.4147 155.826 21.8545 161.508 25.5543C167.798 29.5448 173.771 32.3989 179.665 35.8344C182.969 37.6843 187.171 39.6399 187.488 33.7731C187.911 27.1927 186.457 12.3407 196.976 15.2477C202.42 17.0447 208.261 24.1008 213.52 28.1705C223.59 36.4158 234.373 42.3091 244.257 50.9772C246.266 52.3778 252.979 58.9582 252.397 52.8006C252.027 49.7087 250.098 43.8418 251.367 40.5385C260.723 24.4443 291.856 63.2129 297.327 71.0882C303.141 79.1749 308.453 87.658 313.131 96.4054C318.338 107.188 322.011 104.756 324.839 94.3705C328.698 77.4043 337.551 78.3557 341.357 94.1063C344.872 106.738 349.418 119.397 349.365 132.822C349.603 142.521 347.964 153.594 358.774 141.332C368.579 130.629 388.163 112.288 393.872 136.469C397.545 158.721 393.872 181.395 386.181 202.828C383.591 209.223 380.472 215.618 377.116 221.591C374.235 227.378 369.028 231.95 368.024 238.134C367.601 241.147 368.605 244.292 370.429 247.648C374.156 254.043 377.38 261.152 378.199 268.631C381.82 311.126 335.728 338.346 301.238 350.978C292.754 354.44 298.119 359.963 302.586 364.192C316.012 377.643 326.663 392.971 336.6 408.801C348.546 425.661 338.582 428.727 338.582 428.727C338.582 428.727 331.129 434.62 336.864 443.024C344.899 454.81 331.764 468.394 324.02 479.52C319.95 486.232 316.937 494.266 311.572 500.952C307.343 507.77 296.93 512.342 298.622 521.486C301.529 530.656 305.837 539.087 305.097 549.42C305.176 556.555 302.375 565.302 295.107 567.179C294.578 567.39 293.97 567.681 293.468 567.892C292.279 568.606 290.27 569.055 291.962 570.482C293.944 571.936 298.199 573.019 301.053 573.31C318.153 575.292 337.129 588.532 335.701 607.295C332.53 625.451 310.25 628.278 295.239 631.555C276.131 635.757 255.146 636.735 235.271 636.946C222.268 635.493 209.477 636.418 197.108 632.507C190.792 630.102 186.246 624.42 181.251 623.336C174.273 621.936 167.455 626.56 160.61 627.776C144.092 631.555 127.415 630.207 110.659 631.899C93.1631 634.462 70.5928 628.965 65.0691 610.334C60.8933 598.231 68.0027 584.383 71.9142 572.121C72.3899 568.553 69.377 566.729 67.5006 564.192C61.6862 556.581 74.5042 542.681 72.9978 533.722C72.5221 524.842 63.6948 519.953 59.4397 512.818C53.0968 503.093 48.4717 492.654 47.2031 480.524C46.6746 475.873 46.9917 470.746 45.6967 466.306C44.4017 461.496 40.9659 457.691 38.0059 453.727C30.8436 444.689 31.3722 430.339 34.5437 418.764C36.2616 412.501 46.0931 404.255 45.9081 397.701C46.0138 393.447 36.843 393.42 40.7016 386.628C49.7403 370.719 64.1177 358.748 78.4421 347.569C80.7943 345.746 83.9922 343.579 85.3665 341.121C87.6394 336.866 82.7501 333.404 81.3493 329.625C78.2836 323.6 85.8951 317.839 79.6843 315.169L79.3672 315.037V315.064ZM324.046 604.811C322.17 589.695 301.714 583.484 288.42 585.783C267.7 590.54 272.642 581.581 277.849 566.729C279.355 560.255 278.853 550.503 287.336 549.42C297.961 548.257 291.962 534.594 287.997 529.256C284.297 524.578 278.007 525.45 272.061 526.56C265.453 527.617 258.714 526.613 252.08 526.375C239.051 526.507 222.982 513.214 229.721 507.585C235.615 502.644 217.326 504.784 217.987 492.839C217.828 482.797 226.365 484.567 227.237 479.176C228.109 473.785 222.427 470.455 224.647 462.739C226.867 455.022 245.05 459.303 244.522 453.938C241.905 427.379 239.844 426.163 231.492 416.517C227.977 412.078 223.511 407.876 220.603 403.119C216.322 396.274 219.731 391.28 226.127 395.217C238.681 405.26 249.913 419.028 252.847 434.99C254.115 442.337 253.455 449.921 254.802 457.242C255.595 462.236 257.023 464.192 255.172 465.566C253.322 466.94 234.716 459.567 232.523 468.5C230.99 474.657 239.394 478.172 241.535 479.863C246.424 482.427 244.337 484.435 238.522 486.259C236.461 486.919 226.127 485.624 227.237 494.002C227.951 499.287 245.605 499.869 245.949 504.097C246.292 508.325 240.637 508.061 242.196 512.474C243.755 516.888 250.891 516.597 255.622 516.412C262.07 516.174 269.471 516.518 274.201 515.196C274.201 515.196 286.464 515.196 291.037 511.364C304.198 500.344 304.383 498.283 311.863 485.889C315.933 479.123 317.413 474.842 321.086 467.68C322.672 464.615 327.059 457.585 328.037 454.176C329.649 448.6 323.095 435.783 321.958 433.087C320.822 430.392 322.408 425.793 326.504 423.679C330.046 421.829 331.949 417.627 330.072 414.113C329.914 413.822 329.729 413.531 329.517 413.24C308.718 384.488 293.521 367.865 269.946 351.982C252.688 340.328 231.043 344.081 211.406 344.424C165.605 345.455 92.3702 301.665 129.82 250.872C133.599 244.239 130.904 237.289 129.556 230.259C125.803 208.509 137.749 185.888 155.615 173.599C162.803 168.129 171.578 165.38 179.401 162.526C183.365 160.544 176.89 160.359 174.934 159.064C163.253 153.779 175.013 147.436 182.519 149.075C193.514 150.158 204.905 153.594 214.683 158.8C216.586 159.381 226.101 165.856 222.876 159.672C209.9 144.609 215.503 135.914 233.104 147.198C245.949 154.994 251.023 169.371 260.247 179.387C265.612 178.99 264.819 162.526 264.687 157.373C264.713 149.656 258.82 141.252 262.625 134.989C265.348 132.611 268.889 135.359 270.792 137.975C276.131 143.842 274.492 155.549 278.641 161.258C281.311 163.557 285.381 161.099 288.737 160.068C296.666 157.056 305.652 156.791 313.845 159.064C322.117 160.359 331.473 169.899 335.966 161.945C339.031 149.815 340.591 121.168 333.851 112.103C328.063 111.442 324.866 128.065 316.118 123.018C306.418 113.715 304.172 98.0704 295.767 87.2616C288.209 75.9508 280.571 64.455 269.867 56.5004C263.048 52.2192 273.673 77.325 264.819 80.0999C256.309 82.1084 250.812 70.7975 244.337 65.1157C232.893 53.6727 218.331 44.159 204.561 35.253C195.284 32.8482 207.257 58.7468 204.27 61.5216C200.068 70.3483 190.58 59.0903 186.51 54.9941C176.071 43.4454 161.112 38.7943 148.955 29.1219C142.982 24.7614 138.119 18.3925 132.172 14.2434C110.923 5.23178 103.1 62.7637 104.607 76.4794C106.88 94.8462 102.519 106.421 84.5737 90.8557C79.5257 88.0809 72.7864 71.6696 68.452 77.5365C61.4748 97.7797 61.9505 122.463 67.5799 142.627C77.94 166.649 70.9099 167.362 49.9253 157.003C41.9173 154.281 45.5645 164.27 46.8067 168.367C49.3967 181.686 61.8448 186.628 73.4735 191.86C87.1108 200.026 111.928 213.346 112.139 231.686C106.563 240.566 97.3388 222.304 92.5816 219.001C75.1121 202.537 51.7225 193.129 28.2007 189.323C24.395 188.689 18.6599 187.658 16.3341 190.803C14.0612 199.313 19.7963 209.963 21.8049 218.657C31.6629 244.08 53.6518 264.72 77.9664 276.665C85.8158 280.365 96.8103 279.968 103.576 285.254C108.439 289.773 101.858 293.261 97.3653 292.971C91.3923 293.076 81.9572 293.711 79.5786 298.864C78.8121 305.735 94.7224 303.806 99.3739 305.523C123.741 312.13 85.9215 324.815 102.783 328.357C110.659 330.259 120.702 326.401 127.679 327.22C129.741 327.537 132.199 328.621 132.066 330.973C128.974 340.434 113.963 339.165 106.404 343.579C89.3837 352.22 73.0506 363.69 60.4705 378.172C45.1681 395.799 60.7876 385.466 61.4483 392.918C60.7612 397.701 56.6118 401.613 53.8897 405.55C48.2867 412.923 45.1152 421.248 44.2167 430.312C43.3181 435.386 44.4281 450.001 52.0396 445.191C59.7569 434.726 65.9413 422.146 75.6671 412.871C85.2344 402.115 97.656 394.002 105.558 381.845C108.994 377.828 114.941 359.514 121.548 365.857C126.728 405.999 32.7729 431.396 65.2805 500.899C72.3899 516.914 89.463 522.94 105.69 524.737C111.055 525.477 116.315 526.957 117.61 529.652C118.984 542.205 95.1981 532.506 88.9344 535.968C84.8115 537.977 82.1951 545.456 84.4151 548.257C109.76 559.039 65.307 585.334 78.0193 610.625C86.688 625.503 106.853 621.434 121.178 620.429C131.908 619.531 142.797 620.324 153.447 618.474C160.266 616.941 167.772 615.672 173.19 611.233C177.63 607.348 179.427 600.715 176.256 596.196C173.718 592.496 168.459 592.126 164.865 589.985C160.821 587.58 161.033 584.013 162.671 579.467C175.568 549.34 156.038 540.197 133.467 526.957C112.72 511.999 100.801 479.439 109.205 459.356C117.61 439.273 125.641 427.333 133.335 429.916C144.046 440.137 104.554 460.651 121.838 494.98C142.4 541.016 201.68 524.816 195.76 537.21C194.069 540.725 186.484 536.602 184.316 540.963C182.414 544.821 188.175 550.318 189.999 553.067C193.884 557.982 197.135 563.637 197.742 569.901C199.592 586.021 182.202 604.547 196.104 618.421C204.376 628.886 282.421 628.331 290.429 619.689C291.433 616.967 287.495 613.188 287.099 609.726C286.623 605.551 291.169 604.784 294.657 606.238C299.97 608.326 303.617 614.325 309.22 615.831C312.576 616.73 313.58 612.898 310.145 609.991C307.105 607.322 302.031 605.604 299.467 602.591C294.842 596.275 305.097 594.187 309.457 596.275C315.351 597.57 321.483 605.234 324.02 605.022L324.099 604.969L324.046 604.811ZM380.313 135.861C372.993 134.672 344.661 171.274 344.185 178.647C343.709 185.676 349.233 191.358 350.872 198.018C353.515 206.29 355.127 215.195 355.285 224.101C355.417 226.031 355.365 229.334 356.924 229.942C361.02 229.228 364.165 221.855 366.438 218.393C373.151 206.237 378.12 193.129 380.472 179.36C381.688 171.3 387.502 140.644 380.578 135.967L380.313 135.888V135.861ZM301.37 168.499C286.887 168.604 275.443 180.074 270.766 193.208C268.519 200.502 261.172 211.654 254.3 201.612C251.393 197.278 250.31 191.543 248.354 186.681C246.715 182.954 245.922 180.312 244.125 179.545C242.117 179.625 241.482 183.906 238.443 186.099C236.751 187.421 234.426 187.764 231.968 187.156C226.92 185.835 222.401 181.844 217.828 179.255C176.467 154.809 121.389 200.978 146.47 245.322C147.818 248.652 149.007 251.559 148.003 254.73C146.602 258.695 139.916 259.461 136.163 263.954C124.693 278.647 133.837 299.022 146.444 309.884C160.874 323.15 179.427 331.079 198.667 333.536C212.49 335.333 225.889 332.373 239.764 333.51C247.772 334.091 255.04 335.095 261.859 337.368C271.003 340.592 278.879 347.648 288.896 344.503C322.804 335.095 379.23 302.881 363.61 260.624C359.408 248.52 344.661 241.94 344.819 228.33C344.819 219.635 344.978 211.046 342.335 202.51C336.071 184.831 321.483 168.789 301.872 168.472H301.397L301.37 168.499ZM179.084 555.656C178.211 555.392 178.978 558.405 179.004 561.418C179.004 564.007 178.819 566.809 178.423 569.399C178.079 571.803 177.234 574.473 176.494 576.428C176.018 577.829 176.071 578.992 177.101 579.811C179.136 581.159 182.334 582.321 184.554 580.894C186.669 578.886 186.563 575.477 187.012 572.755C187.224 570.693 187.435 568.685 187.012 566.782C185.902 563.003 182.599 558.616 179.216 555.709L179.031 555.656H179.084Z" fill="#832F32"></path>
<path d="M200.063 308.894L180.057 298.491L187.259 320.098L200.063 308.894Z" fill="white"></path>
<path d="M293.692 308.899L270.484 313.7L281.688 332.106L293.692 308.899Z" fill="white"></path>
<path d="M36.1296 204.704C57.8806 206.052 84.9439 226.374 96.3876 244.451C99.5591 249.128 109.734 264.192 101.621 267.099C96.6519 267.204 91.8947 259.805 88.4854 254.704C87.0582 252.352 83.3581 247.41 81.7988 248.124C80.7417 248.362 80.5567 250.265 81.1381 253.039C82.0103 258.695 89.6747 271.036 79.9752 269.609C73.7909 267.416 69.8265 260.465 68.4787 254.255C66.3379 244.953 71.1215 235.862 64.4086 229.678C57.5106 223.705 48.8419 220.587 40.279 217.31C36.7639 215.962 33.4603 214.244 31.8746 212.104C29.0467 208.721 31.6896 205.074 35.7332 204.757L36.1561 204.704H36.1296Z" fill="#832F32"></path>
<path d="M172.317 273.177C174.51 274.34 175.673 277.062 175.25 279.414C174.775 282.453 177.655 284.092 179.717 285.757C187.778 292.839 197.398 297.728 207.864 299.684C216.929 302.934 225.968 303.806 235.641 304.837C254.987 308.563 274.623 305.551 293.097 298.415C299.704 296.777 304.25 291.861 309.272 287.554C312.311 285.043 312.866 282.638 315.297 279.943C317.65 277.194 322.116 277.379 323.86 280.603C327.693 289.879 313.051 299.155 306.867 304.52C305.043 305.709 302.876 307.004 302.981 309.303C302.744 317.654 288.842 335.783 280.385 336.391C277.081 336.946 272.456 332.85 271.452 329.335C269.311 321.935 267.963 323.362 265.347 323.362C248.934 323.362 233.288 324.208 217.854 318.473C214.841 317.284 212.357 316.069 208.524 314.007C207.969 313.717 207.652 313.347 207.256 313.347C206.463 313.347 205.697 314.377 205.115 315.064C201.97 319.53 196.156 321.935 191.319 324.287C189.998 324.869 188.544 325.292 187.17 325.292C175.858 324.182 177.946 305.022 174.669 297.067C173.03 294.663 167.85 290.804 165.234 289.483C163.305 288.849 161.56 291.227 159.472 291.253C158.177 291.359 156.459 290.566 155.561 289.404C149.614 281.396 164.785 270.112 172 272.966L172.343 273.124L172.317 273.177ZM198.614 310.175C201.415 308.193 187.276 302.881 182.941 300.979C182.492 300.794 182.069 301.19 182.201 301.666L187.328 318.156C187.381 318.315 187.566 318.368 187.698 318.288L198.614 310.175ZM280.755 327.617C280.755 327.617 280.86 327.723 280.94 327.696C281.812 327.3 285.75 323.627 286.437 322.411C287.018 321.407 288.155 319.61 288.816 318.394C290.269 315.778 290.111 311.259 289.82 311.074C289.529 310.889 288.736 311.391 288.736 311.391C287.494 311.814 287.468 311.84 285.168 312.448C283.239 312.95 280.993 313.479 278.667 313.875L272.165 314.879C272.007 314.879 271.927 315.091 272.033 315.223L280.755 327.591V327.617Z" fill="#832F32"></path>
<path d="M303.295 262.48C295.612 254.158 300.094 238.74 303.295 232.071L323.301 233.671C319.833 246.742 310.977 270.803 303.295 262.48Z" fill="white"></path>
<path d="M226.471 263.283C217.899 270.686 205.021 269.103 198.462 265.684L202.464 240.129C215.413 244.027 235.043 255.88 226.471 263.283Z" fill="white"></path>
<path d="M319.235 221.355C326.265 221.249 330.546 225.134 331.154 232.19C334.881 249.526 319.208 271.249 300.523 271.857C298.594 271.989 296.638 272.016 294.682 272.016C292.568 272.016 290.982 272.016 290.559 273.998C290.057 282.666 283.899 296.434 273.645 295.166C271.187 294.452 269.918 291.307 270.658 288.85C272.297 284.939 276.499 282.111 278.006 277.962C280.781 272.941 278.376 265.541 271.927 265.435C267.804 265.118 263.47 265.488 259.452 266.44C254.299 267.761 251.339 273.258 246.529 275.055C244.018 275.742 242.062 273.654 242.591 271.434C243.78 266.255 247.507 262.29 251.207 260.15C263.628 252.988 271.9 256.001 275.891 256.846C277.821 257.243 278.957 256.027 279.301 254.151C281.23 241.175 286.489 228.411 298.224 223.945C304.778 221.566 311.861 221.408 318.68 221.328H319.155L319.235 221.355ZM319.261 233.141C314.53 232.692 302.452 230.921 302.135 237.872C301.844 241.915 304.329 248.152 303.272 256.107C303.192 256.899 303.007 258.379 303.642 258.802C308.531 262.872 324.785 241.942 319.578 233.326L319.288 233.141H319.261Z" fill="#832F32"></path>
<path d="M197.793 226.902C207.836 229.122 217.06 234.09 224.909 240.354C238.837 250.739 242.22 267.679 223.086 274.207C201.573 282.584 173.769 271.775 165.946 249.63C157.621 229.386 181.724 223.942 197.317 226.796L197.82 226.902H197.793ZM205.669 242.521C203.66 244.318 204.268 252.906 202.313 256.263C201.546 259.011 197.132 263.794 200.33 265.354C206.7 267.6 214.126 265.592 220.892 263.424C222.372 262.843 223.984 261.918 224.804 260.703C228.953 254.809 210.347 241.992 205.88 242.415L205.669 242.521Z" fill="#832F32"></path>
<path d="M196.553 197.067C210.084 199.683 239.235 220.191 238.548 235.122C235.694 242.601 225.968 232.374 222.744 229.335C216.744 223.177 210.163 217.152 202.605 213.531C193.46 208.166 183.391 210.862 173.771 210.122C169.859 209.356 169.41 205.524 173.031 201.692C178.924 195.799 188.227 195.217 196.024 196.961L196.553 197.067Z" fill="#832F32"></path>
<path d="M314.452 197.408C323.808 199.972 327.455 210.49 314.743 210.358C303.035 209.829 292.78 216.832 286.147 226.478C283.557 229.57 281.019 233.085 277.266 234.301C273.381 235.464 270.897 230.363 272.853 224.126C278.72 209.221 297.59 194.211 313.976 197.276L314.452 197.408Z" fill="#832F32"></path>
<path d="M239.048 274.686C240.37 275.03 240 279.205 240.053 280.579C240.211 284.913 244.757 283.46 247.162 280.738C249.091 278.571 251.946 278.121 255.117 278.597C258.87 278.861 260.984 281.478 262.438 284.57C263.654 286.79 264.473 289.617 262.385 291.15C259.795 293.132 256.782 289.406 253.901 287.926C247.955 286.235 241.612 295.854 235.771 292.656C229.005 289.538 230.01 273.497 238.652 274.607L239.048 274.712V274.686Z" fill="#832F32"></path>
<path d="M140.575 420.009C137.615 409.729 125.774 404.444 115.996 402.937C105.345 401.272 94.3768 403.281 85.2324 409.042C80.9245 411.764 84.8888 418.609 89.2231 415.887C96.4118 411.368 104.948 409.465 113.379 410.522C120.224 411.368 130.743 414.671 132.91 422.123C134.311 427.012 141.975 424.925 140.548 420.009H140.575Z" fill="#832F32"></path>
<path d="M136.843 436.139C151.085 420.357 176.109 423.592 190.46 426.736C202.67 429.432 216.413 433.581 225.716 442.408C229.416 445.923 235.045 440.32 231.319 436.805C220.8 426.842 205.577 421.874 191.675 418.914C175.448 415.452 155.247 407.116 132.841 424.936C120.659 434.624 108.833 449.744 128.839 447.343C128.839 447.343 134.75 438.46 136.843 436.139Z" fill="#832F32"></path>
<path d="M158.971 535.522C168.776 536.42 178.475 538.27 188.333 538.614C198.191 538.957 208.869 537.9 218.832 535.363C223.774 534.095 221.687 526.457 216.718 527.726C207.098 530.184 197.372 531.056 187.461 530.659C177.55 530.263 168.485 528.492 158.944 527.62C153.87 527.144 153.896 535.073 158.944 535.548L158.971 535.522Z" fill="#832F32"></path>
<path d="M380.576 135.968L380.312 135.888C372.991 134.699 344.659 171.301 344.183 178.674C343.708 185.704 349.231 191.385 350.87 198.045C353.513 206.317 355.125 215.223 355.283 224.129C355.416 226.058 355.363 229.361 356.922 229.969C361.018 229.256 364.164 221.882 366.436 218.42C373.149 206.264 378.118 193.156 380.47 179.388C381.686 171.327 387.5 140.672 380.576 135.994V135.968Z" fill="white"></path>
<mask id="path-20-inside-1_2217_1784" fill="white">
<path d="M211.379 344.61C165.578 345.64 92.3433 301.851 129.793 251.058C133.572 244.424 130.877 237.474 129.529 230.444C125.776 208.695 137.722 186.073 155.588 173.758C162.803 168.288 171.551 165.539 179.374 162.685C183.338 160.703 176.863 160.518 174.907 159.223C163.226 153.911 174.987 147.595 182.492 149.234C193.487 150.317 204.878 153.753 214.656 158.959C216.559 159.54 226.074 166.015 222.849 159.831C209.873 144.768 215.476 136.073 233.077 147.358C245.922 155.154 250.996 169.53 260.22 179.546C265.585 179.149 264.792 162.685 264.66 157.532C264.686 149.815 258.793 141.411 262.599 135.148C265.321 132.77 268.862 135.518 270.765 138.134C276.104 144.001 274.465 155.708 278.615 161.417C281.284 163.716 285.354 161.258 288.71 160.228C296.639 157.215 305.625 156.951 313.818 159.223C322.09 160.518 331.446 170.058 335.939 162.104C339.005 149.974 340.59 121.327 333.825 112.262C328.037 111.602 324.839 128.224 316.091 123.177C306.391 113.874 304.145 98.2295 295.74 87.4207C288.182 76.1099 280.544 64.6141 269.84 56.6595C263.021 52.3783 273.646 77.4841 264.792 80.259C256.282 82.2675 250.785 70.9566 244.31 65.2748C232.866 53.8318 218.304 44.3181 204.534 35.4121C195.258 33.0072 207.23 58.9058 204.243 61.6807C200.041 70.5074 190.553 59.2494 186.483 55.1532C176.044 43.6045 161.085 38.9534 148.928 29.281C142.955 24.9205 138.092 18.5516 132.145 14.4025C110.896 5.39087 103.073 62.9228 104.58 76.6385C106.853 95.0053 102.492 106.58 84.5468 91.0148C79.4989 88.24 72.7595 71.8287 68.4251 77.6955C61.4479 97.9387 61.9236 122.622 67.553 142.786C77.9131 166.808 70.883 167.521 49.8984 157.162C41.8905 154.44 45.5377 164.429 46.7798 168.526C49.3699 181.845 61.8179 186.787 73.4466 192.019C87.084 200.185 111.901 213.505 112.112 231.845C106.536 240.725 97.312 222.463 92.5548 219.16C75.0852 202.696 51.6956 193.288 28.1738 189.482C24.3681 188.848 18.633 187.817 16.3073 190.962C14.0344 199.472 19.7694 210.122 21.778 218.817C31.636 244.239 53.6249 264.879 77.9396 276.824C85.7889 280.524 96.7834 280.128 103.549 285.413C108.412 289.932 101.831 293.42 97.3384 293.13C91.3655 293.235 81.9303 293.87 79.5517 299.023C78.7853 305.894 94.6955 303.965 99.347 305.683C123.714 312.289 85.8947 324.974 102.756 328.516C110.632 330.418 120.675 326.56 127.652 327.379C129.714 327.696 132.172 328.78 132.04 331.132C128.947 340.593 113.936 339.324 106.377 343.738C89.3568 352.379 73.0238 363.849 60.4436 378.331C45.1412 395.958 60.7607 385.625 61.4215 393.077C60.7343 397.86 56.585 401.772 53.8628 405.709C48.2598 413.083 45.0884 421.407 44.1898 430.472C43.2912 435.546 44.4012 450.16 52.0128 445.35C59.73 434.885 65.9144 422.306 75.6402 413.03C85.2075 402.274 97.6291 394.161 105.531 382.004C108.967 377.987 114.914 359.673 121.521 366.016C123.239 379.309 114.094 390.963 102.281 403.146C106.826 402.485 111.478 402.485 116.05 403.199C125.802 404.705 137.643 409.991 140.629 420.271C142.056 425.186 134.392 427.274 132.991 422.385C130.85 414.906 120.305 411.629 113.46 410.783C105.029 409.753 96.5191 411.629 89.3569 416.122C68.0816 437.554 47.2556 462.528 65.2801 501.058C72.3895 517.073 89.4626 523.099 105.69 524.896C111.055 525.636 116.314 527.116 117.609 529.811C118.984 542.364 95.1977 532.665 88.934 536.127C84.8111 538.136 82.1946 545.615 84.4146 548.416C109.76 559.198 65.3065 585.493 78.0188 610.784C86.6875 625.663 106.853 621.593 121.177 620.588C131.907 619.69 142.796 620.483 153.447 618.633C160.266 617.1 167.772 615.832 173.189 611.392C177.629 607.507 179.427 600.874 176.255 596.355C173.718 592.655 168.459 592.285 164.864 590.144C160.821 587.739 161.032 584.172 162.671 579.626C175.568 549.499 156.037 540.356 133.467 527.116C112.72 512.158 99.9549 484.409 109.205 459.515C113.46 448.891 121.336 431.264 133.335 430.075C146.1 435.836 104.553 460.81 121.838 495.139C132.568 519.161 153.843 526.244 170.89 529.283C176.414 529.996 181.937 530.71 187.514 530.921C197.425 531.318 207.151 530.445 216.771 527.988C221.713 526.719 223.827 534.383 218.885 535.625C210.454 537.766 201.838 538.796 193.17 538.876C190.21 539.219 185.875 538.004 184.316 541.122C182.413 544.98 188.175 550.477 189.998 553.226C193.883 558.141 197.134 563.797 197.742 570.06C199.592 586.18 182.202 604.706 196.103 618.58C204.376 629.045 282.42 628.49 290.428 619.849C291.433 617.127 287.495 613.347 287.098 609.886C286.622 605.71 291.168 604.944 294.657 606.397C299.969 608.485 303.616 614.484 309.219 615.99C312.576 616.889 313.58 613.057 310.144 610.15C307.105 607.481 302.031 605.763 299.467 602.75C294.842 596.434 305.096 594.346 309.457 596.434C315.351 597.729 321.482 605.393 324.019 605.182L324.099 605.129C322.222 590.012 301.766 583.802 288.473 586.101C267.752 590.858 272.694 581.899 277.901 567.047C279.407 560.572 278.905 550.821 287.389 549.737C298.013 548.575 292.014 534.912 288.05 529.573C284.35 524.896 278.06 525.768 272.113 526.878C265.506 527.935 258.766 526.931 252.133 526.693C239.103 526.825 223.034 513.532 229.774 507.903C235.667 502.961 217.379 505.102 218.039 493.157C217.881 483.114 226.417 484.885 227.289 479.494C228.162 474.076 222.479 470.773 224.699 463.056C226.919 455.313 245.103 459.621 244.574 454.256C241.958 427.697 239.896 426.481 231.545 416.835C228.03 412.395 223.563 408.194 220.656 403.437C216.374 396.592 219.784 391.597 226.18 395.535C238.733 405.577 249.966 419.346 252.899 435.308C254.168 442.654 253.507 450.239 254.855 457.559C255.648 462.554 257.075 464.51 255.225 465.884C253.375 467.258 234.769 459.885 232.575 468.817C231.042 474.975 239.447 478.49 241.588 480.181C246.477 482.745 244.389 484.753 238.575 486.576C236.513 487.237 226.179 485.942 227.289 494.32C228.003 499.605 245.658 500.186 246.001 504.415C246.345 508.643 240.689 508.379 242.248 512.792C243.834 517.205 250.943 516.915 255.674 516.73C262.123 516.492 269.523 516.836 274.254 515.514C274.254 515.514 286.517 515.514 291.089 511.682C304.251 500.662 304.436 498.601 311.915 486.206C315.985 479.441 317.465 475.16 321.139 467.998C322.724 464.933 327.112 457.903 328.089 454.494C329.702 448.918 323.147 436.101 322.011 433.405C320.874 430.683 322.46 426.111 326.557 423.997C330.098 422.147 332.001 417.945 330.125 414.43C329.966 414.14 329.781 413.849 329.57 413.558C308.77 384.805 293.573 368.183 269.999 352.3C252.741 340.646 231.095 344.398 211.459 344.742L211.379 344.61Z"></path>
</mask>
<path d="M211.379 344.61C165.578 345.64 92.3433 301.851 129.793 251.058C133.572 244.424 130.877 237.474 129.529 230.444C125.776 208.695 137.722 186.073 155.588 173.758C162.803 168.288 171.551 165.539 179.374 162.685C183.338 160.703 176.863 160.518 174.907 159.223C163.226 153.911 174.987 147.595 182.492 149.234C193.487 150.317 204.878 153.753 214.656 158.959C216.559 159.54 226.074 166.015 222.849 159.831C209.873 144.768 215.476 136.073 233.077 147.358C245.922 155.154 250.996 169.53 260.22 179.546C265.585 179.149 264.792 162.685 264.66 157.532C264.686 149.815 258.793 141.411 262.599 135.148C265.321 132.77 268.862 135.518 270.765 138.134C276.104 144.001 274.465 155.708 278.615 161.417C281.284 163.716 285.354 161.258 288.71 160.228C296.639 157.215 305.625 156.951 313.818 159.223C322.09 160.518 331.446 170.058 335.939 162.104C339.005 149.974 340.59 121.327 333.825 112.262C328.037 111.602 324.839 128.224 316.091 123.177C306.391 113.874 304.145 98.2295 295.74 87.4207C288.182 76.1099 280.544 64.6141 269.84 56.6595C263.021 52.3783 273.646 77.4841 264.792 80.259C256.282 82.2675 250.785 70.9566 244.31 65.2748C232.866 53.8318 218.304 44.3181 204.534 35.4121C195.258 33.0072 207.23 58.9058 204.243 61.6807C200.041 70.5074 190.553 59.2494 186.483 55.1532C176.044 43.6045 161.085 38.9534 148.928 29.281C142.955 24.9205 138.092 18.5516 132.145 14.4025C110.896 5.39087 103.073 62.9228 104.58 76.6385C106.853 95.0053 102.492 106.58 84.5468 91.0148C79.4989 88.24 72.7595 71.8287 68.4251 77.6955C61.4479 97.9387 61.9236 122.622 67.553 142.786C77.9131 166.808 70.883 167.521 49.8984 157.162C41.8905 154.44 45.5377 164.429 46.7798 168.526C49.3699 181.845 61.8179 186.787 73.4466 192.019C87.084 200.185 111.901 213.505 112.112 231.845C106.536 240.725 97.312 222.463 92.5548 219.16C75.0852 202.696 51.6956 193.288 28.1738 189.482C24.3681 188.848 18.633 187.817 16.3073 190.962C14.0344 199.472 19.7694 210.122 21.778 218.817C31.636 244.239 53.6249 264.879 77.9396 276.824C85.7889 280.524 96.7834 280.128 103.549 285.413C108.412 289.932 101.831 293.42 97.3384 293.13C91.3655 293.235 81.9303 293.87 79.5517 299.023C78.7853 305.894 94.6955 303.965 99.347 305.683C123.714 312.289 85.8947 324.974 102.756 328.516C110.632 330.418 120.675 326.56 127.652 327.379C129.714 327.696 132.172 328.78 132.04 331.132C128.947 340.593 113.936 339.324 106.377 343.738C89.3568 352.379 73.0238 363.849 60.4436 378.331C45.1412 395.958 60.7607 385.625 61.4215 393.077C60.7343 397.86 56.585 401.772 53.8628 405.709C48.2598 413.083 45.0884 421.407 44.1898 430.472C43.2912 435.546 44.4012 450.16 52.0128 445.35C59.73 434.885 65.9144 422.306 75.6402 413.03C85.2075 402.274 97.6291 394.161 105.531 382.004C108.967 377.987 114.914 359.673 121.521 366.016C123.239 379.309 114.094 390.963 102.281 403.146C106.826 402.485 111.478 402.485 116.05 403.199C125.802 404.705 137.643 409.991 140.629 420.271C142.056 425.186 134.392 427.274 132.991 422.385C130.85 414.906 120.305 411.629 113.46 410.783C105.029 409.753 96.5191 411.629 89.3569 416.122C68.0816 437.554 47.2556 462.528 65.2801 501.058C72.3895 517.073 89.4626 523.099 105.69 524.896C111.055 525.636 116.314 527.116 117.609 529.811C118.984 542.364 95.1977 532.665 88.934 536.127C84.8111 538.136 82.1946 545.615 84.4146 548.416C109.76 559.198 65.3065 585.493 78.0188 610.784C86.6875 625.663 106.853 621.593 121.177 620.588C131.907 619.69 142.796 620.483 153.447 618.633C160.266 617.1 167.772 615.832 173.189 611.392C177.629 607.507 179.427 600.874 176.255 596.355C173.718 592.655 168.459 592.285 164.864 590.144C160.821 587.739 161.032 584.172 162.671 579.626C175.568 549.499 156.037 540.356 133.467 527.116C112.72 512.158 99.9549 484.409 109.205 459.515C113.46 448.891 121.336 431.264 133.335 430.075C146.1 435.836 104.553 460.81 121.838 495.139C132.568 519.161 153.843 526.244 170.89 529.283C176.414 529.996 181.937 530.71 187.514 530.921C197.425 531.318 207.151 530.445 216.771 527.988C221.713 526.719 223.827 534.383 218.885 535.625C210.454 537.766 201.838 538.796 193.17 538.876C190.21 539.219 185.875 538.004 184.316 541.122C182.413 544.98 188.175 550.477 189.998 553.226C193.883 558.141 197.134 563.797 197.742 570.06C199.592 586.18 182.202 604.706 196.103 618.58C204.376 629.045 282.42 628.49 290.428 619.849C291.433 617.127 287.495 613.347 287.098 609.886C286.622 605.71 291.168 604.944 294.657 606.397C299.969 608.485 303.616 614.484 309.219 615.99C312.576 616.889 313.58 613.057 310.144 610.15C307.105 607.481 302.031 605.763 299.467 602.75C294.842 596.434 305.096 594.346 309.457 596.434C315.351 597.729 321.482 605.393 324.019 605.182L324.099 605.129C322.222 590.012 301.766 583.802 288.473 586.101C267.752 590.858 272.694 581.899 277.901 567.047C279.407 560.572 278.905 550.821 287.389 549.737C298.013 548.575 292.014 534.912 288.05 529.573C284.35 524.896 278.06 525.768 272.113 526.878C265.506 527.935 258.766 526.931 252.133 526.693C239.103 526.825 223.034 513.532 229.774 507.903C235.667 502.961 217.379 505.102 218.039 493.157C217.881 483.114 226.417 484.885 227.289 479.494C228.162 474.076 222.479 470.773 224.699 463.056C226.919 455.313 245.103 459.621 244.574 454.256C241.958 427.697 239.896 426.481 231.545 416.835C228.03 412.395 223.563 408.194 220.656 403.437C216.374 396.592 219.784 391.597 226.18 395.535C238.733 405.577 249.966 419.346 252.899 435.308C254.168 442.654 253.507 450.239 254.855 457.559C255.648 462.554 257.075 464.51 255.225 465.884C253.375 467.258 234.769 459.885 232.575 468.817C231.042 474.975 239.447 478.49 241.588 480.181C246.477 482.745 244.389 484.753 238.575 486.576C236.513 487.237 226.179 485.942 227.289 494.32C228.003 499.605 245.658 500.186 246.001 504.415C246.345 508.643 240.689 508.379 242.248 512.792C243.834 517.205 250.943 516.915 255.674 516.73C262.123 516.492 269.523 516.836 274.254 515.514C274.254 515.514 286.517 515.514 291.089 511.682C304.251 500.662 304.436 498.601 311.915 486.206C315.985 479.441 317.465 475.16 321.139 467.998C322.724 464.933 327.112 457.903 328.089 454.494C329.702 448.918 323.147 436.101 322.011 433.405C320.874 430.683 322.46 426.111 326.557 423.997C330.098 422.147 332.001 417.945 330.125 414.43C329.966 414.14 329.781 413.849 329.57 413.558C308.77 384.805 293.573 368.183 269.999 352.3C252.741 340.646 231.095 344.398 211.459 344.742L211.379 344.61Z" fill="#FF565D" stroke="#FF8589" stroke-width="8.78621" mask="url(#path-20-inside-1_2217_1784)"></path>
<path d="M140.25 524.712C137.68 512.827 150.654 540.717 95.4362 524.712C40.2187 508.707 52.8806 448.817 86.3086 419.246C113.051 395.589 133.679 423.199 146.483 426.4C159.287 429.601 197.699 396.79 245.883 456.531L228.278 463.092C230.471 493.753 214.674 488.7 228.278 498.303C241.882 507.906 229.34 517.881 243.483 518.31C219.054 535.024 211.893 537.686 187.465 535.115C178.037 539.401 142.82 536.597 140.25 524.712Z" fill="#FFDFE0"></path>
<path d="M344.818 228.331C344.818 219.637 344.977 211.048 342.334 202.512C336.07 184.832 321.481 168.791 301.871 168.474H301.395C286.912 168.58 275.468 180.049 270.791 193.183C268.544 200.477 261.197 211.629 254.325 201.587C251.418 197.253 250.335 191.518 248.379 186.656C246.74 182.93 245.947 180.287 244.15 179.52C242.142 179.6 241.507 183.881 238.468 186.074C236.776 187.396 234.451 187.739 231.993 187.131C226.945 185.81 222.426 181.82 217.853 179.23C176.492 154.785 121.414 200.953 146.495 245.298C147.843 248.627 149.032 251.534 148.028 254.706C146.627 258.67 139.941 259.436 136.188 263.929C124.718 278.622 133.862 298.998 146.469 309.859C160.899 323.126 179.452 331.054 198.692 333.511C212.515 335.308 225.914 332.349 239.789 333.485C247.797 334.066 255.065 335.071 261.884 337.343C271.028 340.567 278.904 347.624 288.921 344.479C322.829 335.071 379.255 302.856 363.635 260.599C359.433 248.495 344.686 241.915 344.844 228.305L344.818 228.331Z" fill="#FFDFE0"></path>
<path d="M79.3672 315.064C72.7864 312.738 63.9062 309.62 63.6155 301.639C64.3555 291.623 73.6585 289.376 62.1355 281.818C43.8202 268.684 25.7164 253.224 15.3298 232.928C8.48474 219.371 6.0797 202.854 0.608913 188.768C-3.64615 174.392 14.4312 176.427 23.5757 177.51C37.1337 179.413 36.4201 175.608 33.1958 162.79C31.9272 154.836 29.2579 134.064 41.2566 135.703C45.406 136.707 50.401 143.34 52.7796 143.974C54.7882 144.371 54.6032 142.389 54.4711 140.169C52.7796 129.889 51.6432 119.397 51.7489 108.747C51.9868 95.4012 55.449 56.3155 73.1035 57.6632C80.715 60.6495 82.7236 74.1802 88.2737 78.6993C93.0045 82.9276 92.8723 73.8367 93.0045 70.639C93.2423 61.6537 93.9559 52.6685 95.8852 43.9476C99.6646 27.9327 106.298 13.3185 119.063 3.24974C129.476 -5.15409 138.779 4.54467 145.704 12.3935C150.54 17.4147 155.826 21.8545 161.508 25.5543C167.798 29.5448 173.771 32.3989 179.665 35.8344C182.969 37.6843 187.171 39.6399 187.488 33.7731C187.911 27.1927 186.457 12.3407 196.976 15.2477C202.42 17.0447 208.261 24.1008 213.52 28.1705C223.59 36.4158 234.373 42.3091 244.257 50.9772C246.266 52.3778 252.979 58.9582 252.397 52.8006C252.027 49.7087 250.098 43.8418 251.367 40.5385C260.723 24.4443 291.856 63.2129 297.327 71.0882C303.141 79.1749 308.453 87.658 313.131 96.4054C318.338 107.188 322.011 104.756 324.839 94.3705C328.698 77.4043 337.551 78.3557 341.357 94.1063C344.872 106.738 349.418 119.397 349.365 132.822C349.603 142.521 347.964 153.594 358.774 141.332C368.579 130.629 388.163 112.288 393.872 136.469C397.545 158.721 393.872 181.395 386.181 202.828C383.591 209.223 380.472 215.618 377.116 221.591C374.235 227.378 369.028 231.95 368.024 238.134C367.601 241.147 368.605 244.292 370.429 247.648C374.156 254.043 377.38 261.152 378.199 268.631C381.82 311.126 335.728 338.346 301.238 350.978C292.754 354.44 298.119 359.963 302.586 364.192C316.012 377.643 326.663 392.971 336.6 408.801C348.546 425.661 338.582 428.727 338.582 428.727C338.582 428.727 331.129 434.62 336.864 443.024C344.899 454.81 331.764 468.394 324.02 479.52C319.95 486.232 316.937 494.266 311.572 500.952C307.343 507.77 296.93 512.342 298.622 521.486C301.529 530.656 305.837 539.087 305.097 549.42C305.176 556.555 302.375 565.302 295.107 567.179C294.578 567.39 293.97 567.681 293.468 567.892C292.279 568.606 290.27 569.055 291.962 570.482C293.944 571.936 298.199 573.019 301.053 573.31C318.153 575.292 337.129 588.532 335.701 607.295C332.53 625.451 310.25 628.278 295.239 631.555C276.131 635.757 255.146 636.735 235.271 636.946C222.268 635.493 209.477 636.418 197.108 632.507C190.792 630.102 186.246 624.42 181.251 623.336C174.273 621.936 167.455 626.56 160.61 627.776C144.092 631.555 127.415 630.207 110.659 631.899C93.1631 634.462 70.5928 628.965 65.0691 610.334C60.8933 598.231 68.0027 584.383 71.9142 572.121C72.3899 568.553 69.377 566.729 67.5006 564.192C61.6862 556.581 74.5042 542.681 72.9978 533.722C72.5221 524.842 63.6948 519.953 59.4397 512.818C53.0968 503.093 48.4717 492.654 47.2031 480.524C46.6746 475.873 46.9917 470.746 45.6967 466.306C44.4017 461.496 40.9659 457.691 38.0059 453.727C30.8436 444.689 31.3722 430.339 34.5437 418.764C36.2616 412.501 46.0931 404.255 45.9081 397.701C46.0138 393.447 36.843 393.42 40.7016 386.628C49.7403 370.719 64.1177 358.748 78.4421 347.569C80.7943 345.746 83.9922 343.579 85.3665 341.121C87.6394 336.866 82.7501 333.404 81.3493 329.625C78.2836 323.6 85.8951 317.839 79.6843 315.169L79.3672 315.037V315.064ZM324.046 604.811C322.17 589.695 301.714 583.484 288.42 585.783C267.7 590.54 272.642 581.581 277.849 566.729C279.355 560.255 278.853 550.503 287.336 549.42C297.961 548.257 291.962 534.594 287.997 529.256C284.297 524.578 278.007 525.45 272.061 526.56C265.453 527.617 258.714 526.613 252.08 526.375C239.051 526.507 222.982 513.214 229.721 507.585C235.615 502.644 217.326 504.784 217.987 492.839C217.828 482.797 226.365 484.567 227.237 479.176C228.109 473.785 222.427 470.455 224.647 462.739C226.867 455.022 245.05 459.303 244.522 453.938C241.905 427.379 239.844 426.163 231.492 416.517C227.977 412.078 223.511 407.876 220.603 403.119C216.322 396.274 219.731 391.28 226.127 395.217C238.681 405.26 249.913 419.028 252.847 434.99C254.115 442.337 253.455 449.921 254.802 457.242C255.595 462.236 257.023 464.192 255.172 465.566C253.322 466.94 234.716 459.567 232.523 468.5C230.99 474.657 239.394 478.172 241.535 479.863C246.424 482.427 244.337 484.435 238.522 486.259C236.461 486.919 226.127 485.624 227.237 494.002C227.951 499.287 245.605 499.869 245.949 504.097C246.292 508.325 240.637 508.061 242.196 512.474C243.755 516.888 250.891 516.597 255.622 516.412C262.07 516.174 269.471 516.518 274.201 515.196C274.201 515.196 286.464 515.196 291.037 511.364C304.198 500.344 304.383 498.283 311.863 485.889C315.933 479.123 317.413 474.842 321.086 467.68C322.672 464.615 327.059 457.585 328.037 454.176C329.649 448.6 323.095 435.783 321.958 433.087C320.822 430.392 322.408 425.793 326.504 423.679C330.046 421.829 331.949 417.627 330.072 414.113C329.914 413.822 329.729 413.531 329.517 413.24C308.718 384.488 293.521 367.865 269.946 351.982C252.688 340.328 231.043 344.081 211.406 344.424C165.605 345.455 92.3702 301.665 129.82 250.872C133.599 244.239 130.904 237.289 129.556 230.259C125.803 208.509 137.749 185.888 155.615 173.599C162.803 168.129 171.578 165.38 179.401 162.526C183.365 160.544 176.89 160.359 174.934 159.064C163.253 153.779 175.013 147.436 182.519 149.075C193.514 150.158 204.905 153.594 214.683 158.8C216.586 159.381 226.101 165.856 222.876 159.672C209.9 144.609 215.503 135.914 233.104 147.198C245.949 154.994 251.023 169.371 260.247 179.387C265.612 178.99 264.819 162.526 264.687 157.373C264.713 149.656 258.82 141.252 262.625 134.989C265.348 132.611 268.889 135.359 270.792 137.975C276.131 143.842 274.492 155.549 278.641 161.258C281.311 163.557 285.381 161.099 288.737 160.068C296.666 157.056 305.652 156.791 313.845 159.064C322.117 160.359 331.473 169.899 335.966 161.945C339.031 149.815 340.591 121.168 333.851 112.103C328.063 111.442 324.866 128.065 316.118 123.018C306.418 113.715 304.172 98.0704 295.767 87.2616C288.209 75.9508 280.571 64.455 269.867 56.5004C263.048 52.2192 273.673 77.325 264.819 80.0999C256.309 82.1084 250.812 70.7975 244.337 65.1157C232.893 53.6727 218.331 44.159 204.561 35.253C195.284 32.8482 207.257 58.7468 204.27 61.5216C200.068 70.3483 190.58 59.0903 186.51 54.9941C176.071 43.4454 161.112 38.7943 148.955 29.1219C142.982 24.7614 138.119 18.3925 132.172 14.2434C110.923 5.23178 103.1 62.7637 104.607 76.4794C106.88 94.8462 102.519 106.421 84.5737 90.8557C79.5257 88.0809 72.7864 71.6696 68.452 77.5365C61.4748 97.7797 61.9505 122.463 67.5799 142.627C77.94 166.649 70.9099 167.362 49.9253 157.003C41.9173 154.281 45.5645 164.27 46.8067 168.367C49.3967 181.686 61.8448 186.628 73.4735 191.86C87.1108 200.026 111.928 213.346 112.139 231.686C106.563 240.566 97.3388 222.304 92.5816 219.001C75.1121 202.537 51.7225 193.129 28.2007 189.323C24.395 188.689 18.6599 187.658 16.3341 190.803C14.0612 199.313 19.7963 209.963 21.8049 218.657C31.6629 244.08 53.6518 264.72 77.9664 276.665C85.8158 280.365 96.8103 279.968 103.576 285.254C108.439 289.773 101.858 293.261 97.3653 292.971C91.3923 293.076 81.9572 293.711 79.5786 298.864C78.8121 305.735 94.7224 303.806 99.3739 305.523C123.741 312.13 85.9215 324.815 102.783 328.357C110.659 330.259 120.702 326.401 127.679 327.22C129.741 327.537 132.199 328.621 132.066 330.973C128.974 340.434 113.963 339.165 106.404 343.579C89.3837 352.22 73.0506 363.69 60.4705 378.172C45.1681 395.799 60.7876 385.466 61.4483 392.918C60.7612 397.701 56.6118 401.613 53.8897 405.55C48.2867 412.923 45.1152 421.248 44.2167 430.312C43.3181 435.386 44.4281 450.001 52.0396 445.191C59.7569 434.726 65.9413 422.146 75.6671 412.871C85.2344 402.115 97.656 394.002 105.558 381.845C108.994 377.828 114.941 359.514 121.548 365.857C126.728 405.999 32.7729 431.396 65.2805 500.899C72.3899 516.914 89.463 522.94 105.69 524.737C111.055 525.477 116.315 526.957 117.61 529.652C118.984 542.205 95.1981 532.506 88.9344 535.968C84.8115 537.977 82.1951 545.456 84.4151 548.257C109.76 559.039 65.307 585.334 78.0193 610.625C86.688 625.503 106.853 621.434 121.178 620.429C131.908 619.531 142.797 620.324 153.447 618.474C160.266 616.941 167.772 615.672 173.19 611.233C177.63 607.348 179.427 600.715 176.256 596.196C173.718 592.496 168.459 592.126 164.865 589.985C160.821 587.58 161.033 584.013 162.671 579.467C175.568 549.34 156.038 540.197 133.467 526.957C112.72 511.999 100.801 479.439 109.205 459.356C117.61 439.273 125.641 427.333 133.335 429.916C144.046 440.137 104.554 460.651 121.838 494.98C142.4 541.016 201.68 524.816 195.76 537.21C194.069 540.725 186.484 536.602 184.316 540.963C182.414 544.821 188.175 550.318 189.999 553.067C193.884 557.982 197.135 563.637 197.742 569.901C199.592 586.021 182.202 604.547 196.104 618.421C204.376 628.886 282.421 628.331 290.429 619.689C291.433 616.967 287.495 613.188 287.099 609.726C286.623 605.551 291.169 604.784 294.657 606.238C299.97 608.326 303.617 614.325 309.22 615.831C312.576 616.73 313.58 612.898 310.145 609.991C307.105 607.322 302.031 605.604 299.467 602.591C294.842 596.275 305.097 594.187 309.457 596.275C315.351 597.57 321.483 605.234 324.02 605.022L324.099 604.969L324.046 604.811ZM380.313 135.861C372.993 134.672 344.661 171.274 344.185 178.647C343.709 185.676 349.233 191.358 350.872 198.018C353.515 206.29 355.127 215.195 355.285 224.101C355.417 226.031 355.365 229.334 356.924 229.942C361.02 229.228 364.165 221.855 366.438 218.393C373.151 206.237 378.12 193.129 380.472 179.36C381.688 171.3 387.502 140.644 380.578 135.967L380.313 135.888V135.861ZM301.37 168.499C286.887 168.604 275.443 180.074 270.766 193.208C268.519 200.502 261.172 211.654 254.3 201.612C251.393 197.278 250.31 191.543 248.354 186.681C246.715 182.954 245.922 180.312 244.125 179.545C242.117 179.625 241.482 183.906 238.443 186.099C236.751 187.421 234.426 187.764 231.968 187.156C226.92 185.835 222.401 181.844 217.828 179.255C176.467 154.809 121.389 200.978 146.47 245.322C147.818 248.652 149.007 251.559 148.003 254.73C146.602 258.695 139.916 259.461 136.163 263.954C124.693 278.647 133.837 299.022 146.444 309.884C160.874 323.15 179.427 331.079 198.667 333.536C212.49 335.333 225.889 332.373 239.764 333.51C247.772 334.091 255.04 335.095 261.859 337.368C271.003 340.592 278.879 347.648 288.896 344.503C322.804 335.095 379.23 302.881 363.61 260.624C359.408 248.52 344.661 241.94 344.819 228.33C344.819 219.635 344.978 211.046 342.335 202.51C336.071 184.831 321.483 168.789 301.872 168.472H301.397L301.37 168.499ZM179.084 555.656C178.211 555.392 178.978 558.405 179.004 561.418C179.004 564.007 178.819 566.809 178.423 569.399C178.079 571.803 177.234 574.473 176.494 576.428C176.018 577.829 176.071 578.992 177.101 579.811C179.136 581.159 182.334 582.321 184.554 580.894C186.669 578.886 186.563 575.477 187.012 572.755C187.224 570.693 187.435 568.685 187.012 566.782C185.902 563.003 182.599 558.616 179.216 555.709L179.031 555.656H179.084Z" fill="#832F32"></path>
<path d="M104.07 266.351C96.0679 250.612 65.0181 213.854 30.4473 208.732C30.4473 210.333 53.6545 289.558 104.07 266.351Z" fill="#FFDFE0"></path>
<path d="M200.063 308.894L180.057 298.491L187.259 320.098L200.063 308.894Z" fill="white"></path>
<path d="M293.692 308.899L270.484 313.7L281.688 332.106L293.692 308.899Z" fill="white"></path>
<path d="M36.1296 204.704C57.8806 206.052 84.9439 226.374 96.3876 244.451C99.5591 249.128 109.734 264.192 101.621 267.099C96.6519 267.204 91.8947 259.805 88.4854 254.704C87.0582 252.352 83.3581 247.41 81.7988 248.124C80.7417 248.362 80.5567 250.265 81.1381 253.039C82.0103 258.695 89.6747 271.036 79.9752 269.609C73.7909 267.416 69.8265 260.465 68.4787 254.255C66.3379 244.953 71.1215 235.862 64.4086 229.678C57.5106 223.705 48.8419 220.587 40.279 217.31C36.7639 215.962 33.4603 214.244 31.8746 212.104C29.0467 208.721 31.6896 205.074 35.7332 204.757L36.1561 204.704H36.1296Z" fill="#832F32"></path>
<path d="M172.317 273.177C174.51 274.34 175.673 277.062 175.25 279.414C174.775 282.453 177.655 284.092 179.717 285.757C187.778 292.839 197.398 297.728 207.864 299.684C216.929 302.934 225.968 303.806 235.641 304.837C254.987 308.563 274.623 305.551 293.097 298.415C299.704 296.777 304.25 291.861 309.272 287.554C312.311 285.043 312.866 282.638 315.297 279.943C317.65 277.194 322.116 277.379 323.86 280.603C327.693 289.879 313.051 299.155 306.867 304.52C305.043 305.709 302.876 307.004 302.981 309.303C302.744 317.654 288.842 335.783 280.385 336.391C277.081 336.946 272.456 332.85 271.452 329.335C269.311 321.935 267.963 323.362 265.347 323.362C248.934 323.362 233.288 324.208 217.854 318.473C214.841 317.284 212.357 316.069 208.524 314.007C207.969 313.717 207.652 313.347 207.256 313.347C206.463 313.347 205.697 314.377 205.115 315.064C201.97 319.53 196.156 321.935 191.319 324.287C189.998 324.869 188.544 325.292 187.17 325.292C175.858 324.182 177.946 305.022 174.669 297.067C173.03 294.663 167.85 290.804 165.234 289.483C163.305 288.849 161.56 291.227 159.472 291.253C158.177 291.359 156.459 290.566 155.561 289.404C149.614 281.396 164.785 270.112 172 272.966L172.343 273.124L172.317 273.177ZM198.614 310.175C201.415 308.193 187.276 302.881 182.941 300.979C182.492 300.794 182.069 301.19 182.201 301.666L187.328 318.156C187.381 318.315 187.566 318.368 187.698 318.288L198.614 310.175ZM280.755 327.617C280.755 327.617 280.86 327.723 280.94 327.696C281.812 327.3 285.75 323.627 286.437 322.411C287.018 321.407 288.155 319.61 288.816 318.394C290.269 315.778 290.111 311.259 289.82 311.074C289.529 310.889 288.736 311.391 288.736 311.391C287.494 311.814 287.468 311.84 285.168 312.448C283.239 312.95 280.993 313.479 278.667 313.875L272.165 314.879C272.007 314.879 271.927 315.091 272.033 315.223L280.755 327.591V327.617Z" fill="#832F32"></path>
<path d="M303.295 262.48C295.612 254.158 300.094 238.74 303.295 232.071L323.301 233.671C319.833 246.742 310.977 270.803 303.295 262.48Z" fill="white"></path>
<path d="M226.471 263.283C217.899 270.686 205.021 269.103 198.462 265.684L202.464 240.129C215.413 244.027 235.043 255.88 226.471 263.283Z" fill="white"></path>
<path d="M319.235 221.355C326.265 221.249 330.546 225.134 331.154 232.19C334.881 249.526 319.208 271.249 300.523 271.857C298.594 271.989 296.638 272.016 294.682 272.016C292.568 272.016 290.982 272.016 290.559 273.998C290.057 282.666 283.899 296.434 273.645 295.166C271.187 294.452 269.918 291.307 270.658 288.85C272.297 284.939 276.499 282.111 278.006 277.962C280.781 272.941 278.376 265.541 271.927 265.435C267.804 265.118 263.47 265.488 259.452 266.44C254.299 267.761 251.339 273.258 246.529 275.055C244.018 275.742 242.062 273.654 242.591 271.434C243.78 266.255 247.507 262.29 251.207 260.15C263.628 252.988 271.9 256.001 275.891 256.846C277.821 257.243 278.957 256.027 279.301 254.151C281.23 241.175 286.489 228.411 298.224 223.945C304.778 221.566 311.861 221.408 318.68 221.328H319.155L319.235 221.355ZM319.261 233.141C314.53 232.692 302.452 230.921 302.135 237.872C301.844 241.915 304.329 248.152 303.272 256.107C303.192 256.899 303.007 258.379 303.642 258.802C308.531 262.872 324.785 241.942 319.578 233.326L319.288 233.141H319.261Z" fill="#832F32"></path>
<path d="M197.793 226.902C207.836 229.122 217.06 234.09 224.909 240.354C238.837 250.739 242.22 267.679 223.086 274.207C201.573 282.584 173.769 271.775 165.946 249.63C157.621 229.386 181.724 223.942 197.317 226.796L197.82 226.902H197.793ZM205.669 242.521C203.66 244.318 204.268 252.906 202.313 256.263C201.546 259.011 197.132 263.794 200.33 265.354C206.7 267.6 214.126 265.592 220.892 263.424C222.372 262.843 223.984 261.918 224.804 260.703C228.953 254.809 210.347 241.992 205.88 242.415L205.669 242.521Z" fill="#832F32"></path>
<path d="M196.553 197.067C210.084 199.683 239.235 220.191 238.548 235.122C235.694 242.601 225.968 232.374 222.744 229.335C216.744 223.177 210.163 217.152 202.605 213.531C193.46 208.166 183.391 210.862 173.771 210.122C169.859 209.356 169.41 205.524 173.031 201.692C178.924 195.799 188.227 195.217 196.024 196.961L196.553 197.067Z" fill="#832F32"></path>
<path d="M314.452 197.408C323.808 199.972 327.455 210.49 314.743 210.358C303.035 209.829 292.78 216.832 286.147 226.478C283.557 229.57 281.019 233.085 277.266 234.301C273.381 235.464 270.897 230.363 272.853 224.126C278.72 209.221 297.59 194.211 313.976 197.276L314.452 197.408Z" fill="#832F32"></path>
<path d="M239.048 274.686C240.37 275.03 240 279.205 240.053 280.579C240.211 284.913 244.757 283.46 247.162 280.738C249.091 278.571 251.946 278.121 255.117 278.597C258.87 278.861 260.984 281.478 262.438 284.57C263.654 286.79 264.473 289.617 262.385 291.15C259.795 293.132 256.782 289.406 253.901 287.926C247.955 286.235 241.612 295.854 235.771 292.656C229.005 289.538 230.01 273.497 238.652 274.607L239.048 274.712V274.686Z" fill="#832F32"></path>
<path d="M141.264 420.833C138.304 410.553 126.464 405.267 116.685 403.761C106.034 402.096 95.0662 404.105 85.9218 409.866C81.6139 412.588 85.5782 419.432 89.9126 416.71C97.1013 412.191 105.638 410.289 114.069 411.346C120.914 412.191 128.766 416.825 133.6 422.947C136.881 427.204 142.665 425.748 141.238 420.833H141.264Z" fill="#832F32"></path>
<path d="M158.971 535.522C168.776 536.42 178.475 538.27 188.333 538.614C198.191 538.957 208.869 537.9 218.832 535.363C223.774 534.095 221.687 526.457 216.718 527.726C207.098 530.184 197.372 531.056 187.461 530.659C177.55 530.263 168.485 528.492 158.944 527.62C153.87 527.144 153.896 535.073 158.944 535.548L158.971 535.522Z" fill="#832F32"></path>
<path d="M379.667 138.097C379.949 138.401 380.263 138.891 380.56 139.661C380.969 140.723 381.275 142.133 381.469 143.859C381.855 147.31 381.752 151.669 381.386 156.247C380.656 165.37 378.932 174.873 378.305 179.017C376.003 192.492 371.137 205.352 364.536 217.315C363.938 218.237 363.294 219.383 362.659 220.497C361.981 221.686 361.28 222.893 360.537 224.004C359.789 225.122 359.049 226.062 358.318 226.744C358.115 226.933 357.923 227.091 357.742 227.224C357.739 227.206 357.735 227.187 357.731 227.169C357.563 226.194 357.552 225.161 357.479 224.047C357.312 214.945 355.666 205.866 352.981 197.442C352.079 193.841 350.124 190.441 348.708 187.536C347.206 184.455 346.179 181.724 346.375 178.822V178.815C346.404 178.364 346.717 177.327 347.545 175.635C348.33 174.032 349.458 172.078 350.852 169.892C353.636 165.526 357.399 160.365 361.386 155.455C365.377 150.539 369.544 145.935 373.128 142.656C374.926 141.011 376.516 139.755 377.821 138.958C378.473 138.56 379 138.31 379.403 138.175C379.507 138.14 379.594 138.115 379.667 138.097Z" fill="#FF565D" stroke="#FF8589" stroke-width="4.3931"></path>
<path d="M75.9428 430.129C76.2574 428.814 78.1281 428.814 78.4427 430.129C79.7941 435.778 84.2047 440.189 89.8538 441.54C91.1687 441.855 91.1687 443.726 89.8538 444.04C84.2047 445.391 79.7941 449.802 78.4427 455.451C78.1281 456.766 76.2574 456.766 75.9428 455.451C74.5915 449.802 70.1808 445.391 64.5317 444.04C63.2168 443.726 63.2168 441.855 64.5317 441.54C70.1808 440.189 74.5915 435.778 75.9428 430.129Z" fill="white" stroke="#832F32" stroke-width="4.3931"></path>
<path d="M89.2897 461.04C89.469 460.291 90.5351 460.291 90.7144 461.04C91.4845 464.26 93.9982 466.773 97.2177 467.544C97.9671 467.723 97.9671 468.789 97.2177 468.968C93.9982 469.738 91.4845 472.252 90.7144 475.472C90.5351 476.221 89.469 476.221 89.2897 475.472C88.5195 472.252 86.0059 469.738 82.7864 468.968C82.037 468.789 82.037 467.723 82.7864 467.544C86.0059 466.773 88.5195 464.26 89.2897 461.04Z" fill="white" stroke="#832F32" stroke-width="3.29483"></path>
<path d="M58.0447 463.1C58.4704 461.321 61.0021 461.321 61.4277 463.1C63.2565 470.745 69.2254 476.714 76.8702 478.543C78.6497 478.968 78.6497 481.5 76.8702 481.926C69.2254 483.754 63.2565 489.723 61.4277 497.368C61.0021 499.147 58.4704 499.147 58.0447 497.368C56.2159 489.723 50.247 483.754 42.6022 481.926C40.8228 481.5 40.8228 478.968 42.6022 478.543C50.247 476.714 56.2159 470.745 58.0447 463.1Z" fill="white" stroke="#832F32" stroke-width="2.19655"></path>
<path d="M59.1133 463.355C59.2704 462.7 60.2023 462.7 60.3594 463.355C62.2844 471.402 68.5673 477.686 76.6143 479.611C77.27 479.768 77.27 480.7 76.6143 480.857C68.5675 482.782 62.2845 489.065 60.3594 497.112C60.2025 497.768 59.2702 497.768 59.1133 497.112C57.1882 489.065 50.9044 482.782 42.8574 480.857C42.2021 480.7 42.2022 479.768 42.8574 479.611C50.9045 477.686 57.1883 471.402 59.1133 463.355Z" fill="white" stroke="#832F32" stroke-width="2.19655"></path>
<path d="M374.971 148.872C360.197 159.263 351.446 192.198 352.544 204.279C354.741 214.163 354.741 216.36 354.741 216.36C363.912 220.683 382.678 139.395 374.971 148.872Z" fill="#FFDFE0"></path>
<path d="M362.008 169.256L359.152 174.516C356.71 179.931 354.934 185.578 353.796 191.409C352.581 195.214 352.545 200.985 352.545 208.673C350.785 209.547 348.379 203.824 348.152 202.083C349.697 185.515 358.092 168.05 367.997 154.872C368.851 153.738 371.923 150.333 374.51 149.366C376.624 148.879 377.453 149.47 376.707 151.562C376.321 152.646 369.039 153.448 366.062 162.664C367.06 170.147 366.516 185.15 366.516 185.15C366.516 185.15 367.184 194.853 363.21 194.613C359.236 194.373 362.054 188.19 362.142 184.042C362.17 182.707 362.295 181.963 362.348 180.629C362.526 176.184 362.051 173.285 362.024 169.243L362.008 169.256Z" fill="#832F32" stroke="#832F32" stroke-width="2.19655"></path>
</g>
<path d="M150.782 426.653C164.796 418.938 181.407 419.478 196.424 423.644C204.447 425.881 212.135 429.044 219.695 432.515C225.887 435.359 238.382 444.74 241.545 451.245C243.705 455.719 244.879 445.955 242.719 441.507C239.196 434.256 232.166 429.867 225.198 426.601C216.558 422.538 207.712 418.758 198.481 416.187C181.433 411.456 162.713 411.276 146.873 419.967C142.528 422.358 146.41 429.018 150.756 426.627L150.782 426.653Z" fill="#FF8589"></path>
<path d="M150.75 429.711C164.765 421.997 181.376 422.537 196.393 426.703C204.415 428.94 212.104 432.103 219.664 435.574C225.856 438.418 238.351 447.798 241.514 454.304C243.674 458.778 250.334 454.87 248.174 450.421C244.651 443.17 232.135 432.926 225.167 429.66C216.527 425.597 207.681 421.817 198.45 419.246C181.401 414.515 162.682 414.335 146.842 423.026C142.496 425.417 146.379 432.077 150.725 429.686L150.75 429.711Z" fill="#832F32"></path>
<path d="M137.4 398.675V392.208C137.4 390.556 136.944 387.964 137.514 386.426L136.404 388.306L136.831 387.907L134.952 389.018C134.098 389.274 133.956 388.762 135.066 389.474C135.55 389.787 136.034 390.129 136.489 390.499C137.599 391.325 138.652 392.237 139.677 393.148C141.726 395 143.605 397.051 145.341 399.187C147.959 402.406 152.257 399.387 152.627 396.168C153.908 385.315 158.946 375.117 166.545 367.34L161.365 367.996C160.653 367.568 161.052 366.885 160.966 367.853C160.938 368.252 160.966 368.708 160.995 369.107C161.052 370.331 161.109 371.556 161.222 372.781C161.479 375.601 161.906 378.421 162.503 381.184C163.67 386.511 165.577 391.61 167.939 396.51C169.078 398.874 172.949 399.387 174.656 397.364C176.649 395.028 179.381 392.294 182.484 391.61H180.207C179.381 391.496 179.751 390.072 179.637 391.382C179.58 391.895 179.723 392.465 179.723 392.977C179.723 394.06 179.637 395.085 179.41 396.139C178.926 398.247 178.043 400.241 176.706 401.922C175.254 403.717 174.941 406.223 176.706 407.961C178.214 409.471 181.288 409.755 182.74 407.961C187.094 402.577 190.197 394.117 187.322 387.309C183.48 378.165 172.522 386.711 168.623 391.297L175.34 392.151C172.75 386.825 170.956 381.127 170.074 375.259C169.306 370.274 170.643 363.666 165.663 360.589C164.069 359.621 161.792 359.934 160.482 361.245C151.204 370.787 145.625 382.951 144.06 396.139L151.346 393.12C149.126 390.414 146.707 387.879 144.031 385.657C141.612 383.634 138.794 380.985 135.55 380.529C131.537 379.96 128.975 382.951 128.833 386.739C128.69 390.528 128.833 394.715 128.833 398.675C128.833 404.172 137.371 404.172 137.371 398.675H137.4Z" fill="#B23C41"></path>
</g>
<defs>
<clipPath id="clip0_2217_1784">
<rect width="395.324" height="637" fill="white"></rect>
</clipPath>
<clipPath id="clip1_2217_1784">
<rect width="395.324" height="637" fill="white"></rect>
</clipPath>
</defs>
</svg>