<svg xmlns="http://www.w3.org/2000/svg" width="37.495" height="65.362" viewBox="0 0 37.495 65.362" fill="none">
  <path d="M 5.262 64.041 C 11.345 67.505 19.551 63.452 24.675 59.986 C 31.161 55.596 34.559 50.748 36.18 43.148 C 37.701 36.014 37.755 28.488 37.085 21.232 C 36.522 15.114 36.455 9.054 34.019 3.335 C 31.751 -1.99 27.046 -0.209 23.52 3.598 C 19.811 7.602 18.838 11.301 19.358 16.629 C 19.934 22.561 19.683 29.556 18.177 35.38 C 17.049 39.736 14.023 41.871 10.48 44.22 C 7.237 46.369 1.649 48.891 0.306 52.789 C -0.732 55.796 0.855 60.665 5.262 64.043 L 5.262 64.041 Z" fill="currentColor" fill-rule="nonzero"></path>
</svg>