<svg xmlns="http://www.w3.org/2000/svg" width="26.461" height="145.735" viewBox="0 0 26.461 145.735" fill="none">
  <path d="M 6.569 141.182 C 2.218 138.251 1.866 129.675 1.873 124.977 C 1.88 119.92 2.541 114.894 2.402 109.839 C 2.27 105.112 1.405 100.537 0.826 95.862 C -1.254 78.986 1.129 61.226 2.126 44.359 C 2.705 34.608 0.983 23.171 3.828 13.755 C 5.661 7.686 12.311 -2.272 19.746 0.466 C 28.373 3.645 24.711 19.091 24.253 25.855 C 23.924 30.76 23.46 35.68 23.269 40.582 C 23.112 44.583 24.247 48.452 24.809 52.367 C 25.71 58.641 26.427 64.708 25.688 71.062 C 25.018 76.832 23.155 82.387 22.805 88.204 C 22.077 100.299 25.506 112.63 26.129 124.705 C 26.474 131.408 27.788 140.244 20.985 144.394 C 16.588 147.078 11.027 145.437 7.604 142.097 C 6.598 141.114 5.715 140.071 6.569 141.182 Z" fill="currentColor" fill-rule="nonzero"></path>
</svg>