<svg width="246" height="250" viewBox="0 0 246 250" fill="none" xmlns="http://www.w3.org/2000/svg">
<path d="M35.4082 121.245C42.0605 119.462 54.4532 161.454 59.8181 182.672C73.9811 192.114 74.7501 158.62 75.3761 140.29C90.934 156.116 102.2 222.372 108.638 195.548C115.076 168.723 105.687 144.582 127.951 167.651V243.831C158.531 255.097 148.699 195.548 147.264 192.329C137.34 170.065 169.797 124.196 175.161 167.651C180.526 211.105 201.449 191.792 188.842 162.286C176.234 132.779 201.449 113.198 201.449 134.657C201.449 199.839 217.007 144.582 217.007 124.196C244.099 65.7192 244.099 42.6505 223.713 21.1913C178.649 -15.2893 141.095 28.1656 127.951 54.4531C124.196 42.3823 91.2022 13.4123 88.2515 13.4123C-48.0146 -21.7271 27.0927 123.473 35.4082 121.245Z" fill="url(#paint0_linear_1909_2640)"></path>
<path d="M76.0493 22.5526C73.0178 19.4993 68.2497 17.78 64.0997 17.0982C59.5377 16.3275 54.9757 16.535 50.4431 17.5429C47.9413 18.1061 44.5261 19.4308 40.7707 20.4371C39.6977 20.7246 39.141 20.8629 38.3169 21.1593C34.1081 22.6711 29.5166 24.8054 28.2216 29.5483C26.9854 34.0541 29.34 39.3306 34.167 40.1309C39.0527 40.961 43.0261 36.6627 47.4998 35.2991C51.4438 34.0837 55.7115 33.7577 59.7732 34.647C64.6001 35.6845 69.2798 38.1152 74.0479 35.388C78.6982 32.7202 79.8755 26.4655 75.9904 22.5822L76.0493 22.5526Z" fill="#FFEEEF"></path>
<path d="M28.1633 45.1149C27.7699 44.5116 27.6629 44.1044 27.6268 44.042C27.472 43.7737 27.1812 43.0326 27.0904 42.7008C26.7272 41.6147 25.947 40.8831 24.8878 40.3099C23.7983 39.7367 22.5878 39.5256 21.3773 39.8574C19.8338 40.2798 18.5325 41.0641 17.322 42.0898C16.1417 43.1156 15.3851 44.4731 14.8706 45.891C14.3561 47.3089 14.3864 49.0285 14.7798 50.4766C15.143 51.8341 15.9601 53.3124 17.0193 54.2476C18.4417 55.5147 20.1062 56.2689 22.0128 56.3292C23.4352 56.3594 25.0391 55.9068 26.1891 55.0923C27.6418 54.0666 28.9128 52.6487 29.3063 50.8386C29.6997 49.0888 29.5484 47.1883 28.5194 45.6799L28.1633 45.1149Z" fill="#FFEEEF"></path>
<path d="M208.514 21.5354C204.006 18.358 198.171 17.9461 192.809 17.7696C184.116 17.4754 174.775 17.9755 168.234 23.6537C164.875 25.4483 162.075 28.0079 160.602 31.9209C159.364 35.2748 159.423 39.9821 162.959 41.9533C165.935 43.6008 169.766 42.9241 172.713 41.5414C178.017 39.07 181.376 33.7155 187.652 33.539C195.166 33.333 202.12 37.3342 209.487 38.3051C212.492 38.717 214.82 37.1871 215.085 34.0391C215.527 28.9494 212.551 24.3598 208.485 21.5354H208.514Z" fill="#FFEEEF"></path>
<path d="M230.148 45.6514V45.3832C230.148 45.3832 229.724 43.0189 229.074 42.0235C228.453 41.0867 227.566 40.2963 226.413 40.0035C224.757 39.5937 222.983 39.5937 221.298 40.0328C220.5 40.2377 219.702 40.589 218.963 40.9989C218.46 41.2916 218.016 41.6722 217.573 42.0235C217.366 42.1699 217.189 42.3456 217.011 42.5212C216.45 43.1067 215.888 43.8093 215.533 44.5412C215.06 45.5366 214.823 46.2977 214.676 47.3224C214.528 48.3763 214.587 49.196 214.764 50.2792C214.883 51.0696 215.208 51.8015 215.563 52.5334C215.888 53.236 216.42 53.88 216.923 54.4655C217.07 54.6119 217.218 54.7583 217.396 54.9047C217.839 55.256 218.283 55.6365 218.785 55.9C219.938 56.4855 220.796 56.6905 222.067 56.8368C222.865 56.9247 223.663 56.8076 224.462 56.6612C225.23 56.5148 225.97 56.1928 226.679 55.8415C227.359 55.4902 228.01 54.9925 228.542 54.4655C229.074 53.9386 229.577 53.2945 229.872 52.5919C230.109 52.0942 230.375 51.538 230.493 50.9818C230.611 50.4255 230.73 49.7815 230.67 49.196C230.582 47.9079 230.148 45.9197 230.148 45.9197V45.6514Z" fill="#FFEEEF"></path>
<path d="M200.043 2.14713C173.02 -2.59703 147.472 13.1677 132.692 34.9437C130.775 37.7725 129.093 40.6897 127.559 43.6953C111.629 18.1181 84.2815 -2.86223 52.8631 0.320184C37.6406 1.85246 22.4477 8.42355 12.3289 20.1513C0.499095 33.8534 -2.12648 52.1817 1.53162 69.5377C4.98322 85.8623 13.7745 100.036 23.6867 113.266C23.818 113.342 25.3839 115.309 26.8589 116.871C34.8241 125.357 40.4727 135.396 45.7239 145.916C48.4084 151.249 50.031 156.966 50.4145 162.947C50.798 168.634 50.7685 174.822 53.9251 179.802C58.7337 187.375 72.0091 190.116 76.0802 180.333C77.2603 177.474 77.2603 174.233 77.4963 171.198L78.2633 161.032C78.5583 156.936 78.8828 152.84 79.1778 148.744C84.4585 155.787 86.2285 165.364 87.9101 173.85C89.1491 180.126 90.2406 186.491 92.2172 192.62C94.0167 198.219 97.4683 204.496 103.988 205.173C109.77 205.763 114.018 201.46 114.962 196.039C116.083 189.792 113.989 183.987 113.34 177.828C112.927 174.115 112.927 170.196 113.546 166.513C114.166 162.8 115.493 160.531 118.886 163.566C124.226 168.369 124.993 177.887 124.993 184.576C124.993 192.65 123.518 200.606 122.043 208.503C120.744 215.546 118.945 222.883 119.151 230.102C119.328 235.878 120.744 242.184 125.199 246.25C130.155 250.817 137.383 251.083 143.077 247.753C158.299 238.854 152.723 220.319 150.717 206.322C149.478 197.718 149.154 188.937 149.596 180.244C149.95 173.29 150.688 164.421 156.293 159.47C160.217 156.023 167.415 154.549 170.365 159.942C173.433 165.54 171.073 173.054 170.925 179.036C170.66 189.674 177.829 205.232 191.015 199.486C196.385 197.158 199.571 191.501 200.397 185.902C201.429 178.889 198.361 172.436 195.205 166.366C191.605 159.441 189.009 152.752 189.275 144.825C189.363 142.085 191.93 125.171 196.532 128.236C199.6 130.269 198.568 135.455 198.243 138.49C197.683 143.234 197.152 147.978 196.827 152.781C196.414 158.969 194.939 168.399 202.698 170.697C209.778 172.789 215.118 166.955 216.917 160.767C219.13 153.223 219.277 144.973 219.867 137.164C220.457 128.943 221.49 120.928 224.145 113.09C226.416 106.489 229.455 100.183 232.523 93.9361C238.689 81.236 245.179 68.1527 245.681 53.7729C246.595 27.7832 224.646 6.53768 199.984 2.20606L200.043 2.14713ZM225.944 87.3356C219.749 100.124 213.82 112.706 212.02 126.968C211.017 134.866 210.929 142.851 209.896 150.719C209.483 153.813 209.277 158.144 207.447 160.826C204.615 164.981 205.412 158.793 205.471 157.113C205.648 153.253 205.913 149.393 206.297 145.562C206.71 141.496 207.595 137.311 207.477 133.215C207.241 126.526 203.435 119.631 196.119 118.924C188.95 118.246 185.558 124.758 183.316 130.475C180.72 137.134 179.923 144.501 180.808 151.573C181.723 159.028 184.791 165.305 188.183 171.905C190.809 177.062 193.612 183.191 190.307 188.701C187.623 193.21 183.168 192.119 181.221 187.67C178.979 182.454 180.071 176.826 180.454 171.404C180.897 165.423 180.661 158.881 176.944 153.872C173.138 148.744 166.972 146.8 160.777 147.86C146.499 150.306 141.867 165.069 140.923 177.651C140.274 186.167 140.51 194.771 141.484 203.228C142.369 210.919 144.64 218.64 144.817 226.389C144.935 232.194 142.487 240.946 135.229 241.27C129.506 241.535 128.149 234.463 128.031 230.132C127.825 223.236 129.595 216.312 130.834 209.593C132.22 201.961 133.607 194.271 133.813 186.521C134.108 175.323 131.335 154.667 116.85 153.223C100.595 151.573 104.195 177.357 105.965 186.55C106.26 188.112 107.794 197.453 104.342 196.304C102.365 195.626 101.303 192.09 100.772 190.322C99.7989 187.287 99.0614 184.193 98.3829 181.099C95.9343 169.813 94.6363 157.879 88.9721 147.595C86.2285 142.645 82.4229 138.578 77.7323 135.455C74.7232 133.481 71.3011 136.162 71.0651 139.286C70.6226 145.356 70.1801 151.396 69.708 157.467C69.2655 163.301 69.472 169.607 68.3805 175.323C68.056 177.003 67.9085 177.916 66.1385 177.946C64.7519 177.946 63.2474 177.121 62.2738 176.178C58.9697 172.937 60.097 166.139 59.802 161.954C58.74 147.25 51.3648 135.051 42.308 124.03C42.308 123.529 39.937 120.523 39.0225 119.403C28.0187 105.613 18.1996 92.7869 12.4469 75.873C7.19578 60.3735 6.78277 42.3398 16.8426 28.6378C24.6308 18.0297 37.2571 11.6944 50.031 9.60222C64.2504 7.24488 78.5583 10.9577 90.7126 18.3833C105.257 27.2234 116.349 40.7486 124.108 55.7177C126.025 59.4305 130.893 57.8983 132.191 54.6569C141.159 32.0264 162.37 11.3997 187.8 10.1916C210.368 9.13075 235.591 25.8679 236.801 49.8538C237.479 63.2318 231.579 75.6667 225.885 87.3945L225.944 87.3356Z" fill="#B53E43"></path>
<path d="M131.16 219.483C131.16 219.483 127.338 240.345 136.458 238.735C148.403 234.23 133.35 213.991 131.16 219.483Z" fill="#FFEEEF"></path>
<path d="M102.172 186.018C102.172 186.018 101.017 194.849 103.773 194.168C107.383 192.261 102.834 183.694 102.172 186.018Z" fill="#FFEEEF"></path>
<path d="M62.0956 165.171C62.0956 165.171 60.1705 175.657 64.7639 174.848C70.7801 172.584 63.1986 162.41 62.0956 165.171Z" fill="#FFEEEF"></path>
<path d="M189.891 183.212C189.891 183.212 192.586 189.283 186.155 188.815C177.732 187.504 188.347 181.614 189.891 183.212Z" fill="#FFEEEF"></path>
<defs>
<linearGradient id="paint0_linear_1909_2640" x1="122.779" y1="-33.798" x2="122.779" y2="118.282" gradientUnits="userSpaceOnUse">
<stop offset="0.466346" stop-color="#FF565D"></stop>
<stop offset="1" stop-color="#FFAAAE"></stop>
</linearGradient>
</defs>
</svg>