<svg width="374" height="507" viewBox="0 0 374 507" fill="none" xmlns="http://www.w3.org/2000/svg">
<path d="M122.465 478.771C115.971 336.783 77.8383 122.583 142.736 99.8649C153.558 89.3172 182.342 72.9276 210.902 91.7513C246.602 115.281 244.168 134.753 237.677 213.455C221.18 218.053 195.324 227.249 217.393 243.476C234.653 249.54 240.933 251.218 242.499 251.281C242.514 251.112 242.53 250.945 242.545 250.778C243.002 251.083 243.112 251.306 242.499 251.281C239.492 283.639 231.964 348.49 225.507 353.01C217.393 358.689 258.773 347.33 262.83 328.669C266.886 310.008 322.87 328.669 306.643 347.33C309.889 374.917 300.964 442.26 222.261 441.448C220.314 441.448 219.827 473.903 219.827 490.13C199.274 501.49 151.027 515.121 122.465 478.771Z" fill="url(#paint0_linear_1058_2332)"></path>
<path d="M23.478 166.398C12.4434 244.289 74.0529 281.612 106.237 290.537C109.482 247.535 103.803 223.194 103.803 161.53C77.8392 159.584 88.387 94.1873 70.537 88.5072C59.4484 82.0163 34.5125 88.5072 23.478 166.398Z" fill="#547126"></path>
<path d="M283.123 118.527C268.194 171.103 249.587 186.952 243.367 188.304C243.367 197.5 244.167 206.154 237.682 209.4C230.536 212.976 198.742 229.684 208.478 239.42C257.16 256.459 283.123 269.441 313.955 226.438C353.712 156.661 333.428 136.377 335.862 110.413C338.296 84.4494 301.785 52.8063 283.123 118.527Z" fill="#82A747"></path>
<path d="M306.641 48.749C274.836 40.3108 289.062 67.9512 300.15 82.8262C328.545 77.1474 325.305 90.1277 332.607 91.7504C339.91 93.3732 365.062 80.3914 369.119 61.73C372.364 46.8009 356.407 49.019 348.023 51.9942C348.294 41.176 345.589 21.6492 332.607 30.0874C323.683 47.9374 330.173 50.3715 317.192 33.3325C302.263 20.9994 303.938 38.4714 306.641 48.749Z" fill="url(#paint1_linear_1058_2332)"></path>
<path d="M313.956 61.7296C299.676 48.7478 298.374 68.0283 300.268 77.2237L302.597 82.0137L328.561 87.6936C333.429 85.2595 340.062 77.5449 335.863 65.7868C331.806 54.4277 329.372 72.2777 313.956 61.7296Z" fill="#FBB57F"></path>
<path d="M266.078 323.801C256.341 318.662 241.412 304.977 259.587 291.346C268.675 288.101 275.274 295.944 277.437 300.271C276.896 285.126 279.06 257.757 292.042 269.44C304.898 281.011 303.431 290.885 301.037 294.489C307.293 285.283 321.275 270.136 327.742 282.423C334.233 294.755 323.415 303.788 317.194 306.763C330.717 305.682 353.219 308.873 335.044 330.293C316.87 351.713 305.565 339.218 300.967 330.293C299.073 325.424 287.497 317.309 266.078 323.801Z" fill="url(#paint2_linear_1058_2332)"></path>
<path d="M240.234 252.401C239.832 265.57 237.412 299.064 235.236 312.53C233.698 322.051 231.354 330.315 229.242 339.118C228.616 341.373 225.087 354.078 224.313 356.256" stroke="#1D2510" stroke-width="6.49091" stroke-linecap="round"></path>
<path d="M221.396 441.448C221.396 447.188 219.623 481.233 219.961 488.039" stroke="#1D2510" stroke-width="6.49091" stroke-linecap="round"></path>
<path d="M61.7754 130.134C61.7754 143.535 60.1192 183.438 75.3917 213.075C86.0808 233.818 103.318 246.961 106.873 249.484" stroke="#1D2510" stroke-width="6.49091" stroke-linecap="round"></path>
<path d="M318.218 112.78C317.668 115.51 314.857 124.511 310.957 136.495C304.373 156.724 297.672 174.998 291.427 189.675C284.23 206.59 277.822 214.93 271.352 222.019C264.709 227.754 256.205 231.692 246.63 233.275C243.273 233.457 238.733 233.457 234.055 233.457" stroke="#1D2510" stroke-width="6.49091" stroke-linecap="round"></path>
<path d="M21.0445 66.5988C-4.91812 73.9014 14.824 104.462 29.1581 116.092C57.0691 70.006 75.9467 84.4489 81.8966 97.4311C90.0102 90.6696 103.966 72.9275 94.8784 56.0516C85.7912 39.1757 69.4557 56.0514 62.4239 66.5988C64.858 60.649 62.4239 47.9378 53.4989 43.8814C41.1601 38.2734 38.3534 64.4354 38.8944 77.1465C32.9444 72.0078 29.1581 66.5988 21.0445 66.5988Z" fill="#C12965"></path>
<path d="M279.961 346.955C277.57 350.575 266.165 365.942 255.177 375.802C247.039 383.106 232.945 398.445 204.547 401.69" stroke="#1D2510" stroke-width="6.49091" stroke-linecap="round"></path>
<path d="M160.596 86.0728C120.352 53.6183 124.355 29.8183 131.387 21.9751C141.77 10.9414 160.597 23.868 168.712 31.7104C167.09 29.5468 165.629 22.6233 172.769 12.2383C192.849 -10.9794 199.381 11.4513 200.282 26.8976C200.579 24.371 202.776 20.5312 210.092 17.9183C236.705 10.1292 233.621 30.9001 228.753 42.2592C233.081 38.2024 244.818 33.3342 257.151 46.316C279.869 70.6569 223.885 90.941 210.092 90.941C191.431 84.4501 162.221 87.6955 160.596 86.0728Z" fill="url(#paint3_linear_1058_2332)"></path>
<path d="M185.751 62.545C165.629 50.2122 167.631 72.0109 171.147 84.4518L208.468 87.6972C235.243 56.8654 207.656 65.7904 205.222 62.545C194.675 40.6381 188.184 62.545 185.751 62.545Z" fill="#FBB57F"></path>
<path d="M184.047 176.002C184.047 185.698 182.904 212.125 173.713 251.049C165.724 284.884 165.904 316.303 163.972 342.463C160.731 386.331 173.292 480.992 176.146 499.867" stroke="#1D2510" stroke-width="6.49091" stroke-linecap="round"></path>
<path d="M30.9156 116.902C22.3799 113.483 9.58146 99.569 7.38644 88.5041C6.26888 82.8706 6.77515 78.655 8.21032 75.6538C9.73707 72.461 10.6316 69.8428 13.8937 67.4086C18.2443 64.1622 22.8187 64.9745 28.5288 69.0313C32.4047 71.7851 37.717 78.5767 39.3167 77.8008C40.6687 77.145 38.0735 60.3183 40.488 50.7348C41.9448 44.9528 49.1955 42.0562 52.8391 43.8789C57.6906 46.306 58.0359 48.6296 58.8123 49.9143C60.4502 52.6248 60.8474 59.6966 61.2049 66.8225C61.5282 73.2652 73.0193 52.8574 79.4626 49.3975C81.9601 48.0564 85.5858 47.3418 88.4644 48.7623C95.0133 51.9939 100.693 60.6836 96.2544 75.6537C94.1854 82.6322 90.5588 87.0896 86.8506 91.1654C85.7746 92.2993 84.5743 93.4854 81.0718 96.5176" stroke="#7B1C42" stroke-width="6.49091" stroke-linecap="round"></path>
<path d="M161.917 87.6934C152.475 78.4374 134.452 57.6682 131.551 51.9948C125.407 39.9819 123.35 30.521 131.555 22.3581C134.416 19.5114 137.384 17.693 140.456 17.1062C146.742 15.9052 151.078 19.1222 155.872 22.3581C161.081 25.8737 167.422 34.6319 168.043 33.3334C170.259 28.6945 167.384 17.4476 171.5 11.4966C174.788 6.74174 176.641 4.24782 182.647 3.31188C184.781 2.97926 191.369 3.94737 193.195 4.93482C201.223 9.27658 200.281 15.1329 200.647 28.6546C200.719 31.3272 204.822 22.1152 210.228 18.3867C215.398 14.8213 218.406 14.1407 221.941 14.671C227.738 15.5407 229.879 20.0097 230.517 21.1619C234.144 27.7085 228.442 36.4738 226.958 39.9819C225.263 43.9886 234.283 39.6598 246.745 39.9819C251.148 40.0958 258.915 43.8798 261.349 51.1821C263.783 58.4844 262.16 64.9753 256.481 71.4662C244.537 85.1168 228.083 87.6934 215.101 87.6934" stroke="#7B1C42" stroke-width="6.49091" stroke-linecap="round"></path>
<path d="M172.759 85.2623C163.006 75.5259 168.971 61.9661 170.849 60.2471C174.336 57.0567 176.612 57.2299 179.373 57.678C181.835 58.0777 184.728 61.3281 185.529 62.6631C186.589 64.4288 187.361 57.9744 189.11 56.0553C190.828 54.1682 193.001 52.233 195.477 51.9965C198.453 51.7122 201.156 53.1161 202.977 55.1425C206.254 58.7906 203.594 66.7223 205.851 66.2194C207.771 65.7917 209.209 64.0614 211.016 62.6631C214.138 60.2471 218.505 62.0687 219.817 64.169C223.874 70.6599 219.007 82.8282 207.648 89.3191" stroke="#FE9645" stroke-width="6.49091" stroke-linecap="round"></path>
<path d="M300.961 83.6364C294.595 82.0137 279.999 60.9183 288.121 50.3706C289.714 48.3006 292.456 47.6969 295.415 47.9365C298.026 48.1479 302.977 49.1381 304.349 49.5361C310.02 51.1819 304.349 40.0007 304.349 34.9315C304.349 32.4085 306.214 29.2724 310.028 29.2725C315.708 29.2728 318.133 34.1433 319.765 37.3827C321.986 41.7943 322.969 46.3273 324.236 46.3221C326.247 46.3137 328.239 40.2464 329.501 37.3827C330.582 34.9287 332.015 30.5809 336.803 29.2782C341.003 28.1356 344.434 30.6183 345.853 32.4125C349.785 37.3828 344.743 47.2783 348.384 51.6265C351.408 55.2387 361.144 47.102 367.635 52.8046C372.321 56.9215 370.662 66.411 366.012 72.2774C360.809 78.8412 355.59 82.7072 346.225 87.3423C344.732 87.9975 343.503 88.6005 342.161 89.1197C340.82 89.6389 339.402 90.056 335.762 91.4446" stroke="#7B1C42" stroke-width="6.49091" stroke-linecap="round"></path>
<path d="M305.83 81.2071C292.042 71.4708 302.591 60.9202 303.398 60.1015C308.415 55.0076 312.628 58.9216 313.134 59.3003C319.63 64.1667 319.63 71.469 320.552 70.6564C321.837 69.5237 324.608 64.1639 327.854 62.5428C332.722 59.2957 337.59 63.3525 338.402 68.2206C338.402 81.1813 332.605 85.264 330.288 88.5276" stroke="#FE9645" stroke-width="6.49091" stroke-linecap="round"></path>
<path d="M120.7 480.143C120.295 470.462 119.082 449.653 115.724 400.453C112.546 353.902 107.227 263.473 104.544 215.548C101.39 159.23 108.919 142.967 118.931 124.817C126.071 111.872 142.362 100.448 151.65 93.3899C161.013 86.2752 175.083 84.2525 192.376 86.0728C207.792 87.6955 215.804 93.9901 225.726 100.79C233.033 105.798 237.252 115.429 239.562 124.756C241.794 133.765 242.519 142.869 243.95 157.579C244.743 165.733 243.201 179.747 242.756 187.189C241.057 215.548 237.104 213.963 224.019 218.325C219.151 219.948 215.074 220 211.037 225.627C206.881 231.42 209.899 236.691 213.093 239.954C221.085 248.116 245.218 252.316 264.054 255.628C276.541 257.823 287.161 254.453 292.03 251.883C304.288 245.411 321.775 215.188 333.226 190.666C347.75 159.562 335.691 104.406 332.002 93.0011C330.489 88.3252 325.906 85.8552 321.504 83.9671C316.985 82.0283 311.136 80.0627 304.211 82.0156C294.839 84.6582 287.049 109.137 279.328 127.691C274.104 140.245 270.893 150.558 266.522 161.43C261.665 171.749 256.753 179.154 253.377 182.362C251.662 183.837 250.865 185.87 243.492 188.305" stroke="#1D2510" stroke-width="6.49091" stroke-linecap="round"></path>
<path d="M279.08 319.742C276.917 313.522 275.51 301.892 287.194 305.138C292.385 307.085 294.223 310.817 294.494 312.44C296.657 307.302 302.12 299.296 306.664 308.383C310.907 316.869 307.933 319.412 305.539 319.711C310.754 319.594 319.237 325.627 306.664 331.913C301.796 331.913 300.179 321.365 279.08 319.742Z" fill="#FBB57F"></path>
<path d="M113.894 163.868C109.851 163.868 98.2602 161.37 91.9034 155.304C84.9219 148.642 84.3744 130.985 80.9974 106.705C79.9016 98.8265 77.7865 94.071 75.3815 90.4017C73.0219 86.8015 68.1449 85.5905 63.3831 85.257C55.0787 84.6753 46.6864 94.9659 40.2475 103.065C34.1129 110.781 29.7043 121.423 25.24 153.652C17.8255 207.178 35.854 233.427 42.1154 244.545C46.7358 252.748 54.9442 260.054 62.3178 266.472C71.6335 274.581 97.4542 289.722 106.379 289.722" stroke="#1D2510" stroke-width="6.49091" stroke-linecap="round"></path>
<path d="M268.618 325.44C260.531 323.817 249.165 309.213 250.723 301.099C252.281 292.985 255.634 292.174 262.937 292.174C271.05 292.985 274.393 300.491 277.563 298.649C281.536 296.341 276.835 283.233 279.185 275.607C281.236 268.953 287.538 265.503 292.167 267.818C295.413 269.44 298.283 272.679 299.469 275.607C301.903 281.617 301.002 289.482 301.092 295.404C301.099 295.86 306.752 287.55 308.394 285.668C310.03 283.795 312.756 280.086 316.804 279.177C320.454 278.358 323.331 278.453 326.244 280.8C330.693 284.384 328.876 289.99 327.056 295.404C325.135 301.119 315.711 306.693 316.804 306.947C322.999 308.386 325.433 307.575 330.301 307.575C335.169 307.575 339.226 309.198 340.849 312.443C344.774 320.293 338.415 339.218 310.017 340.841" stroke="#7B1C42" stroke-width="6.49091" stroke-linecap="round"></path>
<path d="M280.099 302.228C281.973 301.227 286.47 300.103 291.455 303.199C292.376 303.771 293.34 304.716 294.182 305.729C294.319 305.893 294.456 306.065 294.594 306.243C294.645 306.188 294.694 306.136 294.741 306.089C296.353 304.48 298.24 303.431 300.059 302.895C301.791 302.384 303.808 302.245 305.545 302.939C308.736 304.216 310.265 306.76 310.947 308.877C311.604 310.921 311.569 312.811 311.494 313.573C311.362 314.922 311.034 316.085 310.602 317.085C311.59 317.385 312.625 317.846 313.597 318.556C315.199 319.726 316.45 321.445 317.077 323.767C318.318 328.355 316.461 331.994 313.91 334.275C311.533 336.402 308.322 337.595 305.832 337.597C304.04 337.598 302.586 336.146 302.585 334.354C302.584 332.561 304.037 331.107 305.829 331.106C306.585 331.106 308.287 330.596 309.582 329.438C310.705 328.433 311.282 327.203 310.811 325.461C310.561 324.538 310.156 324.08 309.769 323.797C309.324 323.472 308.703 323.24 307.909 323.114C307.12 322.989 306.32 322.992 305.61 323.02C305.341 323.03 304.866 323.056 304.584 323.059C304.461 323.06 304.114 323.063 303.737 322.997C303.577 322.969 303.093 322.879 302.571 322.568C301.96 322.205 300.962 321.292 300.962 319.745C300.962 318.646 301.497 317.908 301.667 317.686C301.888 317.396 302.115 317.191 302.224 317.096C302.439 316.907 302.71 316.707 302.824 316.621C303.147 316.378 303.446 316.147 303.742 315.844C304.285 315.289 304.887 314.434 305.034 312.937C305.035 312.934 305.037 312.915 305.038 312.879C305.04 312.84 305.043 312.786 305.043 312.72C305.044 312.586 305.039 312.411 305.024 312.21C304.992 311.799 304.916 311.326 304.768 310.865C304.478 309.965 304 309.313 303.134 308.967C303.207 308.996 302.789 308.857 301.895 309.12C301.086 309.358 300.153 309.859 299.328 310.683C299.383 310.629 299.322 310.69 299.074 310.992C298.875 311.236 298.629 311.541 298.377 311.857C297.92 312.432 297.347 313.161 297.168 313.371C297.122 313.426 297.178 313.36 297.082 313.474C297.036 313.529 296.941 313.642 296.82 313.765C296.665 313.922 295.995 314.61 294.875 314.805C293.458 315.051 292.393 314.379 291.847 313.85C291.376 313.393 291.095 312.878 290.942 312.572C290.919 312.526 290.897 312.48 290.876 312.434C290.367 311.445 289.761 310.565 289.191 309.879C288.893 309.521 288.621 309.235 288.397 309.023C288.285 308.919 288.194 308.84 288.124 308.784C288.069 308.74 288.038 308.718 288.031 308.713C286.657 307.86 285.496 307.661 284.665 307.668C284.236 307.672 283.875 307.73 283.602 307.8C283.465 307.835 283.356 307.872 283.276 307.902C283.201 307.931 283.161 307.951 283.156 307.953C282.649 308.224 281.069 309.246 280.171 311.046C279.387 312.617 278.83 315.35 281.24 319.827C282.089 321.405 281.497 323.373 279.919 324.223C278.341 325.072 276.373 324.481 275.524 322.903C272.256 316.832 272.511 311.86 274.364 308.147C276.102 304.663 278.985 302.822 280.099 302.228Z" fill="#FE9645"></path>
<path d="M120.981 480.396C123.717 481.997 141.265 500.36 159.178 502.422C175.822 504.337 187.621 503.235 190.699 502.593C202.802 500.068 214.566 494.649 219.967 489.321" stroke="#1D2510" stroke-width="6.49091" stroke-linecap="round"></path>
<path d="M121.659 118.951C120.083 118.544 112.285 111.224 110.352 109.602" stroke="#1D2510" stroke-width="6.49091" stroke-linecap="round"></path>
<path d="M146.74 97.0536C146.625 97.0536 146.51 97.0536 145.876 96.0769C145.243 95.1002 144.094 93.1469 142.838 91.2905C141.583 89.4342 140.257 87.734 136.453 83.5449" stroke="#1D2510" stroke-width="6.49091" stroke-linecap="round"></path>
<path d="M146.543 187.345C146.543 187.458 146.543 187.571 147.576 188.533C148.61 189.496 150.676 191.306 154.717 195.17" stroke="#1D2510" stroke-width="6.49091" stroke-linecap="round"></path>
<path d="M204.239 372.622C204.239 371.728 204.98 369.262 207.256 365.444C212.559 356.548 224.454 356.239 233.167 355.008C243.854 353.5 253.448 342.169 259.243 334.219C261.756 330.773 265.935 327.566 270.898 324.644C275.263 322.073 280.458 321.119 290.559 322.991C299.484 324.644 303.815 330.309 306.401 336.149C312.87 350.759 307.53 372.829 302.781 388.579C299.087 400.828 291.109 410.984 284.351 417.373C270.898 430.091 259.243 436.582 242.794 439.271C215.563 443.721 208.96 437.089 204.87 435.216C202.746 434.159 200.523 432.883 196.91 428.266" stroke="#1D2510" stroke-width="6.49091" stroke-linecap="round"></path>
<path d="M212.422 156.638C212.422 156.751 212.422 156.864 212.176 157.651C211.931 158.439 211.44 159.897 211.187 161.502C210.934 163.106 210.934 164.812 210.586 168.972" stroke="#1D2510" stroke-width="6.49091" stroke-linecap="round"></path>
<path d="M156.915 118.903C156.801 119.129 156.686 119.355 156.407 120.19C156.129 121.025 155.691 122.462 155.798 124.9C155.905 127.338 156.572 130.732 158.627 136.295" stroke="#1D2510" stroke-width="6.49091" stroke-linecap="round"></path>
<path d="M202.067 109.378C202.067 109.491 202.067 109.604 201.822 110.665C201.576 111.726 201.086 113.732 200.946 115.551C200.806 117.37 201.032 118.942 201.264 120.561" stroke="#1D2510" stroke-width="6.49091" stroke-linecap="round"></path>
<path d="M337.615 196.017C337.479 196.104 333.843 198.222 332.197 199.057C330.551 199.893 327.399 201.475 320.446 205.484" stroke="#1D2510" stroke-width="6.49091" stroke-linecap="round"></path>
<path d="M323.003 230.479C322.867 230.566 314.347 232.769 312.701 233.605C311.055 234.44 307.453 236.172 299.339 238.606" stroke="#1D2510" stroke-width="6.49091" stroke-linecap="round"></path>
<path d="M249.999 273.062C249.864 273.149 241.343 275.352 239.697 276.188C238.051 277.023 234.449 278.755 226.335 281.189" stroke="#1D2510" stroke-width="6.49091" stroke-linecap="round"></path>
<path d="M224.039 303.263C223.903 303.349 210.917 313.232 209.271 314.068" stroke="#1D2510" stroke-width="6.49091" stroke-linecap="round"></path>
<path d="M313.021 376.549C312.886 376.636 312.75 376.723 311.104 377.559C309.458 378.394 306.306 379.977 299.353 383.986" stroke="#1D2510" stroke-width="6.49091" stroke-linecap="round"></path>
<path d="M284.443 424.601C284.285 424.567 284.128 424.534 282.368 423.976C280.609 423.417 277.252 422.335 269.484 420.317" stroke="#1D2510" stroke-width="6.49091" stroke-linecap="round"></path>
<path d="M245.269 338.407C245.21 338.557 245.15 338.706 244.302 340.346C243.453 341.985 241.817 345.11 238.513 352.423" stroke="#1D2510" stroke-width="6.49091" stroke-linecap="round"></path>
<path d="M90.8292 116.902C88.9757 123.368 86.0024 134.739 85.1539 136.378" stroke="#1D2510" stroke-width="6.49091" stroke-linecap="round"></path>
<path d="M266.348 192.362C266.126 193.209 265.68 200.024 265.035 202.903" stroke="#1D2510" stroke-width="6.49091" stroke-linecap="round"></path>
<path d="M299.263 117.716C298.861 118.511 294.103 126.834 292.926 128.352" stroke="#1D2510" stroke-width="6.49091" stroke-linecap="round"></path>
<path d="M343.982 110.41C342.146 113.511 334.092 123.189 331.051 130.694" stroke="#1D2510" stroke-width="6.49091" stroke-linecap="round"></path>
<path d="M185.408 331.777C184.903 329.487 184.166 326.699 183.226 323.13C182.287 319.561 190.01 328.633 196.456 332.064" stroke="#1D2510" stroke-width="6.49091" stroke-linecap="round"></path>
<path d="M229.572 410.617C231.135 409.861 239.239 408.101 241.671 406.801C244.103 405.501 239.878 411.432 237.682 417.11" stroke="#1D2510" stroke-width="6.49091" stroke-linecap="round"></path>
<path d="M145.195 464.747C146.317 463.423 151.604 455.882 153.3 453.708C154.997 451.534 153.538 458.667 153.832 464.749" stroke="#1D2510" stroke-width="6.49091" stroke-linecap="round"></path>
<path d="M144.197 310.262C144.228 308.504 144.259 306.747 144.146 304.405C144.033 302.063 143.774 299.191 143.447 295.515C143.12 291.839 149.211 302.079 154.989 306.543" stroke="#1D2510" stroke-width="6.49091" stroke-linecap="round"></path>
<path d="M147.953 349.029C147.953 349.374 147.953 349.718 146.079 352.764C144.205 355.81 140.456 361.547 136.594 368.502" stroke="#1D2510" stroke-width="6.49091" stroke-linecap="round"></path>
<path d="M117.543 342.289C117.203 342.235 116.863 342.181 114.146 339.855C111.429 337.53 106.346 332.933 100.078 328.035" stroke="#1D2510" stroke-width="6.49091" stroke-linecap="round"></path>
<path d="M115.924 401.339C115.698 401.303 115.471 401.268 113.746 399.201C112.02 397.134 108.802 393.037 104.801 388.708" stroke="#1D2510" stroke-width="6.49091" stroke-linecap="round"></path>
<path d="M120.803 461.383C120.577 461.347 120.35 461.311 118.625 459.245C116.899 457.178 113.681 453.081 109.68 448.752" stroke="#1D2510" stroke-width="6.49091" stroke-linecap="round"></path>
<path d="M144.887 247.757C145 247.985 145.113 248.213 145.454 249.126C145.794 250.04 146.359 251.633 148.316 254.998" stroke="#1D2510" stroke-width="6.49091" stroke-linecap="round"></path>
<path d="M143.76 427.932C143.614 428.479 143.468 429.026 143.336 430.723C143.203 432.42 143.088 435.249 142.621 439.198" stroke="#1D2510" stroke-width="6.49091" stroke-linecap="round"></path>
<path d="M200.848 448.751C200.848 448.977 200.848 449.203 200.791 450.99C200.734 452.777 200.619 456.119 200.5 459.563" stroke="#1D2510" stroke-width="6.49091" stroke-linecap="round"></path>
<path d="M277.415 380.168C277.186 380.396 276.956 380.624 276.09 381.421C275.225 382.218 273.731 383.577 272.44 384.996C271.149 386.415 270.105 387.852 267.985 390.36" stroke="#1D2510" stroke-width="6.49091" stroke-linecap="round"></path>
<path d="M267.319 341.65C266.983 342.227 266.647 342.805 266.221 343.828C265.795 344.852 265.289 346.305 264.829 349.341" stroke="#1D2510" stroke-width="6.49091" stroke-linecap="round"></path>
<path d="M51.8401 223.379C52.5806 223.947 53.829 225.082 55.0408 226.178C56.2525 227.274 57.7035 228.871 61.7603 233.74" stroke="#1D2510" stroke-width="6.49091" stroke-linecap="round"></path>
<path d="M82.1021 161.529C82.1021 161.623 82.1021 161.717 81.3583 163.364C80.6144 165.012 79.1267 168.21 77.1604 172.502" stroke="#1D2510" stroke-width="6.49091" stroke-linecap="round"></path>
<path d="M22.3129 188.879C22.1318 188.818 21.9508 188.758 18.9944 187.713C16.0381 186.669 10.3118 184.642 3.24634 182.042" stroke="#1D2510" stroke-width="6.49091" stroke-linecap="round"></path>
<path d="M40.246 248.231C39.5132 248.71 37.2213 250.973 34.6018 253.036C33.9295 253.514 33.2968 253.998 32.4294 254.755C31.562 255.513 30.4791 256.53 29.0745 258.007" stroke="#1D2510" stroke-width="6.49091" stroke-linecap="round"></path>
<path d="M73.3948 270.541C73.3948 270.446 72.6998 271.089 71.1506 272.683C70.2964 273.583 69.3041 274.671 68.6175 275.525C67.9309 276.379 67.5802 276.967 66.7854 278.143" stroke="#1D2510" stroke-width="6.49091" stroke-linecap="round"></path>
<path d="M239.696 120.766C239.696 120.663 241.422 116.48 244.28 109.847C245.411 107.344 245.894 106.592 246.645 105.216C247.395 103.84 248.398 101.864 249.432 99.6709" stroke="#1D2510" stroke-width="6.49091" stroke-linecap="round"></path>
<path d="M192.402 275.847C192.307 275.847 192.454 275.211 193.065 273.46C193.48 272.346 194.107 270.773 194.597 269.608C195.088 268.443 195.423 267.734 195.769 267.004" stroke="#1D2510" stroke-width="6.49091" stroke-linecap="round"></path>
<path d="M239.459 156.673C239.364 156.766 239.657 156.226 240.352 155.047C241.06 153.881 242.704 151.612 244.964 148.749C245.945 147.562 246.591 146.915 248.231 145.303" stroke="#1D2510" stroke-width="6.49091" stroke-linecap="round"></path>
<path d="M124.962 308.399C124.932 308.399 124.902 308.399 125.56 307.58C126.219 306.761 127.567 305.122 128.683 303.891C129.8 302.659 130.644 301.884 131.514 301.085" stroke="#5F802A" stroke-width="6.49091" stroke-linecap="round"></path>
<path d="M135.957 224.489C135.911 224.489 135.836 222.643 135.86 219.023C135.936 217.248 136.138 215.601 136.429 214.09" stroke="#5F802A" stroke-width="6.49091" stroke-linecap="round"></path>
<path d="M139.02 167.412C139.02 167.317 139.02 167.222 139.332 165.923C139.645 164.625 140.27 162.126 140.914 159.551" stroke="#5F802A" stroke-width="6.49091" stroke-linecap="round"></path>
<path d="M177.629 106.352C177.629 106.593 177.629 106.834 178.156 107.722C178.683 108.61 179.737 110.137 180.788 111.288C181.838 112.439 182.853 113.166 183.9 113.915" stroke="#5F802A" stroke-width="6.49091" stroke-linecap="round"></path>
<path d="M216.617 135.579C216.617 135.611 216.617 135.644 217.017 136.1C217.417 136.557 218.216 137.436 219.04 138.343" stroke="#5F802A" stroke-width="6.49091" stroke-linecap="round"></path>
<path d="M205.446 212.068C205.446 211.94 205.446 211.813 205.643 211.238C205.841 210.662 206.237 209.643 206.997 208.342C207.758 207.041 208.873 205.489 210.021 203.891" stroke="#5F802A" stroke-width="6.49091" stroke-linecap="round"></path>
<path d="M282.559 172.585V178.036" stroke="#5F802A" stroke-width="6.49091" stroke-linecap="round"></path>
<path d="M318.418 158.398L319.174 158.142" stroke="#5F802A" stroke-width="6.49091" stroke-linecap="round"></path>
<path d="M315.586 99.0811H315.485" stroke="#5F802A" stroke-width="6.49091" stroke-linecap="round"></path>
<path d="M49.551 205.415V210.092" stroke="#5F802A" stroke-width="6.49091" stroke-linecap="round"></path>
<path d="M59.5588 107.212L61.6964 108.306" stroke="#5F802A" stroke-width="6.49091" stroke-linecap="round"></path>
<path d="M85.9963 188.912C86.0318 188.984 86.0673 189.056 86.1033 189.881C86.1393 190.706 86.1748 192.282 86.5845 195.059" stroke="#5F802A" stroke-width="6.49091" stroke-linecap="round"></path>
<path d="M37.8167 180.908L39.5115 181.104" stroke="#5F802A" stroke-width="6.49091" stroke-linecap="round"></path>
<path d="M80.6604 243.696C80.7272 243.763 80.795 244.625 81.0016 246.402C81.1748 247.352 81.4868 248.398 81.959 249.366C82.4312 250.333 83.0541 251.19 84.3663 252.499" stroke="#5F802A" stroke-width="6.49091" stroke-linecap="round"></path>
<path d="M142.864 477.135V483.532" stroke="#5F802A" stroke-width="6.49091" stroke-linecap="round"></path>
<path d="M141.239 400.318C141.272 400.284 141.305 400.249 142.189 399.718C143.072 399.187 144.804 398.16 146.589 397.103" stroke="#5F802A" stroke-width="6.49091" stroke-linecap="round"></path>
<path d="M28.2835 135.389C28.237 135.379 28.1905 135.368 24.8796 133.27C21.5687 131.172 19.1395 130.095 11.6917 122.582" stroke="#1D2510" stroke-width="6.49091" stroke-linecap="round"></path>
<path d="M129.821 352.738C129.737 352.535 129.652 352.333 129.566 350.616C129.48 348.9 129.396 345.676 129.309 342.354" stroke="#5F802A" stroke-width="6.49091" stroke-linecap="round"></path>
<path d="M183.012 412.317C183.012 412.286 183.012 412.254 183.359 411.9C183.706 411.546 184.4 410.87 185.175 410.331C185.951 409.793 186.786 409.413 188.776 408.816" stroke="#5F802A" stroke-width="6.49091" stroke-linecap="round"></path>
<path d="M185.463 462.027C185.428 462.027 185.394 462.027 185.359 460.819C185.324 459.612 185.29 457.196 185.254 454.707" stroke="#5F802A" stroke-width="6.49091" stroke-linecap="round"></path>
<path d="M205.285 492.889C205.285 492.858 205.285 492.827 205.386 492.422C205.486 492.017 205.686 491.24 206.253 489.945" stroke="#5F802A" stroke-width="6.49091" stroke-linecap="round"></path>
<path d="M225.992 431.226C225.992 430.981 225.992 430.735 226.134 429.993C226.276 429.25 226.56 428.018 227.042 426.593C227.523 425.168 228.194 423.589 228.886 421.961" stroke="#5F802A" stroke-width="6.49091" stroke-linecap="round"></path>
<path d="M58.4424 100.718C58.262 101.101 54.9961 103.782 52.1458 107.843C50.9508 109.546 49.3521 112.097 47.2226 116.259C45.0931 120.422 42.5139 126.146 40.6026 131.002C38.6913 135.859 38.2618 138.425 37.5789 140.825C36.2798 145.391 35.7946 148.148 35.9193 149.17C36.0822 150.505 35.7527 153.004 35.8592 154.745C35.9338 155.963 36.6279 157.025 37.4126 157.985C37.8075 158.468 38.2987 158.651 38.6778 158.748C39.0804 158.852 39.5903 158.46 40.0257 158.075C41.3587 156.895 41.9069 153.986 42.0258 152.444C42.1017 151.459 42.243 149.972 42.4924 147.975C42.7614 145.82 43.665 141.573 44.8645 136.555C45.6927 133.091 46.2479 131.028 48.4744 125.122C49.4858 122.439 51.4471 118.499 52.7287 115.903C55.2676 110.759 56.2053 109.939 56.9806 108.456C57.7713 106.944 59.1946 105.143 60.7931 101.824C61.0983 101.191 60.9674 100.938 60.7544 100.734C60.2495 100.251 59.4911 100.256 58.8794 100.481C57.7379 100.9 57.1686 102.545 56.1295 104.565C54.9724 106.815 53.8894 108.794 52.0718 112.195C50.5742 114.997 48.0608 120.069 45.8925 125.447C43.7242 130.825 42.016 136.377 40.9763 140.011C38.9691 147.029 38.7713 149.947 38.5885 152.021C38.4763 153.293 38.8912 153.954 39.0092 154.436C39.0682 154.677 39.1132 154.917 39.1593 154.433C39.2053 153.948 39.248 152.733 39.3121 151.802C39.3762 150.872 39.4603 150.263 39.5505 149.358" stroke="#DBE4CE" stroke-width="3.75834" stroke-linecap="round"></path>
<path d="M255.535 404.924C255.569 404.924 255.602 404.924 256.182 404.924C256.761 404.924 257.886 404.924 258.958 404.658C260.03 404.393 261.015 403.862 262.03 403.314" stroke="#5F802A" stroke-width="6.49091" stroke-linecap="round"></path>
<path d="M194.292 356.232C194.174 356.192 194.056 356.152 193.838 355.198C193.619 354.245 193.303 352.378 192.977 348.178" stroke="#5F802A" stroke-width="6.49091" stroke-linecap="round"></path>
<path d="M182.207 302.327C182.207 302.138 182.207 301.949 182.706 301.31C183.204 300.671 184.2 299.588 185.121 298.759C186.041 297.93 186.855 297.387 187.693 296.828" stroke="#5F802A" stroke-width="6.49091" stroke-linecap="round"></path>
<path d="M254.766 242.194H261.077" stroke="#5F802A" stroke-width="6.49091" stroke-linecap="round"></path>
<path d="M290.024 360.826C290.024 360.858 290.024 360.89 290.505 360.734C290.986 360.577 291.948 360.231 294.492 358.229" stroke="#5F802A" stroke-width="6.49091" stroke-linecap="round"></path>
<path d="M285.871 334.456V338.674" stroke="#5F802A" stroke-width="6.49091" stroke-linecap="round"></path>
<path d="M137.938 274.824C137.938 271.794 138.013 269.331 138.264 267.536C138.441 266.643 138.717 265.786 138.971 265.156C139.226 264.526 139.45 264.149 139.682 263.76" stroke="#5F802A" stroke-width="6.49091" stroke-linecap="round"></path>
<path d="M299.227 220.997C299.227 220.907 299.227 220.817 299.248 220.069C299.27 219.322 299.313 217.92 300.777 213.733" stroke="#5F802A" stroke-width="6.49091" stroke-linecap="round"></path>
<path d="M35.5655 178.342C35.6278 178.574 35.2906 183.34 36.2731 183.227C36.7081 183.177 37.5786 177.674 37.1646 177.153C36.7505 176.632 35.9702 176.408 35.2679 176.598C33.7908 177 33.086 178.766 32.6961 180.241C32.3179 181.672 32.7913 183.284 33.4621 184.524C33.7622 185.079 34.6406 184.968 35.1607 184.673C37.4922 183.354 36.0068 179.321 35.2941 177.599C34.9889 176.861 34.1675 176.75 33.6996 177.03C33.2318 177.311 32.0393 178.333 32.0587 179.281C32.0782 180.23 31.2188 182.139 33.036 183.598" stroke="#DBE4CE" stroke-width="3.75834" stroke-linecap="round"></path>
<path d="M141.001 121.969C140.371 122.48 138.354 124.836 134.435 132.144C131.08 138.399 129.145 146.78 126.139 157.584C124.512 163.43 123.186 170.148 121.857 178.248C120.528 186.348 119.364 195.66 118.725 204.044C117.541 219.574 118.279 229.943 118.868 235.033C119.206 238.416 119.478 240.892 119.908 243.834C120.172 245.578 120.531 247.835 120.901 250.16" stroke="#DBE4CE" stroke-width="9.73636" stroke-linecap="round"></path>
<path d="M121.461 272.91C121.51 273.219 122.605 280.68 123.628 286.486C123.985 288.124 124.013 287.106 123.726 284.508C123.438 281.91 122.833 277.764 121.82 272.853" stroke="#DBE4CE" stroke-width="9.73636" stroke-linecap="round"></path>
<path d="M234.433 366.564C232.659 366.564 227.229 366.95 223.306 369.23C222.357 370.044 221.46 371.021 220.677 372.022C219.894 373.023 219.253 374.017 218.078 376.449" stroke="#DBE4CE" stroke-width="9.73636" stroke-linecap="round"></path>
<path d="M206.87 386.763L206.781 386.848" stroke="#DBE4CE" stroke-width="9.73636" stroke-linecap="round"></path>
<defs>
<linearGradient id="paint0_linear_1058_2332" x1="207.512" y1="83.1445" x2="207.512" y2="502.352" gradientUnits="userSpaceOnUse">
<stop stop-color="#3E531D"></stop>
<stop offset="1" stop-color="#759E33"></stop>
</linearGradient>
<linearGradient id="paint1_linear_1058_2332" x1="328.366" y1="28.0283" x2="328.366" y2="91.8872" gradientUnits="userSpaceOnUse">
<stop stop-color="#A9245A"></stop>
<stop offset="1" stop-color="#F1468A"></stop>
</linearGradient>
<linearGradient id="paint2_linear_1058_2332" x1="296.436" y1="266.615" x2="296.436" y2="342.12" gradientUnits="userSpaceOnUse">
<stop stop-color="#A9245A"></stop>
<stop offset="1" stop-color="#F1468A"></stop>
</linearGradient>
<linearGradient id="paint3_linear_1058_2332" x1="194.697" y1="2.23828" x2="194.697" y2="90.941" gradientUnits="userSpaceOnUse">
<stop stop-color="#A9245A"></stop>
<stop offset="1" stop-color="#F1468A"></stop>
</linearGradient>
</defs>
</svg>