<svg width="251" height="250" viewBox="0 0 251 250" fill="none" xmlns="http://www.w3.org/2000/svg">
<path d="M27.9953 86.4433C43.5159 42.6319 71.1355 23.3294 83.0051 19.1545C218.32 35.1172 179.027 3.19185 206.532 6.62996C268.811 20.186 234.773 79.7308 209.97 107.809C228.143 129.174 207.268 174.361 189.095 168.712C147.838 149.312 122.543 152.259 128.683 179.764C141.944 249.017 70.2349 272.593 66.3057 218.074C62.3764 163.555 78.0935 166.993 30.6967 149.557C-16.7002 132.121 20.3823 94.5475 27.9953 86.4433Z" fill="url(#paint0_linear_1909_2675)"></path>
<path d="M239.617 13.7112C230.944 3.38314 217.845 -1.90774 204.527 0.628981C190.883 3.23818 180.541 13.3488 167.659 17.7337C159.494 20.5241 151.257 19.5457 142.947 17.8424C134.347 16.0667 125.856 14.1823 117.111 13.2401C100.818 11.5006 84.0891 12.9864 69.0661 19.8718C56.1841 25.7788 45.0801 35.9256 39.3467 49.0079C36.3712 55.7845 34.5931 62.996 31.9441 69.9176C30.6377 73.2516 28.7959 76.8248 27.0453 78.6874C25.2947 80.5501 5.926 95.2848 1.86181 107.968C-2.23867 120.688 0.555457 135.003 9.04672 145.331C13.2923 150.44 18.9895 154.173 25.3761 156.021C33.069 158.232 41.1974 157.434 48.9629 159.101C55.8575 160.587 61.9901 163.957 62.2441 171.676C62.5344 180.337 61.3369 189.216 60.8652 197.841C59.9943 212.735 59.2685 229.151 71.2071 240.168C80.4241 248.648 94.2496 252.163 106.37 248.648C119.469 244.843 129.376 233.717 133.404 220.925C135.762 213.387 135.545 205.705 134.384 197.986C133.222 190.231 130.719 182.113 131.989 174.213C132.823 168.995 135.508 162.617 140.77 160.551C147.374 157.978 154.596 164.211 160.002 167.183C173.211 174.43 189.94 176.279 203.511 168.886C215.885 162.145 223.759 148.302 221.764 134.205C220.675 126.486 216.357 118.731 217.119 110.831C217.808 103.765 223.397 98.1839 227.933 93.183C238.274 81.7677 247.201 68.3594 249.741 52.9216C252.1 38.6798 248.943 24.8003 239.581 13.675L239.617 13.7112ZM226.989 77.564C219.332 87.9646 207.648 96.2995 206.342 110.106C205.035 124.022 216.067 136.887 207.938 150.223C200.463 162.472 185.222 165.045 172.34 160.841C160.256 156.927 149.842 144.896 136.162 150.766C125.203 155.441 120.377 168.56 120.812 179.758C121.356 193.854 127.816 207.879 121.538 221.577C116.603 232.376 105.934 240.313 93.7053 238.972C81.041 237.595 72.4409 228.245 71.3523 215.743C70.6991 208.024 71.57 200.16 72.0054 192.477C72.4409 184.686 73.7835 176.387 72.84 168.632C71.2071 154.753 57.8896 149.063 45.5156 147.686C38.5121 146.925 30.928 147.36 24.4689 144.135C19.4249 141.598 15.6147 137.104 13.3286 131.959C9.88133 124.276 10.2805 115.941 13.3286 108.476C18.8406 100.474 21.3343 97.3596 21.3343 97.3596C25.7859 93.3202 26.5662 93.0549 30.2063 90.6189C31.6742 89.6365 33.7585 88.1095 34.7019 86.8774C34.7019 86.8774 34.7382 86.8774 34.7745 86.8412C36.2961 84.9001 36.5969 84.2771 37.5324 82.7824C39.3467 79.8833 40.8345 76.7668 42.1409 73.4691C47.0397 60.9667 49.3983 48.5005 59.6677 38.9697C69.9008 29.4751 83.7988 24.6916 97.5155 23.6769C113.917 22.481 129.049 26.6122 145.052 29.2939C152.672 30.5623 160.438 31.0334 167.986 28.9677C173.973 27.337 179.561 24.4379 184.896 21.3938C195.165 15.5956 206.414 7.87675 218.716 11.8993C229.711 15.4869 237.512 26.6847 239.327 37.7376C241.649 51.9432 235.19 66.33 226.953 77.5278L226.989 77.564Z" fill="#CD464C"></path>
<path d="M65.3246 135.56C52.751 122.396 70.5637 120.088 81.0417 120.579C80.3868 119.761 83.4974 116.601 101.179 110.51C118.861 104.42 100.852 135.805 89.6369 152.259C86.7718 152.177 77.8983 148.723 65.3246 135.56Z" fill="#B53E43" stroke="black" stroke-width="0.491159"></path>
<path d="M103.214 30.7382C88.5683 29.8178 73.675 33.4274 63.265 44.2823C58.8926 48.8457 55.8148 54.5052 54.2137 60.6176C52.5457 67.1037 52.3706 77.3713 61.708 76.9236C69.3744 76.5575 73.2501 69.8917 77.178 64.3178C80.5278 60.7133 84.4527 57.6651 88.882 55.5106C94.6596 52.6893 100.343 51.5988 106.674 51.0564C112.46 50.5398 119.888 47.4562 119.338 40.4192C118.735 32.2901 109.512 31.1876 103.11 30.7867L103.214 30.7382Z" fill="#FFDDDF"></path>
<path d="M58.09 86.3134C56.8629 83.963 54.2282 82.6252 51.6295 82.5167C50.3663 82.4805 48.9948 82.8059 47.912 83.4568C47.8759 83.4568 47.8398 83.5291 47.7677 83.5653C47.0819 83.493 46.2914 84.2978 45.6778 84.4786C44.4499 85.7065 43.4676 86.2772 41.9568 87.832C41.8485 87.9043 41.7763 87.9767 41.6681 88.0128C40.477 88.9168 39.5025 89.7484 38.7085 91.0502C37.6257 92.822 37.2648 94.9915 37.337 97.0164C37.337 97.5588 37.4092 98.1373 37.4453 98.6797C37.5896 99.8368 37.6979 100.849 38.3115 101.862C39.0333 103.091 40.0078 103.959 41.3071 104.501C42.426 104.971 43.617 105.188 44.8081 105.08C45.7826 105.008 46.7932 104.899 47.6955 104.574C49.6444 103.923 51.1603 102.946 52.7123 101.609C53.9033 100.596 54.8778 99.2944 55.7801 98.0289C56.502 97.0526 57.1877 95.9678 57.693 94.883C58.3788 93.3643 58.7758 92.1711 58.9202 90.5439C59.0284 89.0614 58.6675 87.5789 57.9818 86.2772L58.09 86.3134Z" fill="#FFDDDF"></path>
<path d="M107.975 106.629C102.304 100.523 94.5362 104.739 88.9007 109.282C87.4195 110.482 84.6178 113.317 83.4979 114.843C81.8362 114.153 78.0091 112.938 76.1305 112.72C69.4112 112.03 62.1682 111.863 57.797 117.46C53.9316 122.476 53.6787 129.381 56.0269 135.087C58.6279 141.339 64.0106 145.591 69.6823 148.898C72.5723 150.607 75.5707 152.133 78.533 153.732C81.7121 155.44 85.6497 158.53 89.3707 158.639C93.4167 158.784 96.09 155.55 98.6549 152.896C101.148 150.352 103.46 147.626 105.591 144.791C109.709 139.267 112.419 132.979 113.25 126.11C114.044 119.495 112.635 111.572 107.939 106.557L107.975 106.629ZM98.9078 135.414C96.6319 139.303 93.6335 142.647 90.4906 145.845C90.4183 145.918 89.768 146.536 89.1178 147.154C88.8649 147.045 88.612 146.936 88.3953 146.79C85.9387 145.482 83.5183 144.137 81.0618 142.829C77.1603 140.721 72.9336 138.758 69.61 135.778C68.2734 134.542 67.1174 133.306 66.2504 131.671C65.564 130.363 65.3472 129.054 65.275 127.528C65.2389 126.655 65.2389 126.474 65.6362 125.274C65.3834 125.965 66.6477 123.748 66.1781 124.257C67.587 122.621 69.9713 122.294 71.9943 121.894C74.198 121.494 76.799 121.276 78.9304 122.149C78.7498 123.53 78.7137 124.947 78.8582 126.328C79.1833 129.236 81.0979 131.78 84.277 131.78C85.8665 131.78 88.2869 131.992 89.3707 130.648C91.3576 129.812 92.2607 126.728 92.0801 124.511C91.9717 122.766 91.5021 121.24 90.8879 119.786C91.3576 118.95 91.8994 118.114 92.4413 117.569C94.356 115.497 97.2821 113.68 99.8109 114.08C99.9554 114.08 100.172 114.407 100.461 114.843C101.003 115.643 101.364 116.515 101.689 117.424C102.412 119.532 102.593 121.494 102.52 123.711C102.376 127.855 100.895 131.853 98.7994 135.414H98.9078Z" fill="#B53E43"></path>
<path d="M106.989 212.535C105.299 210.701 102.998 210.126 100.625 209.838C99.8697 209.766 99.1146 209.73 98.3595 209.694C97.9639 209.694 97.6044 209.694 97.2088 209.658C97.029 209.658 96.8852 209.658 96.7054 209.658C96.4537 209.586 95.9863 209.335 95.9863 209.335C95.8784 209.263 95.8065 209.227 95.7705 209.191C95.5907 209.011 95.375 208.831 95.1952 208.651C95.1233 208.579 95.0873 208.579 95.0514 208.544C95.0514 208.508 95.0154 208.472 94.9794 208.4C94.7637 208.004 94.512 207.645 94.2962 207.249C94.2243 207.069 93.9367 206.314 93.9726 206.422C93.9007 206.17 93.7928 205.883 93.7209 205.631C93.7209 205.487 93.5052 204.409 93.4692 204.445C92.8939 199.483 94.2962 194.341 93.0018 189.451C92.1388 186.25 89.8015 183.554 86.4574 182.871C82.502 182.08 78.5467 184.273 77.5758 188.3C76.8926 191.212 77.1443 194.556 77.2162 197.505C77.2162 197.685 77.2162 197.828 77.2162 198.008C76.8926 205.343 77.6117 213.254 81.675 219.474C84.1201 223.25 87.4642 226.198 91.7792 227.6C95.5907 228.859 100.265 228.679 103.753 226.558C108.392 223.717 111.161 217.029 106.989 212.571V212.535Z" fill="#FFDDDF"></path>
<path d="M120.334 202.39C120.334 202.071 120.188 201.29 120.152 200.971C120.152 200.971 120.152 200.97 120.152 200.935C120.152 200.9 120.152 200.864 120.152 200.829C120.152 200.829 120.152 200.829 120.152 200.793C120.079 200.58 119.898 200.19 119.861 200.119C119.898 200.225 119.68 199.657 119.571 199.48C119.571 199.48 119.571 199.409 119.534 199.374C119.534 199.374 119.534 199.374 119.534 199.338C119.462 199.232 118.772 198.344 118.663 198.238C118.663 198.238 118.626 198.167 118.59 198.167C118.408 198.025 117.791 197.564 118.009 197.741C118.009 197.741 117.645 197.457 117.427 197.315C117.427 197.315 117.427 197.315 117.391 197.315C116.991 197.067 115.72 196.605 115.974 196.712C115.938 196.712 115.902 196.712 115.865 196.676C115.611 196.641 115.248 196.605 115.102 196.57C114.921 196.57 114.557 196.499 114.303 196.464C114.267 196.464 114.231 196.464 114.194 196.464C113.686 196.499 113.141 196.534 112.632 196.676C112.632 196.676 112.632 196.676 112.596 196.676C112.378 196.747 111.506 197.138 111.288 197.209C111.252 197.209 111.215 197.209 111.179 197.28C111.143 197.28 111.106 197.315 111.07 197.351C110.852 197.528 110.162 198.025 109.944 198.202C109.944 198.202 109.907 198.202 109.871 198.238C109.871 198.238 109.798 198.309 109.798 198.344C109.544 198.628 109.181 199.125 108.927 199.445C108.927 199.445 108.927 199.445 108.89 199.515C108.89 199.551 108.818 199.586 108.818 199.657C108.818 199.657 108.818 199.693 108.818 199.728C108.709 199.977 108.382 200.758 108.273 201.006C108.273 201.041 108.273 201.112 108.236 201.148C108.236 201.148 108.236 201.183 108.236 201.219C108.236 201.432 108.055 202.426 108.055 202.638C108.055 202.638 108.055 202.638 108.055 202.674C108.055 202.709 108.055 202.78 108.055 202.816C108.055 202.993 108.236 204.058 108.236 204.235C108.236 204.235 108.236 204.271 108.236 204.306C108.236 204.306 108.236 204.342 108.236 204.377C108.309 204.519 108.709 205.513 108.781 205.655C108.781 205.655 108.781 205.655 108.781 205.69C108.781 205.69 108.781 205.726 108.781 205.761C108.999 206.081 109.399 206.542 109.653 206.862C110.125 207.358 110.707 207.713 111.324 207.926C111.361 207.926 111.397 207.997 111.47 208.033C112.305 208.53 113.25 208.742 114.231 208.742C114.485 208.742 114.884 208.672 115.066 208.636C115.211 208.636 115.647 208.6 115.902 208.53C115.902 208.53 115.902 208.53 115.938 208.53C116.192 208.459 117.028 208.104 117.246 207.997C117.246 207.997 117.318 207.997 117.355 207.926C117.5 207.82 118.336 207.181 118.481 207.075C118.481 207.075 118.481 207.075 118.517 207.075L118.59 207.004C118.917 206.649 119.207 206.258 119.498 205.868C119.498 205.868 119.534 205.797 119.571 205.761C119.571 205.761 119.571 205.69 119.607 205.655C119.716 205.442 120.079 204.59 120.152 204.377C120.152 204.377 120.152 204.342 120.152 204.306C120.152 204.306 120.152 204.235 120.152 204.2C120.152 204.2 120.152 204.164 120.152 204.129C120.225 203.774 120.297 203.064 120.334 202.674C120.334 202.603 120.334 202.532 120.334 202.461V202.39Z" fill="#FFDDDF"></path>
<path d="M223.684 28.0404C222.56 25.3205 221.002 23.2447 218.501 21.67C216.653 20.489 214.406 19.7733 212.232 19.4512C209.115 18.9859 205.926 19.0933 202.809 19.5943C199.511 19.5943 196.213 20.0954 193.133 21.169C190.451 22.0995 188.385 24.8552 189.327 27.7898C190.161 30.295 192.181 31.8808 195.481 32.0844C197.221 32.1918 197.844 32.156 198.967 31.7266C200.598 31.1182 201.427 30.8089 203.094 30.451C203.13 30.451 203.969 30.3308 204.041 30.3308C204.186 30.3308 204.331 30.3308 204.476 30.3666C204.476 30.3666 204.986 30.451 205.058 30.451C205.53 30.5942 205.527 30.5813 205.998 30.6887C206.94 30.9392 207.846 31.2613 208.789 31.6192C209.151 31.7624 209.622 31.9055 209.948 32.0844C208.716 31.4045 210.311 32.2276 210.601 32.3708C212.703 33.2655 214.805 34.1602 217.015 34.697C218.9 35.1622 220.893 34.697 222.307 33.3012C223.575 32.0486 224.409 29.794 223.72 28.0761L223.684 28.0404Z" fill="#FFDDDF"></path>
<path d="M236.416 40.4448C236.416 40.4448 236.344 40.1887 236.308 40.0789C235.912 38.9447 235.624 38.3959 234.94 37.5178C234.257 36.6397 233.789 36.2006 232.817 35.5055C232.206 35.0664 231.45 34.7737 230.766 34.5176C230.479 34.4079 230.109 34.3804 229.863 34.1348C229.791 34.0616 229.69 33.9624 229.618 33.8892C229.114 33.4136 228.535 33.2737 227.816 33.0907C226.448 32.7614 224.865 32.8346 223.642 33.6395C222.49 34.4079 221.483 35.5055 221.159 36.9324C220.871 38.1764 220.655 39.4569 220.547 40.7741C220.547 41.14 220.511 41.5424 220.547 41.9083C220.619 42.7132 220.691 43.5913 220.943 44.3962C221.195 45.0914 221.447 45.8232 221.843 46.4451C221.915 46.5915 222.023 46.7013 222.13 46.8476C222.49 47.3232 222.814 47.8355 223.21 48.2379C223.714 48.7501 224.325 49.2624 224.973 49.5917C225.441 49.8478 225.981 50.0673 226.52 50.2502C226.7 50.3234 226.88 50.36 227.06 50.3966C228.392 50.6527 229.219 50.6527 230.55 50.3966C230.694 50.3966 230.838 50.3234 230.982 50.2868C231.522 50.1039 232.098 49.8478 232.637 49.5551C233.861 48.8599 234.976 47.7257 235.66 46.4817C236.02 45.8231 236.344 45.128 236.488 44.4328C236.632 43.884 236.668 43.262 236.74 42.7132C236.74 42.5303 236.74 42.3473 236.74 42.1644C236.704 41.579 236.638 41.3143 236.494 40.7655L236.416 40.4448Z" fill="#FFDDDF"></path>
<path d="M216.284 42.3766C216.284 42.3766 216.211 42.0478 216.138 41.9017C215.918 41.3536 215.698 40.7691 215.406 40.2576C215.039 39.6 214.527 38.9424 213.977 38.4309C212.842 37.3349 211.304 36.385 209.766 36.0927C208.997 35.9466 208.154 35.8004 207.349 35.8735C206.104 35.9831 205.549 36.0927 204.322 36.3452C203.094 36.5977 203.723 36.5311 203.43 36.5311C202.954 36.6042 202.441 36.6773 201.965 36.7138C201.05 36.9695 200.244 37.4445 199.548 38.1386C198.633 38.8693 198.01 40.1115 197.681 41.2075C197.314 42.4862 197.424 43.6553 197.681 44.934C197.681 45.1167 197.754 45.2628 197.827 45.409C198.047 45.9935 198.267 46.578 198.559 47.0895C198.962 47.8202 199.512 48.4778 200.061 49.1355C200.867 50.0854 201.965 50.8891 202.954 51.5833C203.65 52.0947 204.529 52.4235 205.335 52.6793C205.518 52.7523 205.701 52.7889 205.92 52.8254C206.543 52.935 207.202 53.0446 207.825 53.0446C209.363 53.0446 211.121 52.5697 212.403 51.6929C213.025 51.291 213.684 50.816 214.197 50.2315C214.6 49.7931 214.966 49.2816 215.296 48.8066C215.406 48.6605 215.515 48.4778 215.589 48.2952C215.918 47.6375 216.284 46.9069 216.394 46.1397C216.651 44.6783 216.687 44.4738 216.394 42.9759L216.284 42.3766Z" fill="#FFBBBE"></path>
<defs>
<linearGradient id="paint0_linear_1909_2675" x1="118.614" y1="27.5044" x2="124.262" y2="127.21" gradientUnits="userSpaceOnUse">
<stop stop-color="#E64E54"></stop>
<stop offset="1" stop-color="#FF898E"></stop>
</linearGradient>
</defs>
</svg>