<svg width="230" height="234" viewBox="0 0 230 234" fill="none" xmlns="http://www.w3.org/2000/svg">
<path d="M33.0894 113.305C39.3062 111.64 50.8875 150.881 55.901 170.71C69.1366 179.534 69.8553 148.233 70.4402 131.103C84.9794 145.893 95.5078 207.81 101.524 182.743C107.54 157.675 98.7666 135.114 119.573 156.672V227.864C148.15 238.393 138.962 182.743 137.621 179.734C128.346 158.928 158.678 116.063 163.692 156.672C168.705 197.282 188.258 179.233 176.476 151.659C164.694 124.084 188.258 105.785 188.258 125.839C188.258 186.753 202.797 135.114 202.797 116.063C228.115 61.4153 228.115 39.8572 209.064 19.8032C166.951 -14.2888 131.856 26.3207 119.573 50.887C116.063 39.6066 85.2301 12.5335 82.4726 12.5335C-44.8708 -20.305 25.3185 115.388 33.0894 113.305Z" fill="url(#paint0_linear_1909_2663)"></path>
<path d="M71.0701 21.076C68.2371 18.2227 63.7812 16.616 59.903 15.9788C55.6397 15.2586 51.3764 15.4525 47.1406 16.3944C44.8026 16.9207 41.611 18.1587 38.1015 19.0991C37.0988 19.3677 36.5786 19.497 35.8084 19.774C31.8752 21.1868 27.5844 23.1814 26.3741 27.6137C25.2189 31.8245 27.4193 36.7554 31.9302 37.5034C36.4961 38.279 40.2093 34.2622 44.3901 32.9879C48.0757 31.8522 52.064 31.5474 55.8597 32.3785C60.3706 33.3481 64.7439 35.6196 69.1997 33.071C73.5456 30.5779 74.6458 24.7327 71.0151 21.1037L71.0701 21.076Z" fill="#FDEAF2"></path>
<path d="M26.3204 42.1603C25.9527 41.5965 25.8527 41.2159 25.819 41.1576C25.6743 40.9069 25.4025 40.2144 25.3177 39.9042C24.9783 38.8893 24.2492 38.2056 23.2593 37.6699C22.2412 37.1343 21.1099 36.9369 19.9786 37.247C18.5363 37.6417 17.3202 38.3748 16.1889 39.3333C15.0859 40.2919 14.3788 41.5605 13.8981 42.8856C13.4173 44.2106 13.4455 45.8176 13.8132 47.1709C14.1526 48.4396 14.9162 49.821 15.9061 50.695C17.2353 51.8791 18.7908 52.5839 20.5726 52.6403C21.9018 52.6685 23.4007 52.2456 24.4754 51.4844C25.833 50.5258 27.0208 49.2008 27.3885 47.5092C27.7561 45.874 27.6147 44.0979 26.6531 42.6882L26.3204 42.1603Z" fill="#FDEAF2"></path>
<path d="M194.86 20.1251C190.647 17.1557 185.195 16.7708 180.183 16.6059C172.06 16.3309 163.331 16.7983 157.217 22.1047C154.078 23.7818 151.462 26.1738 150.085 29.8305C148.929 32.9648 148.984 37.3639 152.288 39.206C155.07 40.7456 158.649 40.1133 161.403 38.8211C166.36 36.5116 169.499 31.5076 175.364 31.3427C182.386 31.1502 188.885 34.8894 195.769 35.7967C198.578 36.1816 200.753 34.7519 201.001 31.8101C201.414 27.0536 198.633 22.7645 194.833 20.1251H194.86Z" fill="#FDEAF2"></path>
<path d="M215.079 42.6617V42.411C215.079 42.411 214.683 40.2015 214.075 39.2713C213.495 38.3959 212.666 37.6572 211.588 37.3836C210.041 37.0006 208.383 37.0006 206.808 37.411C206.062 37.6025 205.316 37.9308 204.626 38.3138C204.156 38.5874 203.741 38.943 203.327 39.2713C203.134 39.4081 202.968 39.5723 202.802 39.7364C202.277 40.2836 201.752 40.9402 201.421 41.6241C200.979 42.5543 200.757 43.2657 200.619 44.2232C200.481 45.2081 200.536 45.9741 200.702 46.9864C200.813 47.7251 201.117 48.409 201.448 49.093C201.752 49.7496 202.249 50.3515 202.719 50.8986C202.857 51.0354 202.995 51.1722 203.161 51.309C203.576 51.6373 203.99 51.993 204.46 52.2392C205.537 52.7864 206.339 52.9779 207.527 53.1147C208.273 53.1967 209.019 53.0873 209.765 52.9505C210.483 52.8137 211.174 52.5128 211.837 52.1845C212.472 51.8562 213.08 51.3911 213.578 50.8986C214.075 50.4062 214.545 49.8043 214.821 49.1477C215.042 48.6826 215.291 48.1628 215.401 47.643C215.512 47.1232 215.622 46.5213 215.567 45.9741C215.484 44.7704 215.079 42.9123 215.079 42.9123V42.6617Z" fill="#FDEAF2"></path>
<path d="M186.944 2.00653C161.691 -2.42697 137.816 12.3055 124.004 32.6556C122.212 35.2991 120.64 38.0253 119.207 40.8341C104.319 16.9317 78.7627 -2.67481 49.4016 0.299219C35.1759 1.73116 20.9778 7.87198 11.5216 18.8318C0.466414 31.6367 -1.98724 48.7649 1.43133 64.9843C4.65692 80.24 12.8725 93.4855 22.1357 105.85C22.2584 105.92 23.7217 107.758 25.1002 109.218C32.5438 117.149 37.8226 126.53 42.7299 136.361C45.2387 141.345 46.755 146.688 47.1134 152.278C47.4718 157.592 47.4442 163.375 50.3941 168.029C54.8879 175.106 67.294 177.667 71.0985 168.525C72.2013 165.853 72.2013 162.824 72.4218 159.988L73.1386 150.488C73.4143 146.66 73.7176 142.832 73.9933 139.005C78.9282 145.586 80.5823 154.536 82.1537 162.466C83.3116 168.332 84.3317 174.28 86.1788 180.008C87.8605 185.24 91.0861 191.105 97.1789 191.739C102.582 192.289 106.552 188.269 107.435 183.202C108.482 177.364 106.525 171.939 105.918 166.184C105.532 162.714 105.532 159.052 106.111 155.61C106.69 152.14 107.931 150.02 111.101 152.856C116.091 157.344 116.808 166.239 116.808 172.49C116.808 180.035 115.43 187.47 114.051 194.85C112.838 201.432 111.156 208.288 111.349 215.035C111.515 220.432 112.838 226.325 117.001 230.126C121.633 234.394 128.387 234.642 133.708 231.53C147.934 223.214 142.723 205.893 140.848 192.812C139.691 184.772 139.387 176.565 139.801 168.442C140.132 161.943 140.821 153.654 146.059 149.028C149.726 145.806 156.453 144.429 159.209 149.469C162.077 154.701 159.871 161.723 159.733 167.313C159.485 177.254 166.184 191.794 178.508 186.424C183.525 184.248 186.503 178.961 187.275 173.729C188.24 167.175 185.373 161.145 182.423 155.472C179.059 149.001 176.633 142.75 176.881 135.342C176.964 132.781 179.362 116.975 183.663 119.839C186.53 121.739 185.566 126.585 185.262 129.422C184.738 133.855 184.242 138.289 183.939 142.777C183.553 148.56 182.175 157.372 189.425 159.52C196.042 161.475 201.032 156.023 202.714 150.24C204.781 143.19 204.919 135.48 205.47 128.182C206.022 120.5 206.987 113.009 209.468 105.684C211.591 99.5161 214.43 93.6231 217.298 87.7852C223.06 75.9166 229.125 63.6901 229.593 50.2519C230.448 25.964 209.937 6.10959 186.889 2.06161L186.944 2.00653ZM211.15 81.6169C205.36 93.5681 199.819 105.326 198.137 118.655C197.2 126.035 197.117 133.497 196.152 140.85C195.766 143.741 195.573 147.789 193.864 150.295C191.217 154.178 191.962 148.395 192.017 146.825C192.182 143.218 192.43 139.61 192.789 136.031C193.175 132.23 194.002 128.32 193.891 124.492C193.671 118.241 190.114 111.798 183.277 111.137C176.578 110.504 173.408 116.589 171.312 121.931C168.886 128.155 168.142 135.039 168.969 141.648C169.824 148.615 172.691 154.481 175.861 160.649C178.315 165.468 180.934 171.196 177.846 176.345C175.337 180.558 171.174 179.54 169.355 175.381C167.26 170.507 168.28 165.248 168.638 160.181C169.052 154.591 168.831 148.477 165.357 143.796C161.801 139.005 156.039 137.187 150.249 138.178C136.906 140.464 132.578 154.26 131.695 166.019C131.089 173.977 131.309 182.018 132.219 189.921C133.046 197.108 135.169 204.323 135.335 211.565C135.445 216.99 133.157 225.169 126.375 225.472C121.026 225.72 119.758 219.111 119.648 215.063C119.455 208.619 121.109 202.148 122.267 195.869C123.563 188.737 124.858 181.55 125.051 174.307C125.327 163.843 122.736 144.54 109.199 143.19C94.0085 141.648 97.3719 165.743 99.026 174.335C99.3017 175.794 100.735 184.524 97.5097 183.45C95.6626 182.816 94.6701 179.512 94.1739 177.86C93.2641 175.023 92.5749 172.132 91.9408 169.241C89.6525 158.694 88.4395 147.541 83.1462 137.931C80.5823 133.304 77.0259 129.504 72.6424 126.585C69.8303 124.74 66.6323 127.246 66.4118 130.165C65.9982 135.838 65.5847 141.483 65.1436 147.156C64.73 152.608 64.923 158.501 63.903 163.843C63.5997 165.413 63.4619 166.267 61.8077 166.294C60.512 166.294 59.1059 165.523 58.1962 164.642C55.1084 161.613 56.1619 155.26 55.8862 151.349C54.8937 137.608 48.0014 126.208 39.5377 115.909C39.5377 115.44 37.322 112.631 36.4673 111.585C26.184 98.6974 17.0079 86.7113 11.6319 70.9049C6.72461 56.4202 6.33864 39.5674 15.7397 26.7626C23.018 16.8491 34.8175 10.9286 46.755 8.97347C60.0433 6.77048 73.4143 10.2402 84.7728 17.1796C98.3644 25.4408 108.73 38.0804 115.981 52.0693C117.773 55.539 122.322 54.1071 123.535 51.078C131.916 29.9294 151.738 10.6532 175.503 9.52422C196.593 8.53287 220.165 24.1741 221.295 46.5894C221.929 59.0914 216.415 70.7121 211.095 81.672L211.15 81.6169Z" fill="#A9245A"></path>
<path d="M122.571 205.112C122.571 205.112 118.999 224.607 127.522 223.103C138.685 218.893 124.617 199.979 122.571 205.112Z" fill="#FDEAF2"></path>
<path d="M95.4803 173.838C95.4803 173.838 94.4009 182.091 96.9765 181.454C100.35 179.672 96.0988 171.666 95.4803 173.838Z" fill="#FDEAF2"></path>
<path d="M58.0303 154.356C58.0303 154.356 56.2313 164.156 60.5239 163.4C66.1462 161.283 59.0611 151.776 58.0303 154.356Z" fill="#FDEAF2"></path>
<path d="M177.457 171.216C177.457 171.216 179.975 176.89 173.966 176.452C166.095 175.227 176.014 169.723 177.457 171.216Z" fill="#FDEAF2"></path>
<defs>
<linearGradient id="paint0_linear_1909_2663" x1="114.739" y1="-31.5855" x2="114.739" y2="70.6904" gradientUnits="userSpaceOnUse">
<stop stop-color="#EF317D"></stop>
<stop offset="1" stop-color="#F798BE"></stop>
</linearGradient>
</defs>
</svg>