<svg xmlns="http://www.w3.org/2000/svg" width="75.327" height="32.671" viewBox="0 0 75.327 32.671" fill="none">
  <path d="M 73.832 4.964 C 72.672 3.49 71.038 2.604 69.45 2.604 C 68.491 2.604 67.573 2.92 66.79 3.508 C 65.996 1.711 64.351 0.578 62.465 0.578 C 62.082 0.578 61.707 0.625 61.341 0.718 C 60.062 1.048 59.062 2.163 58.552 3.096 C 58.464 3.261 58.387 3.426 58.315 3.589 C 57.016 1.61 55.185 0.418 52.877 0.418 C 52.465 0.418 52.041 0.458 51.629 0.53 C 50.619 0.712 49.923 1.169 49.506 1.44 C 49.418 1.422 49.315 1.4 49.212 1.375 C 48.635 1.258 47.851 1.093 47.025 1.093 C 45.737 1.093 44.741 1.509 43.999 2.133 C 43.396 1.821 42.772 1.656 42.138 1.656 C 40.772 1.656 39.752 2.313 38.979 3.23 C 38.747 2.714 38.457 2.233 38.087 1.803 C 37.226 0.81 36.061 0.265 34.802 0.265 C 34.322 0.265 33.828 0.341 33.322 0.494 C 32.533 0.735 31.827 1.222 31.229 1.844 C 30.425 0.675 29.223 0 27.884 0 C 27.574 0 27.26 0.036 26.94 0.105 C 24.826 0.563 23.795 2.371 23.228 4.262 C 22.481 3.058 21.31 2.055 19.434 2.055 C 19.13 2.055 18.816 2.084 18.496 2.149 C 17.676 2.307 16.939 2.672 16.31 3.188 C 15.465 2.467 14.469 2.066 13.398 2.066 C 13.135 2.066 12.866 2.091 12.603 2.137 C 10.634 2.501 8.897 4.246 8.242 6.323 C 7.391 5.718 6.428 5.402 5.416 5.402 C 3.246 5.402 1.312 6.887 0.498 9.189 C -0.455 11.865 0.157 14.931 0.7 17.637 C 0.902 18.647 1.112 19.698 1.153 20.378 C 1.179 20.772 1.179 21.418 1.179 22.092 C 1.184 25.802 1.308 28.803 2.736 30.828 C 3.565 31.996 4.813 32.671 6.169 32.671 C 8.489 32.671 10.696 30.81 11.366 28.398 C 11.511 28.438 11.664 28.474 11.819 28.503 C 12.129 28.556 12.443 28.585 12.758 28.585 C 14.315 28.585 15.769 27.886 16.857 26.624 C 17.971 25.326 18.589 23.518 18.553 21.657 C 18.537 20.953 18.506 20.247 18.476 19.543 C 18.429 18.528 18.388 17.564 18.404 16.637 C 18.414 16.649 18.425 16.662 18.439 16.673 C 19.126 17.301 20.063 18.165 20.1 18.592 C 20.131 18.933 20.079 19.608 20.038 20.213 C 19.883 22.368 19.645 25.62 21.765 27.893 C 22.688 28.879 23.879 29.425 25.121 29.425 C 26.636 29.425 28.044 28.626 28.997 27.358 C 29.853 28.24 30.962 28.761 32.168 28.761 C 33.508 28.761 34.782 28.109 35.745 26.929 C 36.03 26.582 36.261 26.225 36.461 25.854 C 37.73 28.354 39.493 28.731 40.436 28.731 C 42.148 28.731 43.503 27.591 44.447 26.165 C 44.735 26.671 45.076 27.17 45.494 27.657 C 46.68 29.037 48.155 29.794 49.649 29.794 C 51.463 29.794 53.118 28.69 54.181 26.766 C 55.34 24.664 54.836 22.268 54.283 20.237 C 54.603 20.313 54.928 20.367 55.268 20.373 L 55.356 20.373 C 55.866 20.373 56.356 20.291 56.825 20.144 C 56.619 21.101 56.454 22.099 56.401 23.085 C 56.164 27.999 58.933 29.56 60.133 30.008 C 60.788 30.248 61.428 30.372 62.03 30.372 C 63.273 30.372 64.195 29.956 64.891 29.31 C 65.958 30.954 67.634 31.951 69.372 31.951 C 70.727 31.951 71.964 31.359 72.862 30.279 C 73.786 29.163 74.249 27.625 74.166 25.939 C 74.063 23.867 73.543 22.176 73.089 20.685 C 72.425 18.512 72.156 17.491 72.739 15.964 C 72.872 15.617 73.172 15.114 73.46 14.626 L 73.45 14.62 C 74.182 13.386 75.095 11.854 75.296 9.846 C 75.466 8.143 74.929 6.364 73.831 4.961 L 73.832 4.964 Z M 15.455 21.75 L 15.449 21.744 C 15.49 23.745 14.082 25.355 12.294 25.032 C 10.34 24.68 9.799 19.795 8.417 18.468 C 7.576 17.664 6.715 18.733 6.824 19.836 C 7.056 22.22 8.907 24.139 8.458 27.128 C 8.236 28.608 6.06 29.922 5.144 28.624 C 3.999 27.01 4.365 22.225 4.242 20.141 C 4.071 17.369 2.473 13.037 3.371 10.513 C 3.932 8.934 5.624 8.435 6.809 9.473 C 8.638 11.076 9.675 17.146 11.196 17.669 C 12.69 18.179 12.706 15.803 12.603 14.745 C 12.407 12.784 10.98 9.82 11.068 8.006 C 11.119 6.93 12.187 5.786 13.099 5.621 C 14.337 5.392 15.151 6.601 15.511 7.788 C 16.233 10.154 15.403 13.63 15.315 16.189 C 15.249 18.055 15.423 19.905 15.455 21.749 L 15.455 21.75 Z M 28.507 10.119 L 28.513 10.119 C 27.909 11.791 26.358 13.347 26.142 15.18 C 25.807 18.039 27.575 20.88 27.132 23.91 C 26.879 25.613 25.059 26.6 23.879 25.331 C 22.369 23.71 23.358 20.346 23.167 18.239 C 22.848 14.67 18.49 13.59 17.496 10.054 C 17.016 8.351 17.13 5.986 19.012 5.621 C 21.161 5.205 21.234 7.964 21.744 9.613 C 22.218 11.145 23.352 13.664 24.77 11.428 C 25.909 9.626 25.435 4.018 27.513 3.566 C 30.168 2.991 29.054 8.609 28.507 10.119 Z M 43.056 10.829 L 43.04 10.823 C 42.581 13.036 42.509 15.966 42.613 18.244 C 42.685 19.84 43.195 20.945 42.68 22.552 C 42.113 24.336 40.407 26.609 39.138 24.096 C 38.663 23.163 38.663 22.141 38.813 21.083 C 39.024 19.574 41.24 15.641 40.142 14.397 C 39.823 14.034 39.117 14.214 38.801 14.561 C 38.111 15.319 37.874 18.754 36.636 18.612 C 35.703 18.507 35.987 15.876 35.924 15.172 C 35.78 13.58 34.744 14.074 34.373 15.312 C 33.559 18.024 35.275 22.339 33.481 24.541 C 32.373 25.897 30.753 25.181 30.445 23.45 C 30.008 20.996 31.759 16.416 32.049 13.693 C 32.281 11.486 31.827 9.149 32.1 7.018 C 32.239 5.909 33.116 4.212 34.122 3.9 C 37.518 2.867 36.514 9.278 36.741 11.326 C 36.808 11.932 36.979 12.858 37.551 13.058 C 38.432 13.199 39.181 10.781 39.475 9.977 C 40.016 8.498 40.82 4.047 42.934 5.468 C 44.707 6.659 43.383 9.249 43.057 10.827 L 43.056 10.829 Z M 55.31 16.859 L 55.305 16.852 C 54.212 16.834 51.335 14.886 50.665 16.705 C 49.933 18.696 52.547 23.098 51.557 24.89 C 50.557 26.705 48.959 26.663 47.696 25.195 C 45.186 22.278 46.711 18.649 46.98 15.443 C 47.258 12.125 44.876 9.213 45.33 5.962 C 45.629 3.813 48.315 4.875 49.393 4.982 C 50.749 5.117 51.023 4.207 52.115 4.013 C 54.925 3.503 57.193 5.863 57.91 8.774 C 58.502 11.192 58.446 16.912 55.312 16.859 L 55.31 16.859 Z M 72.23 9.444 L 72.224 9.45 C 72.038 11.312 70.538 12.873 69.894 14.558 C 68.163 19.096 70.859 21.886 71.075 26.141 C 71.214 28.918 68.4 29.136 67.239 26.987 C 65.996 24.68 66.775 23.153 66.384 20.935 C 66.157 19.65 64.776 18.699 64.28 20.171 C 63.533 22.391 64.594 27.956 61.089 26.659 C 57.842 25.455 60.425 19.203 60.945 16.679 C 61.321 14.847 61.517 12.963 61.419 11.073 C 61.327 9.276 60.358 6.47 61.182 4.95 C 61.347 4.651 61.717 4.233 62.023 4.15 C 62.837 3.939 63.786 4.338 64.09 5.255 C 65.013 8.073 64.533 12.041 64.523 15.007 C 64.709 16.474 65.951 16.503 66.574 15.319 C 67.735 13.099 66.719 8.327 68.239 6.677 C 69.734 5.056 72.442 7.334 72.23 9.449 L 72.23 9.444 Z" fill="currentColor" fill-rule="nonzero"></path>
</svg>