<svg width="964" height="223" viewBox="0 0 964 223" fill="none" xmlns="http://www.w3.org/2000/svg" xmlns:xlink="http://www.w3.org/1999/xlink">
<path d="M950.298 90.5546C955.451 82.9175 961.874 73.4256 963.289 60.988C964.487 50.4415 960.713 39.4222 952.983 30.7304C944.818 21.6022 933.315 16.1107 922.138 16.1107C915.388 16.1107 908.928 18.0746 903.412 21.7113C897.824 10.5829 886.248 3.564 872.966 3.564C870.281 3.564 867.631 3.85493 865.055 4.43681C856.055 6.47338 849.015 13.3832 845.423 19.1656C844.806 20.1839 844.261 21.2021 843.753 22.2204C834.608 9.96464 821.726 2.58208 805.468 2.58208C802.565 2.58208 799.589 2.83665 796.686 3.27306C789.574 4.40044 784.675 7.23709 781.735 8.90999C781.118 8.80089 780.392 8.65542 779.667 8.50995C775.602 7.7826 770.086 6.76432 764.28 6.76432C755.208 6.76432 748.204 9.3464 742.978 13.2013C738.733 11.2739 734.342 10.2556 729.878 10.2556C720.261 10.2556 713.076 14.3287 707.633 20.002C706 16.8017 703.968 13.8196 701.355 11.1648C695.295 5.01869 687.093 1.63653 678.239 1.63653C674.864 1.63653 671.38 2.1093 667.824 3.05485C662.272 4.54591 657.3 7.5644 653.09 11.4193C647.429 4.18224 638.974 0 629.539 0C627.361 0 625.148 0.218204 622.898 0.654612C608.019 3.49126 600.762 14.6924 596.77 26.4027C591.508 18.9474 583.27 12.7286 570.061 12.7286C567.92 12.7286 565.706 12.9104 563.456 13.3104C557.686 14.2924 552.497 16.5471 548.07 19.7474C542.118 15.2743 535.115 12.8013 527.566 12.8013C525.716 12.8013 523.829 12.9468 521.978 13.2377C508.116 15.4925 495.886 26.2936 491.277 39.1676C485.29 35.4218 478.504 33.4579 471.391 33.4579C456.113 33.4579 442.505 42.6588 436.771 56.9148C430.058 73.4983 434.376 92.4821 438.187 109.247C439.602 115.503 441.09 122.012 441.38 126.231C441.561 128.668 441.561 132.668 441.561 136.85C441.598 159.834 442.469 178.418 452.521 190.965C458.363 198.202 467.145 202.384 476.689 202.384C493.019 202.384 508.551 190.856 513.269 175.909C514.285 176.163 515.373 176.381 516.462 176.563C518.639 176.891 520.853 177.072 523.067 177.072C534.026 177.072 544.259 172.745 551.916 164.926C559.755 156.889 564.11 145.687 563.856 134.159C563.747 129.795 563.529 125.431 563.311 121.067C562.985 114.775 562.694 108.811 562.803 103.065C562.876 103.138 562.948 103.21 563.057 103.283C567.884 107.174 574.488 112.52 574.742 115.175C574.96 117.285 574.597 121.467 574.307 125.213C573.218 138.559 571.549 158.707 586.464 172.781C592.959 178.891 601.342 182.273 610.088 182.273C620.757 182.273 630.664 177.327 637.377 169.472C643.401 174.927 651.203 178.163 659.695 178.163C669.13 178.163 678.094 174.127 684.88 166.817C686.876 164.671 688.509 162.453 689.924 160.162C698.851 175.654 711.262 177.982 717.903 177.982C729.951 177.982 739.495 170.926 746.136 162.089C748.168 165.217 750.563 168.308 753.502 171.326C761.849 179.873 772.227 184.564 782.751 184.564C795.525 184.564 807.174 177.727 814.649 165.799C822.814 152.779 819.258 137.941 815.375 125.358C817.625 125.831 819.911 126.158 822.306 126.195C822.415 126.195 822.923 126.195 822.923 126.195C826.516 126.195 829.963 125.685 833.266 124.776C831.814 130.704 830.653 136.887 830.29 142.996C828.621 173.436 848.108 183.109 856.563 185.873C861.172 187.364 865.672 188.128 869.918 188.128C878.663 188.128 885.159 185.546 890.058 181.546C897.57 191.728 909.364 197.911 921.593 197.911C931.137 197.911 939.847 194.238 946.161 187.546C952.657 180.636 955.923 171.108 955.342 160.671C954.616 147.833 950.951 137.359 947.758 128.122C943.076 114.666 941.189 108.338 945.29 98.8827C946.234 96.737 948.338 93.6094 950.37 90.591L950.298 90.5546ZM542.01 134.668C542.3 147.069 532.393 157.034 519.801 155.034C506.047 152.852 502.237 122.594 492.511 114.375C486.596 109.393 480.536 116.012 481.298 122.849C482.931 137.614 495.959 149.506 492.802 168.017C491.241 177.182 475.927 185.328 469.468 177.291C461.412 167.29 463.988 137.65 463.117 124.74C461.92 107.574 450.67 80.7354 456.984 65.0975C460.94 55.3147 472.843 52.2234 481.189 58.6605C494.072 68.5887 501.366 106.193 512.071 109.429C522.595 112.593 522.704 97.8644 521.978 91.3183C520.599 79.1716 510.547 60.8061 511.164 49.5686C511.527 42.9134 519.039 35.8218 525.462 34.8035C534.171 33.3852 539.905 40.8769 542.445 48.223C547.526 62.8791 541.683 84.4085 541.066 100.265C540.594 111.829 541.828 123.285 542.046 134.705L542.01 134.668ZM633.966 62.6609C629.72 73.0256 618.797 82.6629 617.273 94.0095C614.914 111.72 627.361 129.322 624.241 148.088C622.462 158.634 609.652 164.744 601.342 156.889C590.709 146.851 597.677 126.013 596.334 112.957C594.084 90.8455 563.42 84.154 556.416 62.2608C553.041 51.7143 553.84 37.0583 567.085 34.8035C582.218 32.2214 582.726 49.3141 586.319 59.5333C589.657 69.0252 597.641 84.6267 607.62 70.7708C615.64 59.606 612.301 24.8752 626.926 22.075C645.615 18.511 637.776 53.3145 633.93 62.6609H633.966ZM736.229 67.0249C732.999 80.7354 732.491 98.8827 733.217 112.993C733.725 122.885 737.317 129.722 733.688 139.687C729.697 150.742 717.685 164.817 708.758 149.251C705.419 143.469 705.419 137.141 706.472 130.595C707.96 121.249 723.564 96.8825 715.834 89.1726C713.584 86.9179 708.613 88.0452 706.399 90.1909C701.536 94.8823 699.867 116.157 691.158 115.284C684.589 114.63 686.585 98.3372 686.15 93.9731C685.134 84.1176 677.84 87.1724 675.227 94.8459C669.493 111.648 681.577 138.378 668.949 152.015C661.147 160.416 649.752 155.979 647.574 145.251C644.49 130.049 656.828 101.683 658.86 84.8086C660.493 71.1345 657.3 56.6603 659.223 43.4589C660.203 36.5855 666.372 26.0754 673.449 24.1479C697.363 17.7472 690.287 57.4603 691.883 70.1525C692.355 73.8984 693.553 79.6444 697.581 80.8809C703.786 81.7537 709.048 66.7704 711.117 61.7881C714.927 52.6235 720.588 25.0571 735.467 33.858C747.95 41.2405 738.624 57.2785 736.338 67.0613L736.229 67.0249ZM822.56 104.374C814.867 104.265 794.618 92.1911 789.9 103.465C784.747 115.794 803.146 143.069 796.178 154.161C789.138 165.399 777.889 165.144 768.998 156.052C751.325 137.978 762.066 115.503 763.954 95.646C765.913 75.0985 749.148 57.0603 752.341 36.9128C754.446 23.6024 773.352 30.1849 780.937 30.8395C790.481 31.6759 792.404 26.039 800.097 24.8389C819.875 21.6749 835.842 36.2946 840.886 54.3328C845.06 69.3161 844.66 104.738 822.597 104.411L822.56 104.374ZM941.661 58.515C940.355 70.0434 929.795 79.7171 925.258 90.1546C913.065 118.266 932.044 135.541 933.569 161.907C934.548 179.109 914.735 180.455 906.57 167.144C897.824 152.852 903.304 143.396 900.546 129.649C898.949 121.685 889.223 115.794 885.74 124.922C880.478 138.669 887.953 173.145 863.277 165.108C840.415 157.652 858.595 118.921 862.261 103.283C864.91 91.9366 866.289 80.2626 865.599 68.5524C864.946 57.424 858.124 40.0404 863.93 30.6213C865.091 28.7665 867.704 26.1845 869.845 25.6753C875.579 24.3661 882.256 26.8391 884.397 32.5124C890.893 49.9687 887.518 74.553 887.445 92.9185C888.752 102.01 897.497 102.192 901.888 94.8459C910.053 81.0991 902.904 51.5325 913.61 41.3133C924.133 31.2759 943.185 45.3864 941.697 58.4786L941.661 58.515Z" fill="#2F4731"></path>
<path d="M798.248 42.0415C794.401 42.8416 789.865 47.6785 788.341 51.1697C784.567 59.8615 785.401 84.1912 798.937 83.573C812.727 82.9184 820.13 37.532 798.248 42.0415Z" fill="#2F4731"></path>
<path d="M798.248 42.0415C794.401 42.8416 789.865 47.6785 788.341 51.1697C784.567 59.8615 785.401 84.1912 798.937 83.573C812.727 82.9184 820.13 37.532 798.248 42.0415Z"></path>
<path d="M406.07 122.701C418.735 108.118 430.965 77.3514 418.518 54.6218C413.002 44.5844 401.026 37.8565 388.652 37.8565C380.087 37.8565 372.358 41.0932 366.951 46.9483C366.334 47.6393 365.717 48.3303 365.173 49.0576C359.548 41.3114 350.693 36.62 340.387 36.62C328.557 36.62 317.271 42.7661 309.977 52.0034C303.481 45.3118 294.953 40.875 284.466 40.875C282.796 40.875 281.055 41.0204 279.385 41.2386C268.789 42.8024 257.358 50.185 251.443 60.9134C244.294 54.84 235.33 51.4942 226.258 51.4942C223.863 51.4942 221.54 51.7488 219.254 52.1852C219.109 51.967 219 51.7124 218.855 51.4942C213.085 42.9115 203.686 37.9656 193.126 37.9656C191.239 37.9656 189.316 38.1111 187.356 38.4384C173.965 40.5477 166.78 49.4213 162.571 59.3859C156.982 49.5304 147.983 40.9841 132.777 40.9841C127.878 40.9841 122.834 42.0387 117.79 44.148C116.484 44.6935 115.25 45.3481 114.052 46.0391C103.057 35.7835 87.7426 29.2374 73.2996 29.2374C72.0295 29.2374 70.7956 29.2738 69.5618 29.3829C62.4855 29.9648 57.1147 32.5105 53.7035 34.2197C52.5785 33.9652 51.3084 33.6379 50.2923 33.4197C45.2481 32.1832 38.9701 30.6558 32.4381 30.6558C19.9547 30.6558 9.72115 36.4745 4.31407 46.6574C-4.68562 63.5682 2.31818 83.1702 7.94298 98.9172C9.72115 103.9 12.4065 111.464 12.5517 114.082C12.6606 116.664 11.5356 121.21 10.4469 125.574C9.14052 130.811 7.65267 136.739 7.18091 143.14C6.05595 158.887 10.6284 181.253 23.3658 195.727C31.3131 204.746 41.5104 209.801 52.8326 210.383C53.1954 210.383 53.7761 210.383 54.1753 210.383C68.6183 210.383 80.0131 198.382 83.9686 192.054C92.061 179.18 89.049 164.778 85.3476 152.341C88.033 152.85 90.8998 153.177 93.8755 153.177C103.492 153.177 112.238 149.686 119.096 143.067C122.217 140.049 124.757 136.557 126.899 132.775C132.088 137.757 137.568 143.213 138.584 146.849C139.382 149.722 138.947 154.414 138.475 159.396C137.422 170.234 135.862 186.635 146.966 202.055C154.261 212.165 164.966 217.984 176.361 217.984C188.699 217.984 199.295 211.474 205.428 201.182C207.061 204.928 209.093 208.419 211.742 211.474C217.694 218.42 226.766 222.384 236.673 222.384C251.298 222.384 264.216 214.274 269.805 202.564C273.906 204.237 278.514 205.182 283.74 205.182C286.824 205.182 289.982 204.819 293.139 204.055C295.715 203.437 298.219 202.455 300.614 201.218C307.146 211.038 317.634 217.038 329.21 217.038C337.919 217.038 346.157 213.729 352.907 207.619C353.415 208.092 353.959 208.528 354.504 208.965C360.201 213.438 367.132 215.802 374.535 215.802C388.797 215.802 403.603 206.601 411.405 192.927C418.336 180.78 418.518 166.779 411.913 155.505C408.211 149.213 402.224 144.049 395.873 138.521C394.748 137.539 393.333 136.339 391.918 135.066C392.789 134.375 393.623 133.721 394.349 133.139C398.704 129.72 402.768 126.484 406.07 122.701ZM104.036 127.356C90.3917 140.485 69.2715 116.155 60.5984 128.338C52.8326 139.249 73.2633 168.161 65.57 180.416C63.5741 183.617 57.8767 188.781 53.9575 188.563C35.0146 187.581 27.7931 159.978 28.9181 144.667C29.6438 134.339 34.8332 123.247 34.3251 112.955C33.5631 97.6443 16.3258 70.478 23.5836 56.8766C28.9906 46.6937 48.0787 57.313 56.5703 56.3311C61.4331 55.7856 65.3523 51.567 71.34 51.0942C83.388 50.1123 98.085 58.1494 104.508 68.1505C113.726 82.4792 117.209 114.664 104.036 127.356ZM198.823 99.79C194.578 110.3 185.179 117.428 182.348 128.629C178.32 144.485 190.731 164.888 189.316 181.835C188.082 196.563 173.421 201.473 164.639 189.29C153.825 174.307 164.204 157.323 159.559 140.921C154.478 122.956 130.999 111.864 122.979 94.1167C119.169 85.6795 115.576 68.7323 126.136 64.2955C145.987 56.0038 147.801 84.1884 152.628 96.1897C155.349 102.954 162.353 115.901 170.881 107.682C180.643 98.2626 176.179 62.2953 190.731 60.0042C209.964 56.9493 202.779 89.9708 198.823 99.8264V99.79ZM300.76 166.342C300.578 172.816 294.736 181.253 288.203 182.78C264.797 188.272 262.148 150.195 250.826 137.539C245.673 131.793 238.415 134.957 239.286 143.649C240.737 158.814 253.693 172.743 250.898 190.817C249.483 199.946 233.951 203.837 228.29 197.218C218.492 185.799 221.722 152.595 220.125 137.43C218.274 120.083 210.944 103.79 212.867 85.7522C214.246 72.8418 228.109 69.7506 237.363 77.606C251.951 90.0072 253.91 114.191 264.543 129.284C272.454 140.521 281.49 137.539 280.873 123.829C280.22 109.136 268.607 88.2979 269.152 75.8603C269.406 69.8234 276.772 63.6773 282.47 62.8408C294.046 61.1679 300.651 74.6238 302.393 84.1884C304.606 96.517 300.578 108.736 299.889 121.065C299.054 136.085 301.159 151.541 300.76 166.342ZM393.151 166.56C401.607 180.925 379.18 200.564 367.967 191.763C358.133 184.053 355.665 149.577 349.786 137.903C346.629 137.757 345.903 141.54 345.504 144.049C343.435 157.469 349.278 178.634 340.206 189.508C332.367 198.891 320.718 196.345 316.727 185.035C311.138 169.252 323.077 145.067 324.384 128.411C325.799 110.591 321.154 90.2618 323.585 73.2419C325.545 59.3859 348.153 50.7669 349.822 68.5869C350.911 80.1153 346.157 103.536 351.201 112.519C356.282 121.538 368.221 113.937 371.705 106.845C377.221 95.6078 376.604 68.696 382.918 61.8589C386.801 57.6767 396.672 60.1496 399.429 65.2047C406.179 77.4969 398.268 98.5535 389.631 108.445C383.68 115.319 365.136 125.429 365.136 134.739C365.136 144.631 388.361 158.414 393.151 166.597V166.56Z" fill="#2F4731"></path>
<path d="M68.5456 68.2628C50.8002 70.9176 53.8122 109.285 67.4206 109.831C80.8476 110.376 85.1297 80.8459 78.5977 72.2995C76.4929 69.5356 71.9568 67.7536 68.5456 68.2628Z" fill="#2F4731"></path>
<path d="M68.5456 68.2628C50.8002 70.9176 53.8122 109.285 67.4206 109.831C80.8476 110.376 85.1297 80.8459 78.5977 72.2995C76.4929 69.5356 71.9568 67.7536 68.5456 68.2628Z"></path>
<path d="M913.572 41.3122C902.867 51.5314 910.016 81.098 901.851 94.8449C897.46 102.227 888.714 102.009 887.408 92.9174C887.481 74.5519 890.855 49.9676 884.36 32.5113C882.255 26.838 875.541 24.365 869.808 25.6743C867.63 26.1834 865.054 28.7291 863.893 30.6202C858.086 40.0394 864.872 57.3866 865.562 68.5513C866.251 80.2252 864.872 91.9355 862.223 103.282C858.558 118.956 840.377 157.688 863.239 165.107C887.916 173.144 880.44 138.704 885.702 124.921C889.186 115.792 898.912 121.684 900.508 129.648C903.266 143.395 897.787 152.851 906.532 167.143C914.697 180.454 934.511 179.072 933.531 161.906C932.007 135.54 913.028 118.265 925.221 90.1535C929.757 79.7161 940.317 70.0424 941.624 58.514C943.112 45.4217 924.06 31.3112 913.536 41.3486L913.572 41.3122Z" fill="#F6F2E8"></path>
<path d="M302.393 84.2268C300.651 74.6622 294.046 61.17 282.47 62.8792C276.773 63.7157 269.406 69.8618 269.152 75.8987C268.608 88.3364 280.22 109.211 280.873 123.867C281.49 137.541 272.454 140.523 264.543 129.322C253.911 114.23 251.951 90.0456 237.363 77.6444C228.109 69.789 214.247 72.8802 212.868 85.7906C210.944 103.829 218.275 120.121 220.125 137.469C221.722 152.634 218.492 185.837 228.291 197.256C233.952 203.875 249.483 199.984 250.899 190.856C253.693 172.781 240.738 158.889 239.286 143.687C238.451 134.996 245.709 131.832 250.826 137.578C262.112 150.197 264.797 188.31 288.204 182.819C294.736 181.291 300.578 172.854 300.76 166.381C301.159 151.579 299.054 136.123 299.889 121.103C300.578 108.775 304.643 96.5554 302.393 84.2268Z" fill="#F6F2E8"></path>
<path d="M542.372 48.1852C539.832 40.839 534.098 33.3837 525.389 34.7657C518.966 35.8203 511.454 42.8756 511.091 49.5308C510.474 60.7683 520.526 79.1338 521.905 91.2805C522.631 97.863 522.522 112.555 511.998 109.391C501.329 106.155 493.999 68.5509 481.116 58.6226C472.77 52.1856 460.867 55.2768 456.912 65.0597C450.597 80.6976 461.883 107.5 463.044 124.702C463.952 137.576 461.375 167.252 469.395 177.253C475.854 185.29 491.168 177.144 492.729 167.979C495.886 149.468 482.858 137.576 481.225 122.811C480.463 115.974 486.523 109.355 492.439 114.337C502.2 122.556 505.974 152.814 519.728 154.996C532.32 156.996 542.191 147.032 541.937 134.63C541.683 123.211 540.485 111.755 540.957 100.19C541.574 84.3343 547.416 62.8049 542.336 48.1489L542.372 48.1852Z" fill="#F6F2E8"></path>
<path d="M800.061 24.8374C792.404 26.0738 790.444 31.7108 780.9 30.838C773.316 30.147 754.409 23.5645 752.304 36.9113C749.111 57.0952 765.876 75.097 763.917 95.6445C762.03 115.501 751.324 137.976 768.961 156.051C777.852 165.142 789.101 165.397 796.141 154.16C803.109 143.067 784.674 115.792 789.863 103.463C794.581 92.1896 814.83 104.264 822.524 104.373C844.587 104.7 844.986 69.2782 840.813 54.2949C835.805 36.2567 819.802 21.637 800.024 24.801L800.061 24.8374ZM798.936 83.5706C785.436 84.1888 784.601 59.8591 788.339 51.1673C789.863 47.676 794.4 42.8028 798.246 42.0391C820.092 37.5295 812.689 82.916 798.936 83.5706Z" fill="#F6F2E8"></path>
<path d="M71.3036 51.1321C65.3159 51.6049 61.3967 55.8235 56.5339 56.369C48.006 57.3145 28.9542 46.7316 23.5472 56.9145C16.2894 70.5159 33.5267 97.6822 34.2887 112.993C34.7968 123.321 29.6074 134.377 28.8817 144.705C27.793 160.016 34.9782 187.619 53.9211 188.601C57.8403 188.819 63.5377 183.655 65.5336 180.454C73.2269 168.198 52.7962 139.286 60.562 128.376C69.2714 116.193 90.3553 140.523 104 127.394C117.173 114.702 113.689 82.5171 104.472 68.1884C98.0123 58.151 83.3516 50.1502 71.3036 51.1321ZM67.4207 109.865C53.8123 109.32 50.8003 70.9523 68.5456 68.2975C71.9931 67.7883 76.5292 69.5703 78.5977 72.3342C85.0934 80.9169 80.8476 110.411 67.4207 109.865Z" fill="#F6F2E8"></path>
<path d="M735.358 33.8214C720.479 25.0205 714.818 52.5869 711.008 61.7515C708.939 66.6974 703.678 81.7171 697.472 80.8443C693.48 79.6078 692.246 73.8982 691.775 70.116C690.178 57.4238 697.291 17.7107 673.34 24.1113C666.263 26.0024 660.094 36.5489 659.115 43.4223C657.191 56.6237 660.385 71.0979 658.752 84.772C656.756 101.61 644.381 130.013 647.466 145.214C649.643 155.943 661.038 160.38 668.84 151.979C681.469 138.377 669.384 111.647 675.118 94.8094C677.731 87.1359 685.025 84.1174 686.041 93.9365C686.476 98.337 684.517 114.593 691.049 115.248C699.758 116.121 701.428 94.8457 706.29 90.1544C708.504 88.045 713.476 86.9177 715.725 89.1361C723.491 96.8459 707.851 121.212 706.363 130.558C705.311 137.068 705.311 143.396 708.649 149.215C717.613 164.78 729.588 150.706 733.58 139.65C737.209 129.686 733.58 122.849 733.108 112.957C732.418 98.8461 732.89 80.6988 736.12 66.9884C738.442 57.2056 747.878 41.2039 735.358 33.8214Z" fill="#F6F2E8"></path>
<path d="M389.631 108.41C398.232 98.4819 406.143 77.4615 399.429 65.1694C396.671 60.1507 386.801 57.6414 382.918 61.8236C376.604 68.6243 377.221 95.5725 371.705 106.81C368.221 113.865 356.318 121.502 351.201 112.483C346.157 103.501 350.875 80.1164 349.822 68.5516C348.153 50.6952 325.545 59.3506 323.585 73.2066C321.154 90.2265 325.799 110.592 324.384 128.376C323.077 145.068 311.138 169.253 316.727 185C320.718 196.31 332.367 198.856 340.206 189.473C349.278 178.599 343.399 157.433 345.504 144.014C345.903 141.504 346.629 137.759 349.786 137.868C355.701 149.542 358.132 184.018 367.967 191.728C379.18 200.529 401.607 180.927 393.151 166.525C388.361 158.379 365.136 144.559 365.136 134.667C365.136 125.357 383.68 115.247 389.631 108.374V108.41Z" fill="#F6F2E8"></path>
<path d="M190.731 60.0058C176.179 62.297 180.643 98.2643 170.881 107.683C162.353 115.902 155.349 102.992 152.628 96.1913C147.801 84.2265 145.987 56.0418 126.137 64.2972C115.577 68.6976 119.169 85.6812 122.98 94.1184C130.999 111.866 154.478 122.958 159.559 140.923C164.204 157.325 153.862 174.308 164.639 189.292C173.421 201.475 188.082 196.565 189.316 181.836C190.731 164.889 178.32 144.487 182.348 128.631C185.179 117.466 194.578 110.302 198.824 99.7917C202.779 89.9361 209.964 56.951 190.731 59.9695V60.0058Z" fill="#F6F2E8"></path>
<path d="M626.925 22.0761C612.264 24.8764 615.639 59.6072 607.619 70.772C597.64 84.6643 589.656 69.0263 586.318 59.5345C582.725 49.3153 582.217 32.1862 567.084 34.8047C553.803 37.0958 553.004 51.7155 556.415 62.262C563.419 84.1551 594.083 90.8467 596.333 112.958C597.676 126.014 590.709 146.852 601.341 156.89C609.651 164.745 622.462 158.635 624.24 148.089C627.361 129.323 614.913 111.722 617.272 94.0107C618.796 82.6641 629.683 73.0267 633.965 62.6621C637.812 53.3157 645.65 18.5121 626.961 22.0761H626.925Z" fill="#F6F2E8"></path>
</svg>