<svg xmlns="http://www.w3.org/2000/svg" width="37.814" height="37.814" viewBox="0 0 37.814 37.814" fill="none">
  <path d="M 18.25 2.745 C 18.415 2.054 19.398 2.054 19.564 2.745 L 21.399 10.419 C 22.109 13.387 24.427 15.704 27.395 16.414 L 35.068 18.25 C 35.759 18.415 35.759 19.398 35.068 19.564 L 27.395 21.399 C 24.427 22.109 22.109 24.427 21.399 27.395 L 19.564 35.068 C 19.398 35.759 18.415 35.759 18.25 35.068 L 16.414 27.395 C 15.704 24.427 13.387 22.109 10.419 21.399 L 2.745 19.564 C 2.054 19.398 2.054 18.415 2.745 18.25 L 10.419 16.414 C 13.387 15.704 15.704 13.387 16.414 10.419 L 18.25 2.745 Z" fill="currentColor" fill-rule="nonzero"></path>
  <path d="M 10.419 16.414 L 9.476 12.474 L 10.419 16.414 Z M 2.745 19.564 L 3.688 15.623 L 2.745 19.564 Z M 2.745 18.25 L 3.688 22.19 L 2.745 18.25 Z M 10.419 21.399 L 9.476 25.34 L 10.419 21.399 Z M 19.564 35.068 L 15.623 34.126 L 19.564 35.068 Z M 35.068 18.25 L 34.126 22.19 L 35.068 18.25 Z M 19.564 2.745 L 15.623 3.688 L 19.564 2.745 Z M 18.25 2.745 L 22.19 3.688 L 18.25 2.745 Z M 19.564 2.745 L 15.623 3.688 L 17.459 11.362 L 21.399 10.419 L 25.34 9.476 L 23.504 1.803 L 19.564 2.745 Z M 27.395 16.414 L 26.452 20.355 L 34.126 22.19 L 35.068 18.25 L 36.011 14.31 L 28.337 12.474 L 27.395 16.414 Z M 35.068 19.564 L 34.126 15.623 L 26.452 17.459 L 27.395 21.399 L 28.337 25.34 L 36.011 23.504 L 35.068 19.564 Z M 21.399 27.395 L 17.459 26.452 L 15.623 34.126 L 19.564 35.068 L 23.504 36.011 L 25.34 28.337 L 21.399 27.395 Z M 18.25 35.068 L 22.19 34.126 L 20.355 26.452 L 16.414 27.395 L 12.474 28.337 L 14.31 36.011 L 18.25 35.068 Z M 10.419 21.399 L 11.362 17.459 L 3.688 15.623 L 2.745 19.564 L 1.803 23.504 L 9.476 25.34 L 10.419 21.399 Z M 2.745 18.25 L 3.688 22.19 L 11.362 20.355 L 10.419 16.414 L 9.476 12.474 L 1.803 14.31 L 2.745 18.25 Z M 16.414 10.419 L 20.355 11.362 L 22.19 3.688 L 18.25 2.745 L 14.31 1.803 L 12.474 9.476 L 16.414 10.419 Z M 10.419 16.414 L 11.362 20.355 C 15.814 19.29 19.29 15.814 20.355 11.362 L 16.414 10.419 L 12.474 9.476 C 12.119 10.96 10.96 12.119 9.476 12.474 L 10.419 16.414 Z M 2.745 19.564 L 3.688 15.623 C 7.142 16.45 7.142 21.364 3.688 22.19 L 2.745 18.25 L 1.803 14.31 C -3.033 15.467 -3.033 22.347 1.803 23.504 L 2.745 19.564 Z M 16.414 27.395 L 20.355 26.452 C 19.29 22 15.814 18.524 11.362 17.459 L 10.419 21.399 L 9.476 25.34 C 10.96 25.695 12.119 26.853 12.474 28.337 L 16.414 27.395 Z M 19.564 35.068 L 15.623 34.126 C 16.45 30.672 21.364 30.672 22.19 34.126 L 18.25 35.068 L 14.31 36.011 C 15.467 40.847 22.347 40.847 23.504 36.011 L 19.564 35.068 Z M 27.395 21.399 L 26.452 17.459 C 22 18.524 18.524 22 17.459 26.452 L 21.399 27.395 L 25.34 28.337 C 25.695 26.853 26.853 25.695 28.337 25.34 L 27.395 21.399 Z M 35.068 18.25 L 34.126 22.19 C 30.672 21.364 30.672 16.45 34.126 15.623 L 35.068 19.564 L 36.011 23.504 C 40.847 22.347 40.847 15.467 36.011 14.31 L 35.068 18.25 Z M 21.399 10.419 L 17.459 11.362 C 18.524 15.814 22 19.29 26.452 20.355 L 27.395 16.414 L 28.337 12.474 C 26.853 12.119 25.695 10.96 25.34 9.476 L 21.399 10.419 Z M 19.564 2.745 L 23.504 1.803 C 22.347 -3.033 15.467 -3.033 14.31 1.803 L 18.25 2.745 L 22.19 3.688 C 21.364 7.142 16.45 7.142 15.623 3.688 L 19.564 2.745 Z" fill="currentColor" fill-rule="nonzero"></path>
</svg>