<svg xmlns="http://www.w3.org/2000/svg" width="28.360" height="28.360" viewBox="0 0 28.360 28.360" fill="none">
  <path d="M 13.523 2.745 C 13.689 2.054 14.672 2.054 14.837 2.745 L 15.76 6.605 C 16.47 9.573 18.787 11.89 21.756 12.6 L 25.615 13.523 C 26.306 13.689 26.306 14.672 25.615 14.837 L 21.756 15.76 C 18.787 16.47 16.47 18.787 15.76 21.756 L 14.837 25.615 C 14.672 26.306 13.689 26.306 13.523 25.615 L 12.6 21.756 C 11.89 18.787 9.573 16.47 6.605 15.76 L 2.745 14.837 C 2.054 14.672 2.054 13.689 2.745 13.523 L 6.605 12.6 C 9.573 11.89 11.89 9.573 12.6 6.605 L 13.523 2.745 Z" fill="currentColor" fill-rule="nonzero"></path>
  <path d="M 6.605 12.6 L 5.662 8.66 L 6.605 12.6 Z M 2.745 14.837 L 3.688 10.897 L 2.745 14.837 Z M 2.745 13.523 L 3.688 17.464 L 2.745 13.523 Z M 12.6 21.756 L 8.66 22.698 L 12.6 21.756 Z M 14.837 25.615 L 10.897 24.672 L 14.837 25.615 Z M 13.523 25.615 L 17.464 24.672 L 13.523 25.615 Z M 15.76 21.756 L 11.82 20.813 L 15.76 21.756 Z M 25.615 13.523 L 24.672 17.464 L 25.615 13.523 Z M 25.615 14.837 L 24.672 10.897 L 25.615 14.837 Z M 14.837 2.745 L 10.897 3.688 L 14.837 2.745 Z M 13.523 2.745 L 17.464 3.688 L 13.523 2.745 Z M 14.837 2.745 L 10.897 3.688 L 11.82 7.547 L 15.76 6.605 L 19.7 5.662 L 18.777 1.803 L 14.837 2.745 Z M 21.756 12.6 L 20.813 16.54 L 24.672 17.464 L 25.615 13.523 L 26.558 9.583 L 22.698 8.66 L 21.756 12.6 Z M 25.615 14.837 L 24.672 10.897 L 20.813 11.82 L 21.756 15.76 L 22.698 19.7 L 26.558 18.777 L 25.615 14.837 Z M 15.76 21.756 L 11.82 20.813 L 10.897 24.672 L 14.837 25.615 L 18.777 26.558 L 19.7 22.698 L 15.76 21.756 Z M 13.523 25.615 L 17.464 24.672 L 16.54 20.813 L 12.6 21.756 L 8.66 22.698 L 9.583 26.558 L 13.523 25.615 Z M 6.605 15.76 L 7.547 11.82 L 3.688 10.897 L 2.745 14.837 L 1.803 18.777 L 5.662 19.7 L 6.605 15.76 Z M 2.745 13.523 L 3.688 17.464 L 7.547 16.54 L 6.605 12.6 L 5.662 8.66 L 1.803 9.583 L 2.745 13.523 Z M 12.6 6.605 L 16.54 7.547 L 17.464 3.688 L 13.523 2.745 L 9.583 1.803 L 8.66 5.662 L 12.6 6.605 Z M 6.605 12.6 L 7.547 16.54 C 11.999 15.475 15.475 11.999 16.54 7.547 L 12.6 6.605 L 8.66 5.662 C 8.305 7.146 7.146 8.305 5.662 8.66 L 6.605 12.6 Z M 2.745 14.837 L 3.688 10.897 C 7.142 11.723 7.142 16.637 3.688 17.464 L 2.745 13.523 L 1.803 9.583 C -3.033 10.74 -3.033 17.62 1.803 18.777 L 2.745 14.837 Z M 12.6 21.756 L 16.54 20.813 C 15.475 16.361 11.999 12.885 7.547 11.82 L 6.605 15.76 L 5.662 19.7 C 7.146 20.055 8.305 21.214 8.66 22.698 L 12.6 21.756 Z M 14.837 25.615 L 10.897 24.672 C 11.723 21.218 16.637 21.218 17.464 24.672 L 13.523 25.615 L 9.583 26.558 C 10.74 31.394 17.62 31.394 18.777 26.558 L 14.837 25.615 Z M 21.756 15.76 L 20.813 11.82 C 16.361 12.885 12.885 16.361 11.82 20.813 L 15.76 21.756 L 19.7 22.698 C 20.055 21.214 21.214 20.055 22.698 19.7 L 21.756 15.76 Z M 25.615 13.523 L 24.672 17.464 C 21.218 16.637 21.218 11.723 24.672 10.897 L 25.615 14.837 L 26.558 18.777 C 31.394 17.62 31.394 10.74 26.558 9.583 L 25.615 13.523 Z M 15.76 6.605 L 11.82 7.547 C 12.885 11.999 16.361 15.475 20.813 16.54 L 21.756 12.6 L 22.698 8.66 C 21.214 8.305 20.055 7.146 19.7 5.662 L 15.76 6.605 Z M 14.837 2.745 L 18.777 1.803 C 17.62 -3.033 10.74 -3.033 9.583 1.803 L 13.523 2.745 L 17.464 3.688 C 16.637 7.142 11.723 7.142 10.897 3.688 L 14.837 2.745 Z" fill="currentColor" fill-rule="nonzero"></path>
</svg>